BD-Bold.ufo
<glyph name="numbersign" format="2">
	<unicode hex="0023"/>
	<advance height="2048" width="1349"/>
	<outline>
		<contour>
			<point x="250" y="869" type="line" smooth="yes"/>
			<point x="205" y="869"/>
			<point x="168" y="889"/>
			<point x="168" y="914" type="curve" smooth="yes"/>
			<point x="168" y="939"/>
			<point x="205" y="960"/>
			<point x="250" y="960" type="curve" smooth="yes"/>
			<point x="446" y="960" type="line"/>
			<point x="519" y="1345" type="line" smooth="yes"/>
			<point x="523" y="1367"/>
			<point x="559" y="1383"/>
			<point x="598" y="1381" type="curve" smooth="yes"/>
			<point x="637" y="1378"/>
			<point x="665" y="1359"/>
			<point x="661" y="1337" type="curve" smooth="yes"/>
			<point x="590" y="960" type="line"/>
			<point x="852" y="960" type="line"/>
			<point x="925" y="1345" type="line" smooth="yes"/>
			<point x="929" y="1367"/>
			<point x="964" y="1383"/>
			<point x="1003" y="1381" type="curve" smooth="yes"/>
			<point x="1042" y="1378"/>
			<point x="1071" y="1359"/>
			<point x="1067" y="1337" type="curve" smooth="yes"/>
			<point x="995" y="960" type="line"/>
			<point x="1168" y="960" type="line" smooth="yes"/>
			<point x="1213" y="960"/>
			<point x="1249" y="939"/>
			<point x="1249" y="914" type="curve" smooth="yes"/>
			<point x="1249" y="889"/>
			<point x="1213" y="869"/>
			<point x="1168" y="869" type="curve" smooth="yes"/>
			<point x="978" y="869" type="line"/>
			<point x="904" y="478" type="line"/>
			<point x="1099" y="478" type="line" smooth="yes"/>
			<point x="1144" y="478"/>
			<point x="1181" y="458"/>
			<point x="1181" y="432" type="curve" smooth="yes"/>
			<point x="1181" y="407"/>
			<point x="1144" y="387"/>
			<point x="1099" y="387" type="curve" smooth="yes"/>
			<point x="887" y="387" type="line"/>
			<point x="816" y="12" type="line" smooth="yes"/>
			<point x="811" y="-10"/>
			<point x="776" y="-26"/>
			<point x="737" y="-23" type="curve" smooth="yes"/>
			<point x="698" y="-21"/>
			<point x="670" y="-1"/>
			<point x="674" y="21" type="curve" smooth="yes"/>
			<point x="743" y="387" type="line"/>
			<point x="481" y="387" type="line"/>
			<point x="410" y="12" type="line" smooth="yes"/>
			<point x="406" y="-10"/>
			<point x="371" y="-26"/>
			<point x="331" y="-23" type="curve" smooth="yes"/>
			<point x="292" y="-21"/>
			<point x="264" y="-1"/>
			<point x="268" y="21" type="curve" smooth="yes"/>
			<point x="338" y="387" type="line"/>
			<point x="181" y="387" type="line" smooth="yes"/>
			<point x="136" y="387"/>
			<point x="100" y="407"/>
			<point x="100" y="432" type="curve" smooth="yes"/>
			<point x="100" y="458"/>
			<point x="136" y="478"/>
			<point x="181" y="478" type="curve" smooth="yes"/>
			<point x="355" y="478" type="line"/>
			<point x="429" y="869" type="line"/>
		</contour>
		<contour>
			<point x="498" y="478" type="line"/>
			<point x="760" y="478" type="line"/>
			<point x="834" y="869" type="line"/>
			<point x="572" y="869" type="line"/>
		</contour>
	</outline>
</glyph>
<glyph name="slash" format="2">
  <advance height="2048" width="848.0"/>
  <unicode hex="002F"/>
  <outline>
    <contour>
      <point x="219.0" y="-1.0" type="line" smooth="yes"/>
      <point x="212.0" y="-17.0"/>
      <point x="181.0" y="-28.0"/>
      <point x="149.0" y="-24.0" type="curve" smooth="yes"/>
      <point x="116.0" y="-21.0"/>
      <point x="95.0" y="-5.0"/>
      <point x="101.0" y="11.0" type="curve" smooth="yes"/>
      <point x="629.0" y="1357.0" type="line" smooth="yes"/>
      <point x="636.0" y="1373.0"/>
      <point x="667.0" y="1384.0"/>
      <point x="699.0" y="1380.0" type="curve" smooth="yes"/>
      <point x="732.0" y="1377.0"/>
      <point x="753.0" y="1362.0"/>
      <point x="747.0" y="1345.0" type="curve" smooth="yes"/>
    </contour>
  </outline>
</glyph>
<glyph name="two" format="2">
	<unicode hex="0032"/>
	<advance height="2048" width="1119"/>
	<outline>
		<contour>
			<point x="271" y="967" type="curve" smooth="yes"/>
			<point x="275" y="942"/>
			<point x="242" y="920"/>
			<point x="198" y="918" type="curve" smooth="yes"/>
			<point x="153" y="916"/>
			<point x="114" y="934"/>
			<point x="110" y="959" type="curve" smooth="yes"/>
			<point x="88" y="1097"/>
			<point x="183" y="1254"/>
			<point x="304" y="1320" type="curve" smooth="yes"/>
			<point x="382" y="1364"/>
			<point x="472" y="1381"/>
			<point x="566" y="1381" type="curve" smooth="yes"/>
			<point x="778" y="1381"/>
			<point x="982" y="1260"/>
			<point x="1015" y="1038" type="curve" smooth="yes"/>
			<point x="1057" y="748"/>
			<point x="771" y="606"/>
			<point x="547" y="494" type="curve" smooth="yes"/>
			<point x="462" y="452"/>
			<point x="372" y="414"/>
			<point x="321" y="328" type="curve" smooth="yes"/>
			<point x="289" y="274"/>
			<point x="268" y="200"/>
			<point x="264" y="91" type="curve"/>
			<point x="931" y="91" type="line" smooth="yes"/>
			<point x="976" y="91"/>
			<point x="1012" y="71"/>
			<point x="1012" y="46" type="curve" smooth="yes"/>
			<point x="1012" y="20"/>
			<point x="976" y="0"/>
			<point x="931" y="0" type="curve" smooth="yes"/>
			<point x="182" y="0" type="line" smooth="yes"/>
			<point x="137" y="0"/>
			<point x="100" y="20"/>
			<point x="100" y="46" type="curve" smooth="yes"/>
			<point x="100" y="189"/>
			<point x="125" y="286"/>
			<point x="167" y="357" type="curve" smooth="yes"/>
			<point x="231" y="464"/>
			<point x="333" y="510"/>
			<point x="439" y="563" type="curve" smooth="yes"/>
			<point x="636" y="660"/>
			<point x="888" y="785"/>
			<point x="852" y="1031" type="curve" smooth="yes"/>
			<point x="831" y="1175"/>
			<point x="714" y="1290"/>
			<point x="566" y="1290" type="curve" smooth="yes"/>
			<point x="494" y="1290"/>
			<point x="433" y="1272"/>
			<point x="382" y="1232" type="curve" smooth="yes"/>
			<point x="311" y="1177"/>
			<point x="258" y="1052"/>
		</contour>
	</outline>
</glyph>
<glyph name="five" format="2">
  <advance height="2048" width="1133.0"/>
  <unicode hex="0035"/>
  <outline>
    <contour>
      <point x="144.0" y="640.0" type="curve" smooth="yes"/>
      <point x="233.0" y="1312.0" type="line" smooth="yes"/>
      <point x="236.0" y="1337.0"/>
      <point x="270.0" y="1357.0"/>
      <point x="314.0" y="1357.0" type="curve" smooth="yes"/>
      <point x="907.0" y="1357.0" type="line" smooth="yes"/>
      <point x="952.0" y="1357.0"/>
      <point x="988.0" y="1337.0"/>
      <point x="988.0" y="1312.0" type="curve" smooth="yes"/>
      <point x="988.0" y="1286.0"/>
      <point x="952.0" y="1266.0"/>
      <point x="907.0" y="1266.0" type="curve" smooth="yes"/>
      <point x="390.0" y="1266.0" type="line"/>
      <point x="330.0" y="810.0" type="line"/>
      <point x="408.0" y="848.0"/>
      <point x="497.0" y="864.0"/>
      <point x="587.0" y="860.0" type="curve" smooth="yes"/>
      <point x="842.0" y="848.0"/>
      <point x="1033.0" y="680.0"/>
      <point x="1033.0" y="418.0" type="curve" smooth="yes"/>
      <point x="1033.0" y="147.0"/>
      <point x="828.0" y="-21.0"/>
      <point x="566.0" y="-24.0" type="curve" smooth="yes"/>
      <point x="352.0" y="-26.0"/>
      <point x="152.0" y="88.0"/>
      <point x="101.0" y="305.0" type="curve" smooth="yes"/>
      <point x="95.0" y="330.0"/>
      <point x="126.0" y="353.0"/>
      <point x="171.0" y="356.0" type="curve" smooth="yes"/>
      <point x="215.0" y="359.0"/>
      <point x="256.0" y="341.0"/>
      <point x="262.0" y="317.0" type="curve" smooth="yes"/>
      <point x="295.0" y="173.0"/>
      <point x="413.0" y="66.0"/>
      <point x="563.0" y="67.0" type="curve" smooth="yes"/>
      <point x="757.0" y="69.0"/>
      <point x="870.0" y="236.0"/>
      <point x="870.0" y="418.0" type="curve" smooth="yes"/>
      <point x="870.0" y="596.0"/>
      <point x="763.0" y="760.0"/>
      <point x="574.0" y="769.0" type="curve" smooth="yes"/>
      <point x="466.0" y="774.0"/>
      <point x="366.0" y="720.0"/>
      <point x="307.0" y="629.0" type="curve" smooth="yes"/>
      <point x="284.0" y="593.0"/>
      <point x="265.0" y="584.0"/>
      <point x="219.0" y="586.0" type="curve" smooth="yes"/>
      <point x="187.0" y="587.0"/>
      <point x="139.0" y="600.0"/>
    </contour>
  </outline>
</glyph>
<glyph name="nine" format="2">
	<unicode hex="0039"/>
	<advance height="2048" width="1157"/>
	<outline>
		<contour>
			<point x="1023" y="400" type="curve" smooth="yes"/>
			<point x="956" y="150"/>
			<point x="795" y="-25"/>
			<point x="527" y="-24" type="curve" smooth="yes"/>
			<point x="335" y="-23"/>
			<point x="172" y="86"/>
			<point x="127" y="277" type="curve" smooth="yes"/>
			<point x="121" y="302"/>
			<point x="153" y="325"/>
			<point x="197" y="328" type="curve" smooth="yes"/>
			<point x="242" y="331"/>
			<point x="282" y="314"/>
			<point x="288" y="289" type="curve" smooth="yes"/>
			<point x="315" y="176"/>
			<point x="404" y="68"/>
			<point x="528" y="67" type="curve" smooth="yes"/>
			<point x="715" y="66"/>
			<point x="819" y="254"/>
			<point x="862" y="413" type="curve" smooth="yes"/>
			<point x="882" y="488"/>
			<point x="893" y="572"/>
			<point x="896" y="655" type="curve"/>
			<point x="825" y="552"/>
			<point x="706" y="488"/>
			<point x="556" y="488" type="curve" smooth="yes"/>
			<point x="431" y="488"/>
			<point x="322" y="528"/>
			<point x="241" y="599" type="curve" smooth="yes"/>
			<point x="153" y="678"/>
			<point x="100" y="793"/>
			<point x="100" y="934" type="curve" smooth="yes"/>
			<point x="100" y="1047"/>
			<point x="133" y="1143"/>
			<point x="192" y="1217" type="curve" smooth="yes"/>
			<point x="273" y="1321"/>
			<point x="403" y="1381"/>
			<point x="556" y="1381" type="curve" smooth="yes"/>
			<point x="716" y="1381"/>
			<point x="829" y="1328"/>
			<point x="908" y="1236" type="curve" smooth="yes"/>
			<point x="974" y="1158"/>
			<point x="1012" y="1061"/>
			<point x="1033" y="959" type="curve" smooth="yes"/>
			<point x="1052" y="869"/>
			<point x="1057" y="775"/>
			<point x="1057" y="688" type="curve"/>
			<point x="1056" y="585"/>
			<point x="1045" y="482"/>
		</contour>
		<contour>
			<point x="263" y="934" type="curve" smooth="yes"/>
			<point x="263" y="759"/>
			<point x="364" y="579"/>
			<point x="556" y="579" type="curve" smooth="yes"/>
			<point x="747" y="579"/>
			<point x="848" y="759"/>
			<point x="848" y="934" type="curve" smooth="yes"/>
			<point x="848" y="1110"/>
			<point x="747" y="1290"/>
			<point x="556" y="1290" type="curve" smooth="yes"/>
			<point x="364" y="1290"/>
			<point x="263" y="1110"/>
		</contour>
	</outline>
</glyph>
<glyph name="A" format="2">
  <advance height="2048" width="1423.0"/>
  <unicode hex="0041"/>
  <outline>
    <contour>
      <point x="619.0" y="1348.0" type="line" smooth="yes"/>
      <point x="628.0" y="1368.0"/>
      <point x="668.0" y="1380.0"/>
      <point x="708.0" y="1381.0" type="curve" smooth="yes"/>
      <point x="748.0" y="1382.0"/>
      <point x="788.0" y="1371.0"/>
      <point x="799.0" y="1346.0" type="curve" smooth="yes"/>
      <point x="1371.0" y="30.0" type="line" smooth="yes"/>
      <point x="1381.0" y="6.0"/>
      <point x="1350.0" y="-18.0"/>
      <point x="1302.0" y="-23.0" type="curve" smooth="yes"/>
      <point x="1253.0" y="-28.0"/>
      <point x="1206.0" y="-13.0"/>
      <point x="1195.0" y="11.0" type="curve" smooth="yes"/>
      <point x="1008.0" y="441.0" type="line"/>
      <point x="355.0" y="441.0" type="line"/>
      <point x="167.0" y="-1.0" type="line" smooth="yes"/>
      <point x="160.0" y="-17.0"/>
      <point x="129.0" y="-27.0"/>
      <point x="97.0" y="-23.0" type="curve" smooth="yes"/>
      <point x="65.0" y="-20.0"/>
      <point x="45.0" y="-4.0"/>
      <point x="51.0" y="12.0" type="curve" smooth="yes"/>
    </contour>
    <contour>
      <point x="969.0" y="532.0" type="line"/>
      <point x="678.0" y="1202.0" type="line"/>
      <point x="393.0" y="532.0" type="line"/>
    </contour>
  </outline>
</glyph>
<glyph name="S" format="2">
  <advance height="2048" width="1340.0"/>
  <unicode hex="0053"/>
  <outline>
    <contour>
      <point x="1200.0" y="1041.0" type="curve" smooth="yes"/>
      <point x="1206.0" y="1016.0"/>
      <point x="1175.0" y="993.0"/>
      <point x="1130.0" y="990.0" type="curve" smooth="yes"/>
      <point x="1086.0" y="986.0"/>
      <point x="1045.0" y="1004.0"/>
      <point x="1039.0" y="1029.0" type="curve" smooth="yes"/>
      <point x="997.0" y="1205.0"/>
      <point x="844.0" y="1293.0"/>
      <point x="670.0" y="1290.0" type="curve" smooth="yes"/>
      <point x="510.0" y="1287.0"/>
      <point x="300.0" y="1196.0"/>
      <point x="298.0" y="1012.0" type="curve" smooth="yes"/>
      <point x="297.0" y="931.0"/>
      <point x="362.0" y="876.0"/>
      <point x="445.0" y="840.0" type="curve" smooth="yes"/>
      <point x="535.0" y="801.0"/>
      <point x="646.0" y="783.0"/>
      <point x="713.0" y="776.0" type="curve" smooth="yes"/>
      <point x="845.0" y="762.0"/>
      <point x="990.0" y="739.0"/>
      <point x="1094.0" y="672.0" type="curve" smooth="yes"/>
      <point x="1182.0" y="615.0"/>
      <point x="1241.0" y="527.0"/>
      <point x="1240.0" y="386.0" type="curve" smooth="yes"/>
      <point x="1237.0" y="129.0"/>
      <point x="953.0" y="-9.0"/>
      <point x="728.0" y="-22.0" type="curve" smooth="yes"/>
      <point x="449.0" y="-39.0"/>
      <point x="178.0" y="72.0"/>
      <point x="101.0" y="362.0" type="curve" smooth="yes"/>
      <point x="94.0" y="387.0"/>
      <point x="125.0" y="410.0"/>
      <point x="170.0" y="413.0" type="curve" smooth="yes"/>
      <point x="214.0" y="417.0"/>
      <point x="256.0" y="400.0"/>
      <point x="262.0" y="375.0" type="curve" smooth="yes"/>
      <point x="319.0" y="160.0"/>
      <point x="494.0" y="55.0"/>
      <point x="711.0" y="68.0" type="curve" smooth="yes"/>
      <point x="878.0" y="78.0"/>
      <point x="1079.0" y="198.0"/>
      <point x="1077.0" y="384.0" type="curve" smooth="yes"/>
      <point x="1077.0" y="464.0"/>
      <point x="1019.0" y="518.0"/>
      <point x="944.0" y="553.0" type="curve" smooth="yes"/>
      <point x="864.0" y="591.0"/>
      <point x="764.0" y="608.0"/>
      <point x="697.0" y="615.0" type="curve" smooth="yes"/>
      <point x="577.0" y="627.0"/>
      <point x="436.0" y="650.0"/>
      <point x="325.0" y="708.0" type="curve" smooth="yes"/>
      <point x="217.0" y="764.0"/>
      <point x="138.0" y="854.0"/>
      <point x="135.0" y="1002.0" type="curve" smooth="yes"/>
      <point x="129.0" y="1262.0"/>
      <point x="449.0" y="1377.0"/>
      <point x="665.0" y="1381.0" type="curve" smooth="yes"/>
      <point x="897.0" y="1385.0"/>
      <point x="1141.0" y="1285.0"/>
    </contour>
  </outline>
</glyph>
<glyph name="V" format="2">
	<unicode hex="0056"/>
	<advance height="2048" width="1387"/>
	<outline>
		<contour>
			<point x="52" y="1329" type="line" smooth="yes"/>
			<point x="42" y="1352"/>
			<point x="72" y="1375"/>
			<point x="119" y="1380" type="curve" smooth="yes"/>
			<point x="165" y="1385"/>
			<point x="211" y="1370"/>
			<point x="220" y="1347" type="curve" smooth="yes"/>
			<point x="717" y="162" type="line"/>
			<point x="1220" y="1357" type="line" smooth="yes"/>
			<point x="1227" y="1373"/>
			<point x="1258" y="1384"/>
			<point x="1290" y="1380" type="curve" smooth="yes"/>
			<point x="1322" y="1377"/>
			<point x="1342" y="1362"/>
			<point x="1336" y="1346" type="curve" smooth="yes"/>
			<point x="775" y="13" type="line" smooth="yes"/>
			<point x="765" y="-12"/>
			<point x="727" y="-24"/>
			<point x="689" y="-24" type="curve" smooth="yes"/>
			<point x="652" y="-24"/>
			<point x="615" y="-12"/>
			<point x="606" y="10" type="curve" smooth="yes"/>
		</contour>
	</outline>
</glyph>
<glyph name="X" format="2">
  <advance height="2048" width="1402.0"/>
  <unicode hex="0058"/>
  <outline>
    <contour>
      <point x="110.0" y="1320.0" type="line" smooth="yes"/>
      <point x="92.0" y="1343.0"/>
      <point x="115.0" y="1369.0"/>
      <point x="162.0" y="1378.0" type="curve" smooth="yes"/>
      <point x="208.0" y="1387.0"/>
      <point x="260.0" y="1375.0"/>
      <point x="278.0" y="1352.0" type="curve" smooth="yes"/>
      <point x="717.0" y="784.0" type="line"/>
      <point x="1179.0" y="1361.0" type="line" smooth="yes"/>
      <point x="1192.0" y="1377.0"/>
      <point x="1229.0" y="1385.0"/>
      <point x="1262.0" y="1379.0" type="curve" smooth="yes"/>
      <point x="1295.0" y="1372.0"/>
      <point x="1310.0" y="1354.0"/>
      <point x="1297.0" y="1337.0" type="curve" smooth="yes"/>
      <point x="785.0" y="697.0" type="line"/>
      <point x="1292.0" y="41.0" type="line" smooth="yes"/>
      <point x="1310.0" y="18.0"/>
      <point x="1287.0" y="-9.0"/>
      <point x="1240.0" y="-18.0" type="curve" smooth="yes"/>
      <point x="1194.0" y="-27.0"/>
      <point x="1142.0" y="-15.0"/>
      <point x="1124.0" y="8.0" type="curve" smooth="yes"/>
      <point x="686.0" y="574.0" type="line"/>
      <point x="223.0" y="-4.0" type="line" smooth="yes"/>
      <point x="210.0" y="-20.0"/>
      <point x="173.0" y="-28.0"/>
      <point x="140.0" y="-22.0" type="curve" smooth="yes"/>
      <point x="107.0" y="-15.0"/>
      <point x="92.0" y="3.0"/>
      <point x="105.0" y="20.0" type="curve" smooth="yes"/>
      <point x="619.0" y="662.0" type="line"/>
    </contour>
  </outline>
</glyph>
<glyph name="j" format="2">
  <advance height="2048" width="665.0"/>
  <unicode hex="006A"/>
  <outline>
    <contour>
      <point x="393.0" y="952.0" type="line" smooth="yes"/>
      <point x="393.0" y="977.0"/>
      <point x="430.0" y="998.0"/>
      <point x="475.0" y="998.0" type="curve" smooth="yes"/>
      <point x="520.0" y="998.0"/>
      <point x="556.0" y="977.0"/>
      <point x="556.0" y="952.0" type="curve" smooth="yes"/>
      <point x="556.0" y="-139.0" type="line" smooth="yes"/>
      <point x="556.0" y="-332.0"/>
      <point x="415.0" y="-408.0"/>
      <point x="240.0" y="-409.0" type="curve" smooth="yes"/>
      <point x="198.0" y="-409.0"/>
      <point x="158.0" y="-405.0"/>
      <point x="120.0" y="-398.0" type="curve" smooth="yes"/>
      <point x="93.0" y="-393.0"/>
      <point x="31.0" y="-375.0"/>
      <point x="55.0" y="-337.0" type="curve" smooth="yes"/>
      <point x="70.0" y="-313.0"/>
      <point x="117.0" y="-300.0"/>
      <point x="159.0" y="-309.0" type="curve" smooth="yes"/>
      <point x="184.0" y="-314.0"/>
      <point x="212.0" y="-318.0"/>
      <point x="240.0" y="-318.0" type="curve" smooth="yes"/>
      <point x="350.0" y="-317.0"/>
      <point x="393.0" y="-244.0"/>
      <point x="393.0" y="-139.0" type="curve" smooth="yes"/>
    </contour>
    <contour>
      <point x="475.0" y="1291.0" type="curve" smooth="yes"/>
      <point x="500.0" y="1291.0"/>
      <point x="522.0" y="1281.0"/>
      <point x="539.0" y="1265.0" type="curve"/>
      <point x="555.0" y="1248.0"/>
      <point x="565.0" y="1226.0"/>
      <point x="565.0" y="1201.0" type="curve" smooth="yes"/>
      <point x="565.0" y="1176.0"/>
      <point x="555.0" y="1154.0"/>
      <point x="539.0" y="1137.0" type="curve"/>
      <point x="522.0" y="1121.0"/>
      <point x="500.0" y="1111.0"/>
      <point x="475.0" y="1111.0" type="curve" smooth="yes"/>
      <point x="450.0" y="1111.0"/>
      <point x="428.0" y="1121.0"/>
      <point x="411.0" y="1137.0" type="curve"/>
      <point x="395.0" y="1154.0"/>
      <point x="385.0" y="1176.0"/>
      <point x="385.0" y="1201.0" type="curve" smooth="yes"/>
      <point x="385.0" y="1226.0"/>
      <point x="395.0" y="1248.0"/>
      <point x="411.0" y="1265.0" type="curve"/>
      <point x="428.0" y="1281.0"/>
      <point x="450.0" y="1291.0"/>
    </contour>
  </outline>
</glyph>
<glyph name="m" format="2">
  <advance height="2048" width="1725.0"/>
  <unicode hex="006D"/>
  <outline>
    <contour>
      <point x="263.0" y="901.0" type="line"/>
      <point x="333.0" y="971.0"/>
      <point x="425.0" y="1000.0"/>
      <point x="523.0" y="1000.0" type="curve" smooth="yes"/>
      <point x="659.0" y="1000.0"/>
      <point x="783.0" y="946.0"/>
      <point x="863.0" y="833.0" type="curve"/>
      <point x="942.0" y="946.0"/>
      <point x="1067.0" y="1000.0"/>
      <point x="1203.0" y="1000.0" type="curve" smooth="yes"/>
      <point x="1461.0" y="1000.0"/>
      <point x="1625.0" y="811.0"/>
      <point x="1625.0" y="554.0" type="curve" smooth="yes"/>
      <point x="1625.0" y="21.0" type="line" smooth="yes"/>
      <point x="1625.0" y="-4.0"/>
      <point x="1588.0" y="-24.0"/>
      <point x="1543.0" y="-24.0" type="curve" smooth="yes"/>
      <point x="1498.0" y="-24.0"/>
      <point x="1462.0" y="-4.0"/>
      <point x="1462.0" y="21.0" type="curve" smooth="yes"/>
      <point x="1462.0" y="554.0" type="line" smooth="yes"/>
      <point x="1462.0" y="723.0"/>
      <point x="1397.0" y="906.0"/>
      <point x="1202.0" y="906.0" type="curve" smooth="yes"/>
      <point x="1008.0" y="906.0"/>
      <point x="945.0" y="720.0"/>
      <point x="945.0" y="554.0" type="curve" smooth="yes"/>
      <point x="945.0" y="21.0" type="line" smooth="yes"/>
      <point x="945.0" y="-4.0"/>
      <point x="908.0" y="-24.0"/>
      <point x="863.0" y="-24.0" type="curve" smooth="yes"/>
      <point x="818.0" y="-24.0"/>
      <point x="782.0" y="-4.0"/>
      <point x="782.0" y="21.0" type="curve" smooth="yes"/>
      <point x="782.0" y="554.0" type="line" smooth="yes"/>
      <point x="782.0" y="723.0"/>
      <point x="717.0" y="906.0"/>
      <point x="521.0" y="906.0" type="curve" smooth="yes"/>
      <point x="327.0" y="906.0"/>
      <point x="263.0" y="721.0"/>
      <point x="263.0" y="554.0" type="curve" smooth="yes"/>
      <point x="263.0" y="22.0" type="line" smooth="yes"/>
      <point x="263.0" y="-4.0"/>
      <point x="227.0" y="-24.0"/>
      <point x="182.0" y="-24.0" type="curve" smooth="yes"/>
      <point x="137.0" y="-24.0"/>
      <point x="100.0" y="-4.0"/>
      <point x="100.0" y="22.0" type="curve" smooth="yes"/>
      <point x="100.0" y="955.0" type="line" smooth="yes"/>
      <point x="100.0" y="980.0"/>
      <point x="137.0" y="1000.0"/>
      <point x="182.0" y="1000.0" type="curve" smooth="yes"/>
      <point x="227.0" y="1000.0"/>
      <point x="263.0" y="980.0"/>
      <point x="263.0" y="955.0" type="curve" smooth="yes"/>
    </contour>
  </outline>
</glyph>
<glyph name="s" format="2">
  <advance height="2048" width="1100.0"/>
  <unicode hex="0073"/>
  <outline>
    <contour>
      <point x="950.0" y="747.0" type="curve" smooth="yes"/>
      <point x="956.0" y="722.0"/>
      <point x="925.0" y="699.0"/>
      <point x="880.0" y="696.0" type="curve" smooth="yes"/>
      <point x="836.0" y="693.0"/>
      <point x="795.0" y="710.0"/>
      <point x="789.0" y="735.0" type="curve" smooth="yes"/>
      <point x="761.0" y="850.0"/>
      <point x="665.0" y="911.0"/>
      <point x="551.0" y="909.0" type="curve" smooth="yes"/>
      <point x="446.0" y="907.0"/>
      <point x="308.0" y="844.0"/>
      <point x="309.0" y="723.0" type="curve" smooth="yes"/>
      <point x="310.0" y="674.0"/>
      <point x="357.0" y="640.0"/>
      <point x="414.0" y="617.0" type="curve" smooth="yes"/>
      <point x="471.0" y="594.0"/>
      <point x="538.0" y="581.0"/>
      <point x="575.0" y="575.0" type="curve" smooth="yes"/>
      <point x="670.0" y="561.0"/>
      <point x="769.0" y="551.0"/>
      <point x="860.0" y="492.0" type="curve" smooth="yes"/>
      <point x="928.0" y="447.0"/>
      <point x="976.0" y="387.0"/>
      <point x="978.0" y="289.0" type="curve" smooth="yes"/>
      <point x="982.0" y="92.0"/>
      <point x="764.0" y="-13.0"/>
      <point x="593.0" y="-23.0" type="curve" smooth="yes"/>
      <point x="387.0" y="-35.0"/>
      <point x="180.0" y="45.0"/>
      <point x="123.0" y="261.0" type="curve" smooth="yes"/>
      <point x="116.0" y="286.0"/>
      <point x="147.0" y="309.0"/>
      <point x="191.0" y="313.0" type="curve" smooth="yes"/>
      <point x="236.0" y="317.0"/>
      <point x="277.0" y="299.0"/>
      <point x="284.0" y="274.0" type="curve" smooth="yes"/>
      <point x="321.0" y="133.0"/>
      <point x="432.0" y="59.0"/>
      <point x="576.0" y="68.0" type="curve" smooth="yes"/>
      <point x="687.0" y="74.0"/>
      <point x="817.0" y="157.0"/>
      <point x="816.0" y="279.0" type="curve" smooth="yes"/>
      <point x="815.0" y="328.0"/>
      <point x="774.0" y="362.0"/>
      <point x="722.0" y="385.0" type="curve" smooth="yes"/>
      <point x="666.0" y="410.0"/>
      <point x="598.0" y="422.0"/>
      <point x="558.0" y="428.0" type="curve" smooth="yes"/>
      <point x="459.0" y="442.0"/>
      <point x="356.0" y="450.0"/>
      <point x="267.0" y="510.0" type="curve" smooth="yes"/>
      <point x="185.0" y="566.0"/>
      <point x="149.0" y="640.0"/>
      <point x="146.0" y="713.0" type="curve" smooth="yes"/>
      <point x="139.0" y="911.0"/>
      <point x="384.0" y="997.0"/>
      <point x="546.0" y="1000.0" type="curve" smooth="yes"/>
      <point x="718.0" y="1003.0"/>
      <point x="906.0" y="930.0"/>
    </contour>
  </outline>
</glyph>
<glyph name="w" format="2">
	<unicode hex="0077"/>
	<advance height="2048" width="1651"/>
	<outline>
		<contour>
			<point x="52" y="948" type="line" smooth="yes"/>
			<point x="42" y="972"/>
			<point x="73" y="994"/>
			<point x="119" y="999" type="curve" smooth="yes"/>
			<point x="166" y="1003"/>
			<point x="211" y="988"/>
			<point x="220" y="965" type="curve" smooth="yes"/>
			<point x="529" y="186" type="line"/>
			<point x="769" y="963" type="line" smooth="yes"/>
			<point x="776" y="986"/>
			<point x="817" y="999"/>
			<point x="857" y="999" type="curve" smooth="yes"/>
			<point x="896" y="999"/>
			<point x="934" y="987"/>
			<point x="941" y="963" type="curve" smooth="yes"/>
			<point x="1172" y="187" type="line"/>
			<point x="1484" y="976" type="line" smooth="yes"/>
			<point x="1491" y="992"/>
			<point x="1521" y="1003"/>
			<point x="1553" y="999" type="curve" smooth="yes"/>
			<point x="1585" y="996"/>
			<point x="1606" y="981"/>
			<point x="1600" y="965" type="curve" smooth="yes"/>
			<point x="1223" y="13" type="line" smooth="yes"/>
			<point x="1214" y="-11"/>
			<point x="1174" y="-24"/>
			<point x="1134" y="-24" type="curve" smooth="yes"/>
			<point x="1095" y="-24"/>
			<point x="1057" y="-12"/>
			<point x="1050" y="13" type="curve" smooth="yes"/>
			<point x="827" y="764" type="line"/>
			<point x="596" y="14" type="line" smooth="yes"/>
			<point x="588" y="-10"/>
			<point x="548" y="-24"/>
			<point x="508" y="-24" type="curve" smooth="yes"/>
			<point x="470" y="-24"/>
			<point x="433" y="-13"/>
			<point x="424" y="11" type="curve" smooth="yes"/>
		</contour>
	</outline>
</glyph>
<glyph name="y" format="2">
	<unicode hex="0079"/>
	<advance height="2048" width="1092"/>
	<outline>
		<contour>
			<point x="52" y="949" type="line" smooth="yes"/>
			<point x="41" y="974"/>
			<point x="71" y="998"/>
			<point x="120" y="1004" type="curve" smooth="yes"/>
			<point x="168" y="1009"/>
			<point x="217" y="994"/>
			<point x="228" y="970" type="curve" smooth="yes"/>
			<point x="594" y="189" type="line"/>
			<point x="929" y="980" type="line" smooth="yes"/>
			<point x="936" y="997"/>
			<point x="967" y="1008"/>
			<point x="998" y="1004" type="curve" smooth="yes"/>
			<point x="1029" y="1000"/>
			<point x="1048" y="983"/>
			<point x="1041" y="965" type="curve" smooth="yes"/>
			<point x="567" y="-153" type="line" smooth="yes"/>
			<point x="506" y="-297"/>
			<point x="442" y="-389"/>
			<point x="271" y="-399" type="curve" smooth="yes"/>
			<point x="205" y="-403"/>
			<point x="116" y="-388"/>
			<point x="73" y="-332" type="curve" smooth="yes"/>
			<point x="61" y="-315"/>
			<point x="75" y="-297"/>
			<point x="104" y="-290" type="curve" smooth="yes"/>
			<point x="133" y="-283"/>
			<point x="167" y="-290"/>
			<point x="179" y="-307" type="curve" smooth="yes"/>
			<point x="198" y="-332"/>
			<point x="230" y="-337"/>
			<point x="260" y="-335" type="curve" smooth="yes"/>
			<point x="372" y="-329"/>
			<point x="417" y="-229"/>
			<point x="455" y="-139" type="curve" smooth="yes"/>
			<point x="506" y="-19" type="line"/>
		</contour>
	</outline>
</glyph>
<glyph name="z" format="2">
	<unicode hex="007A"/>
	<advance height="2048" width="1159"/>
	<outline>
		<contour>
			<point x="205" y="885" type="line" smooth="yes"/>
			<point x="160" y="885"/>
			<point x="124" y="905"/>
			<point x="124" y="930" type="curve" smooth="yes"/>
			<point x="124" y="956"/>
			<point x="160" y="976"/>
			<point x="205" y="976" type="curve" smooth="yes"/>
			<point x="965" y="976" type="line" smooth="yes"/>
			<point x="984" y="976"/>
			<point x="1012" y="971"/>
			<point x="1031" y="961" type="curve" smooth="yes"/>
			<point x="1051" y="951"/>
			<point x="1069" y="932"/>
			<point x="1050" y="911" type="curve" smooth="yes"/>
			<point x="327" y="91" type="line"/>
			<point x="919" y="91" type="line"/>
			<point x="977" y="91" type="line" smooth="yes"/>
			<point x="1022" y="91"/>
			<point x="1059" y="71"/>
			<point x="1059" y="46" type="curve" smooth="yes"/>
			<point x="1059" y="20"/>
			<point x="1022" y="0"/>
			<point x="977" y="0" type="curve" smooth="yes"/>
			<point x="198" y="0" type="line" smooth="yes"/>
			<point x="178" y="0"/>
			<point x="145" y="7"/>
			<point x="127" y="16" type="curve" smooth="yes"/>
			<point x="101" y="28"/>
			<point x="92" y="48"/>
			<point x="108" y="66" type="curve" smooth="yes"/>
			<point x="831" y="885" type="line"/>
		</contour>
	</outline>
</glyph>
<glyph name="braceleft" format="2">
	<unicode hex="007B"/>
	<advance height="2048" width="648"/>
	<outline>
		<contour>
			<point x="129" y="563" type="curve" smooth="yes"/>
			<point x="232" y="563"/>
			<point x="220" y="670"/>
			<point x="220" y="756" type="curve" smooth="yes"/>
			<point x="220" y="1226" type="line" smooth="yes"/>
			<point x="220" y="1273"/>
			<point x="241" y="1315"/>
			<point x="275" y="1347" type="curve" smooth="yes"/>
			<point x="347" y="1415"/>
			<point x="429" y="1410"/>
			<point x="519" y="1410" type="curve" smooth="yes"/>
			<point x="563" y="1410"/>
			<point x="599" y="1390"/>
			<point x="599" y="1365" type="curve" smooth="yes"/>
			<point x="599" y="1340"/>
			<point x="563" y="1320"/>
			<point x="519" y="1320" type="curve" smooth="yes"/>
			<point x="481" y="1320"/>
			<point x="442" y="1329"/>
			<point x="412" y="1301" type="curve" smooth="yes"/>
			<point x="393" y="1283"/>
			<point x="380" y="1256"/>
			<point x="380" y="1226" type="curve" smooth="yes"/>
			<point x="380" y="756" type="line" smooth="yes"/>
			<point x="380" y="616"/>
			<point x="366" y="549"/>
			<point x="306" y="518" type="curve"/>
			<point x="366" y="487"/>
			<point x="380" y="420"/>
			<point x="380" y="280" type="curve" smooth="yes"/>
			<point x="380" y="-191" type="line" smooth="yes"/>
			<point x="380" y="-221"/>
			<point x="393" y="-247"/>
			<point x="412" y="-266" type="curve" smooth="yes"/>
			<point x="442" y="-294"/>
			<point x="481" y="-284"/>
			<point x="519" y="-284" type="curve" smooth="yes"/>
			<point x="563" y="-284"/>
			<point x="599" y="-304"/>
			<point x="599" y="-329" type="curve" smooth="yes"/>
			<point x="599" y="-354"/>
			<point x="563" y="-374"/>
			<point x="519" y="-374" type="curve" smooth="yes"/>
			<point x="429" y="-374"/>
			<point x="347" y="-379"/>
			<point x="275" y="-312" type="curve" smooth="yes"/>
			<point x="241" y="-280"/>
			<point x="220" y="-237"/>
			<point x="220" y="-191" type="curve" smooth="yes"/>
			<point x="220" y="280" type="line" smooth="yes"/>
			<point x="220" y="366"/>
			<point x="232" y="473"/>
			<point x="129" y="473" type="curve" smooth="yes"/>
			<point x="77" y="473"/>
			<point x="50" y="495"/>
			<point x="50" y="517" type="curve" smooth="yes"/>
			<point x="50" y="540"/>
			<point x="76" y="563"/>
		</contour>
	</outline>
</glyph>
<glyph name="asciitilde" format="2">
	<unicode hex="007E"/>
	<advance height="2048" width="1275"/>
	<outline>
		<contour>
			<point x="263" y="1116" type="curve" smooth="yes"/>
			<point x="260" y="1091"/>
			<point x="221" y="1072"/>
			<point x="176" y="1074" type="curve" smooth="yes"/>
			<point x="131" y="1076"/>
			<point x="97" y="1097"/>
			<point x="100" y="1122" type="curve" smooth="yes"/>
			<point x="119" y="1282"/>
			<point x="203" y="1408"/>
			<point x="376" y="1415" type="curve" smooth="yes"/>
			<point x="530" y="1421"/>
			<point x="615" y="1344"/>
			<point x="701" y="1265" type="curve" smooth="yes"/>
			<point x="762" y="1209"/>
			<point x="825" y="1152"/>
			<point x="889" y="1151" type="curve" smooth="yes"/>
			<point x="974" y="1149"/>
			<point x="1007" y="1322"/>
			<point x="1013" y="1373" type="curve" smooth="yes"/>
			<point x="1015" y="1398"/>
			<point x="1054" y="1417"/>
			<point x="1098" y="1416" type="curve" smooth="yes"/>
			<point x="1143" y="1414"/>
			<point x="1177" y="1393"/>
			<point x="1175" y="1368" type="curve" smooth="yes"/>
			<point x="1157" y="1193"/>
			<point x="1078" y="1055"/>
			<point x="883" y="1060" type="curve" smooth="yes"/>
			<point x="731" y="1063"/>
			<point x="646" y="1141"/>
			<point x="562" y="1218" type="curve" smooth="yes"/>
			<point x="502" y="1273"/>
			<point x="443" y="1327"/>
			<point x="388" y="1324" type="curve" smooth="yes"/>
			<point x="309" y="1321"/>
			<point x="270" y="1176"/>
		</contour>
	</outline>
</glyph>
<glyph name="registered" format="2">
  <advance height="2048" width="1308.0"/>
  <unicode hex="00AE"/>
  <outline>
    <contour>
      <point x="490.0" y="188.0" type="line" smooth="yes"/>
      <point x="490.0" y="174.0"/>
      <point x="468.0" y="163.0"/>
      <point x="441.0" y="163.0" type="curve" smooth="yes"/>
      <point x="414.0" y="163.0"/>
      <point x="392.0" y="174.0"/>
      <point x="392.0" y="188.0" type="curve" smooth="yes"/>
      <point x="392.0" y="788.0" type="line" smooth="yes"/>
      <point x="392.0" y="801.0"/>
      <point x="414.0" y="813.0"/>
      <point x="441.0" y="813.0" type="curve" smooth="yes"/>
      <point x="688.0" y="813.0" type="line" smooth="yes"/>
      <point x="789.0" y="813.0"/>
      <point x="888.0" y="746.0"/>
      <point x="888.0" y="639.0" type="curve" smooth="yes"/>
      <point x="888.0" y="550.0"/>
      <point x="819.0" y="484.0"/>
      <point x="735.0" y="469.0" type="curve"/>
      <point x="774.0" y="435.0"/>
      <point x="794.0" y="387.0"/>
      <point x="813.0" y="339.0" type="curve" smooth="yes"/>
      <point x="836.0" y="285.0"/>
      <point x="858.0" y="230.0"/>
      <point x="905.0" y="205.0" type="curve"/>
      <point x="923.0" y="194.0"/>
      <point x="922.0" y="179.0"/>
      <point x="901.0" y="169.0" type="curve" smooth="yes"/>
      <point x="881.0" y="160.0"/>
      <point x="849.0" y="161.0"/>
      <point x="831.0" y="171.0" type="curve" smooth="yes"/>
      <point x="766.0" y="207.0"/>
      <point x="741.0" y="269.0"/>
      <point x="716.0" y="329.0" type="curve" smooth="yes"/>
      <point x="691.0" y="390.0"/>
      <point x="668.0" y="465.0"/>
      <point x="611.0" y="465.0" type="curve" smooth="yes"/>
      <point x="490.0" y="465.0" type="line"/>
    </contour>
    <contour>
      <point x="1208.0" y="488.0" type="curve" smooth="yes"/>
      <point x="1208.0" y="166.0"/>
      <point x="955.0" y="-24.0"/>
      <point x="654.0" y="-24.0" type="curve" smooth="yes"/>
      <point x="353.0" y="-24.0"/>
      <point x="100.0" y="166.0"/>
      <point x="100.0" y="488.0" type="curve" smooth="yes"/>
      <point x="100.0" y="809.0"/>
      <point x="353.0" y="1000.0"/>
      <point x="654.0" y="1000.0" type="curve" smooth="yes"/>
      <point x="955.0" y="1000.0"/>
      <point x="1208.0" y="809.0"/>
    </contour>
    <contour>
      <point x="1075.0" y="488.0" type="curve" smooth="yes"/>
      <point x="1075.0" y="739.0"/>
      <point x="904.0" y="926.0"/>
      <point x="654.0" y="926.0" type="curve" smooth="yes"/>
      <point x="404.0" y="926.0"/>
      <point x="233.0" y="739.0"/>
      <point x="233.0" y="488.0" type="curve" smooth="yes"/>
      <point x="233.0" y="237.0"/>
      <point x="404.0" y="50.0"/>
      <point x="654.0" y="50.0" type="curve" smooth="yes"/>
      <point x="904.0" y="50.0"/>
      <point x="1075.0" y="237.0"/>
    </contour>
    <contour>
      <point x="686.0" y="515.0" type="line" smooth="yes"/>
      <point x="756.0" y="515.0"/>
      <point x="792.0" y="579.0"/>
      <point x="791.0" y="642.0" type="curve" smooth="yes"/>
      <point x="790.0" y="703.0"/>
      <point x="754.0" y="763.0"/>
      <point x="688.0" y="763.0" type="curve" smooth="yes"/>
      <point x="490.0" y="763.0" type="line"/>
      <point x="490.0" y="515.0" type="line"/>
    </contour>
  </outline>
</glyph>
<glyph name="three_super" format="2">
	<unicode hex="00B3"/>
	<advance height="2048" width="457"/>
	<outline>
		<contour>
			<point x="107" y="1480" type="curve" smooth="yes"/>
			<point x="108" y="1457"/>
			<point x="73" y="1449"/>
			<point x="55" y="1449" type="curve" smooth="yes"/>
			<point x="38" y="1449"/>
			<point x="2" y="1456"/>
			<point x="1" y="1478" type="curve" smooth="yes"/>
			<point x="-2" y="1533"/>
			<point x="15" y="1585"/>
			<point x="57" y="1622" type="curve" smooth="yes"/>
			<point x="100" y="1660"/>
			<point x="158" y="1676"/>
			<point x="214" y="1677" type="curve" smooth="yes"/>
			<point x="325" y="1679"/>
			<point x="439" y="1620"/>
			<point x="439" y="1496" type="curve" smooth="yes"/>
			<point x="439" y="1436"/>
			<point x="406" y="1386"/>
			<point x="354" y="1357" type="curve"/>
			<point x="419" y="1325"/>
			<point x="457" y="1265"/>
			<point x="457" y="1193" type="curve" smooth="yes"/>
			<point x="457" y="1070"/>
			<point x="349" y="1001"/>
			<point x="235" y="1001" type="curve" smooth="yes"/>
			<point x="115" y="1001"/>
			<point x="0" y="1061"/>
			<point x="0" y="1194" type="curve" smooth="yes"/>
			<point x="0" y="1216"/>
			<point x="36" y="1224"/>
			<point x="53" y="1224" type="curve" smooth="yes"/>
			<point x="70" y="1224"/>
			<point x="107" y="1216"/>
			<point x="107" y="1194" type="curve" smooth="yes"/>
			<point x="107" y="1116"/>
			<point x="155" y="1060"/>
			<point x="235" y="1060" type="curve" smooth="yes"/>
			<point x="308" y="1060"/>
			<point x="351" y="1127"/>
			<point x="351" y="1194" type="curve" smooth="yes"/>
			<point x="351" y="1251"/>
			<point x="320" y="1305"/>
			<point x="261" y="1319" type="curve" smooth="yes"/>
			<point x="242" y="1324"/>
			<point x="224" y="1322"/>
			<point x="204" y="1322" type="curve" smooth="yes"/>
			<point x="187" y="1322"/>
			<point x="151" y="1329"/>
			<point x="151" y="1352" type="curve" smooth="yes"/>
			<point x="151" y="1373"/>
			<point x="184" y="1380"/>
			<point x="201" y="1381" type="curve" smooth="yes"/>
			<point x="220" y="1382"/>
			<point x="237" y="1383"/>
			<point x="256" y="1389" type="curve" smooth="yes"/>
			<point x="303" y="1405"/>
			<point x="333" y="1446"/>
			<point x="333" y="1496" type="curve" smooth="yes"/>
			<point x="333" y="1565"/>
			<point x="284" y="1617"/>
			<point x="214" y="1618" type="curve" smooth="yes"/>
			<point x="183" y="1618"/>
			<point x="156" y="1604"/>
			<point x="136" y="1580" type="curve" smooth="yes"/>
			<point x="114" y="1552"/>
			<point x="105" y="1515"/>
		</contour>
	</outline>
</glyph>
<glyph name="ml_a" format="2">
	<unicode hex="0D05"/>
	<advance height="2048" width="2496"/>
	<outline>
		<contour>
			<point x="1518" y="22" type="line" smooth="yes"/>
			<point x="1518" y="-3"/>
			<point x="1482" y="-24"/>
			<point x="1437" y="-24" type="curve" smooth="yes"/>
			<point x="1392" y="-24"/>
			<point x="1356" y="-3"/>
			<point x="1356" y="22" type="curve" smooth="yes"/>
			<point x="1356" y="633" type="line" smooth="yes"/>
			<point x="1356" y="813"/>
			<point x="1220" y="925"/>
			<point x="1049" y="910" type="curve"/>
			<point x="1127" y="860"/>
			<point x="1172" y="786"/>
			<point x="1172" y="693" type="curve" smooth="yes"/>
			<point x="1172" y="602"/>
			<point x="1127" y="527"/>
			<point x="1050" y="480" type="curve"/>
			<point x="1131" y="446"/>
			<point x="1200" y="382"/>
			<point x="1198" y="259" type="curve" smooth="yes"/>
			<point x="1196" y="77"/>
			<point x="1057" y="-22"/>
			<point x="884" y="-24" type="curve" smooth="yes"/>
			<point x="739" y="-25"/>
			<point x="624" y="38"/>
			<point x="552" y="163" type="curve" smooth="yes"/>
			<point x="501" y="251"/>
			<point x="478" y="358"/>
			<point x="478" y="459" type="curve" smooth="yes"/>
			<point x="476" y="643"/>
			<point x="541" y="805"/>
			<point x="701" y="907" type="curve"/>
			<point x="687" y="907"/>
			<point x="670" y="907"/>
			<point x="656" y="907" type="curve" smooth="yes"/>
			<point x="582" y="904"/>
			<point x="516" y="886"/>
			<point x="451" y="842" type="curve" smooth="yes"/>
			<point x="324" y="755"/>
			<point x="263" y="609"/>
			<point x="262" y="459" type="curve" smooth="yes"/>
			<point x="261" y="314"/>
			<point x="315" y="133"/>
			<point x="439" y="51" type="curve" smooth="yes"/>
			<point x="468" y="32"/>
			<point x="464" y="3"/>
			<point x="430" y="-13" type="curve" smooth="yes"/>
			<point x="396" y="-29"/>
			<point x="344" y="-27"/>
			<point x="315" y="-8" type="curve" smooth="yes"/>
			<point x="166" y="91"/>
			<point x="97" y="284"/>
			<point x="100" y="459" type="curve" smooth="yes"/>
			<point x="106" y="786"/>
			<point x="339" y="994"/>
			<point x="656" y="1000" type="curve" smooth="yes"/>
			<point x="726" y="1001"/>
			<point x="801" y="989"/>
			<point x="869" y="975" type="curve"/>
			<point x="939" y="994"/>
			<point x="1017" y="1001"/>
			<point x="1090" y="1000" type="curve" smooth="yes"/>
			<point x="1223" y="999"/>
			<point x="1358" y="965"/>
			<point x="1445" y="875" type="curve"/>
			<point x="1534" y="961"/>
			<point x="1668" y="1000"/>
			<point x="1800" y="1000" type="curve" smooth="yes"/>
			<point x="2016" y="1000"/>
			<point x="2176" y="922"/>
			<point x="2280" y="789" type="curve" smooth="yes"/>
			<point x="2363" y="682"/>
			<point x="2398" y="553"/>
			<point x="2396" y="418" type="curve" smooth="yes"/>
			<point x="2395" y="319"/>
			<point x="2372" y="220"/>
			<point x="2323" y="139" type="curve" smooth="yes"/>
			<point x="2254" y="25"/>
			<point x="2140" y="-25"/>
			<point x="2021" y="-24" type="curve" smooth="yes"/>
			<point x="1903" y="-23"/>
			<point x="1794" y="24"/>
			<point x="1727" y="125" type="curve" smooth="yes"/>
			<point x="1684" y="190"/>
			<point x="1662" y="271"/>
			<point x="1662" y="355" type="curve" smooth="yes"/>
			<point x="1662" y="453"/>
			<point x="1693" y="554"/>
			<point x="1752" y="632" type="curve" smooth="yes"/>
			<point x="1831" y="736"/>
			<point x="1949" y="794"/>
			<point x="2077" y="810" type="curve"/>
			<point x="2001" y="877"/>
			<point x="1897" y="912"/>
			<point x="1800" y="910" type="curve" smooth="yes"/>
			<point x="1618" y="906"/>
			<point x="1518" y="789"/>
			<point x="1518" y="609" type="curve" smooth="yes"/>
		</contour>
		<contour>
			<point x="2151" y="723" type="curve"/>
			<point x="2051" y="723"/>
			<point x="1962" y="677"/>
			<point x="1902" y="597" type="curve" smooth="yes"/>
			<point x="1850" y="528"/>
			<point x="1825" y="441"/>
			<point x="1825" y="355" type="curve" smooth="yes"/>
			<point x="1825" y="281"/>
			<point x="1843" y="211"/>
			<point x="1879" y="157" type="curve" smooth="yes"/>
			<point x="1912" y="107"/>
			<point x="1961" y="68"/>
			<point x="2023" y="67" type="curve" smooth="yes"/>
			<point x="2079" y="67"/>
			<point x="2129" y="101"/>
			<point x="2169" y="168" type="curve" smooth="yes"/>
			<point x="2213" y="240"/>
			<point x="2232" y="329"/>
			<point x="2233" y="418" type="curve" smooth="yes"/>
			<point x="2235" y="526"/>
			<point x="2212" y="633"/>
		</contour>
		<contour>
			<point x="877" y="875" type="curve"/>
			<point x="705" y="800"/>
			<point x="638" y="637"/>
			<point x="640" y="459" type="curve" smooth="yes"/>
			<point x="641" y="384"/>
			<point x="655" y="301"/>
			<point x="687" y="229" type="curve" smooth="yes"/>
			<point x="721" y="150"/>
			<point x="789" y="66"/>
			<point x="884" y="67" type="curve" smooth="yes"/>
			<point x="985" y="68"/>
			<point x="1035" y="168"/>
			<point x="1036" y="259" type="curve" smooth="yes"/>
			<point x="1038" y="393"/>
			<point x="929" y="420"/>
			<point x="870" y="425" type="curve" smooth="yes"/>
			<point x="853" y="426"/>
			<point x="836" y="424"/>
			<point x="819" y="425" type="curve"/>
			<point x="780" y="425"/>
			<point x="747" y="442"/>
			<point x="741" y="464" type="curve" smooth="yes"/>
			<point x="735" y="489"/>
			<point x="766" y="512"/>
			<point x="811" y="515" type="curve" smooth="yes"/>
			<point x="826" y="516"/>
			<point x="841" y="516"/>
			<point x="856" y="518" type="curve" smooth="yes"/>
			<point x="950" y="529"/>
			<point x="1009" y="598"/>
			<point x="1009" y="693" type="curve" smooth="yes"/>
			<point x="1009" y="785"/>
			<point x="959" y="844"/>
		</contour>
	</outline>
</glyph>
<glyph name="ml_aa" format="2">
  <advance height="2048" width="2782.0"/>
  <unicode hex="0D06"/>
  <outline>
    <contour>
      <point x="2250.0" y="804.0" type="curve"/>
      <point x="2569.0" y="736.0"/>
      <point x="2720.0" y="458.0"/>
      <point x="2700.0" y="147.0" type="curve" smooth="yes"/>
      <point x="2680.0" y="-180.0"/>
      <point x="2460.0" y="-402.0"/>
      <point x="2130.0" y="-412.0" type="curve" smooth="yes"/>
      <point x="1994.0" y="-416.0"/>
      <point x="1849.0" y="-381.0"/>
      <point x="1741.0" y="-295.0" type="curve" smooth="yes"/>
      <point x="1702.0" y="-265.0"/>
      <point x="1730.0" y="-231.0"/>
      <point x="1765.0" y="-218.0" type="curve" smooth="yes"/>
      <point x="1805.0" y="-202.0"/>
      <point x="1869.0" y="-203.0"/>
      <point x="1904.0" y="-231.0" type="curve" smooth="yes"/>
      <point x="1966.0" y="-281.0"/>
      <point x="2049.0" y="-303.0"/>
      <point x="2128.0" y="-300.0" type="curve" smooth="yes"/>
      <point x="2368.0" y="-293.0"/>
      <point x="2488.0" y="-67.0"/>
      <point x="2501.0" y="148.0" type="curve" smooth="yes"/>
      <point x="2511.0" y="306.0"/>
      <point x="2473.0" y="482.0"/>
      <point x="2359.0" y="598.0" type="curve"/>
      <point x="2375.0" y="539.0"/>
      <point x="2382.0" y="477.0"/>
      <point x="2381.0" y="416.0" type="curve" smooth="yes"/>
      <point x="2380.0" y="320.0"/>
      <point x="2359.0" y="227.0"/>
      <point x="2309.0" y="144.0" type="curve" smooth="yes"/>
      <point x="2240.0" y="31.0"/>
      <point x="2124.0" y="-25.0"/>
      <point x="1993.0" y="-24.0" type="curve" smooth="yes"/>
      <point x="1870.0" y="-23.0"/>
      <point x="1754.0" y="26.0"/>
      <point x="1685.0" y="130.0" type="curve" smooth="yes"/>
      <point x="1640.0" y="197.0"/>
      <point x="1619.0" y="280.0"/>
      <point x="1619.0" y="360.0" type="curve" smooth="yes"/>
      <point x="1619.0" y="458.0"/>
      <point x="1650.0" y="553.0"/>
      <point x="1710.0" y="632.0" type="curve" smooth="yes"/>
      <point x="1784.0" y="730.0"/>
      <point x="1895.0" y="788.0"/>
      <point x="2015.0" y="809.0" type="curve"/>
      <point x="1949.0" y="862.0"/>
      <point x="1860.0" y="891.0"/>
      <point x="1775.0" y="889.0" type="curve" smooth="yes"/>
      <point x="1605.0" y="886.0"/>
      <point x="1516.0" y="767.0"/>
      <point x="1517.0" y="604.0" type="curve" smooth="yes"/>
      <point x="1517.0" y="32.0" type="line" smooth="yes"/>
      <point x="1517.0" y="-9.0"/>
      <point x="1449.0" y="-23.0"/>
      <point x="1417.0" y="-23.0" type="curve" smooth="yes"/>
      <point x="1386.0" y="-23.0"/>
      <point x="1318.0" y="-9.0"/>
      <point x="1318.0" y="32.0" type="curve" smooth="yes"/>
      <point x="1318.0" y="604.0" type="line" smooth="yes"/>
      <point x="1317.0" y="758.0"/>
      <point x="1241.0" y="889.0"/>
      <point x="1073.0" y="891.0" type="curve"/>
      <point x="1139.0" y="840.0"/>
      <point x="1176.0" y="771.0"/>
      <point x="1176.0" y="687.0" type="curve" smooth="yes"/>
      <point x="1176.0" y="601.0"/>
      <point x="1135.0" y="527.0"/>
      <point x="1064.0" y="479.0" type="curve"/>
      <point x="1155.0" y="435.0"/>
      <point x="1203.0" y="368.0"/>
      <point x="1202.0" y="266.0" type="curve" smooth="yes"/>
      <point x="1199.0" y="76.0"/>
      <point x="1050.0" y="-22.0"/>
      <point x="872.0" y="-23.0" type="curve" smooth="yes"/>
      <point x="723.0" y="-25.0"/>
      <point x="602.0" y="37.0"/>
      <point x="527.0" y="168.0" type="curve" smooth="yes"/>
      <point x="476.0" y="255.0"/>
      <point x="453.0" y="356.0"/>
      <point x="452.0" y="456.0" type="curve" smooth="yes"/>
      <point x="451.0" y="628.0"/>
      <point x="508.0" y="783.0"/>
      <point x="651.0" y="886.0" type="curve"/>
      <point x="580.0" y="884.0"/>
      <point x="520.0" y="867.0"/>
      <point x="461.0" y="826.0" type="curve" smooth="yes"/>
      <point x="339.0" y="743.0"/>
      <point x="280.0" y="601.0"/>
      <point x="279.0" y="456.0" type="curve" smooth="yes"/>
      <point x="278.0" y="319.0"/>
      <point x="329.0" y="148.0"/>
      <point x="449.0" y="68.0" type="curve" smooth="yes"/>
      <point x="488.0" y="43.0"/>
      <point x="476.0" y="8.0"/>
      <point x="438.0" y="-10.0" type="curve" smooth="yes"/>
      <point x="398.0" y="-29.0"/>
      <point x="335.0" y="-28.0"/>
      <point x="297.0" y="-4.0" type="curve" smooth="yes"/>
      <point x="147.0" y="96.0"/>
      <point x="77.0" y="282.0"/>
      <point x="80.0" y="456.0" type="curve" smooth="yes"/>
      <point x="83.0" y="617.0"/>
      <point x="141.0" y="749.0"/>
      <point x="237.0" y="842.0" type="curve" smooth="yes"/>
      <point x="338.0" y="941.0"/>
      <point x="481.0" y="997.0"/>
      <point x="647.0" y="1000.0" type="curve" smooth="yes"/>
      <point x="717.0" y="1001.0"/>
      <point x="788.0" y="990.0"/>
      <point x="856.0" y="976.0" type="curve"/>
      <point x="927.0" y="994.0"/>
      <point x="1003.0" y="1001.0"/>
      <point x="1075.0" y="1000.0" type="curve" smooth="yes"/>
      <point x="1197.0" y="999.0"/>
      <point x="1332.0" y="971.0"/>
      <point x="1425.0" y="887.0" type="curve"/>
      <point x="1520.0" y="968.0"/>
      <point x="1652.0" y="1000.0"/>
      <point x="1774.0" y="1000.0" type="curve" smooth="yes"/>
      <point x="1956.0" y="1000.0"/>
      <point x="2129.0" y="945.0"/>
    </contour>
    <contour>
      <point x="2107.0" y="705.0" type="curve"/>
      <point x="2020.0" y="701.0"/>
      <point x="1945.0" y="657.0"/>
      <point x="1893.0" y="588.0" type="curve" smooth="yes"/>
      <point x="1842.0" y="521.0"/>
      <point x="1819.0" y="443.0"/>
      <point x="1819.0" y="360.0" type="curve" smooth="yes"/>
      <point x="1819.0" y="294.0"/>
      <point x="1834.0" y="225.0"/>
      <point x="1871.0" y="169.0" type="curve" smooth="yes"/>
      <point x="1899.0" y="127.0"/>
      <point x="1942.0" y="89.0"/>
      <point x="1995.0" y="88.0" type="curve" smooth="yes"/>
      <point x="2051.0" y="88.0"/>
      <point x="2093.0" y="136.0"/>
      <point x="2120.0" y="180.0" type="curve" smooth="yes"/>
      <point x="2163.0" y="251.0"/>
      <point x="2181.0" y="333.0"/>
      <point x="2182.0" y="416.0" type="curve" smooth="yes"/>
      <point x="2183.0" y="518.0"/>
      <point x="2162.0" y="619.0"/>
    </contour>
    <contour>
      <point x="865.0" y="852.0" type="curve"/>
      <point x="709.0" y="778.0"/>
      <point x="649.0" y="622.0"/>
      <point x="651.0" y="456.0" type="curve" smooth="yes"/>
      <point x="652.0" y="382.0"/>
      <point x="667.0" y="307.0"/>
      <point x="697.0" y="239.0" type="curve" smooth="yes"/>
      <point x="727.0" y="171.0"/>
      <point x="789.0" y="87.0"/>
      <point x="872.0" y="88.0" type="curve" smooth="yes"/>
      <point x="961.0" y="89.0"/>
      <point x="1002.0" y="190.0"/>
      <point x="1003.0" y="266.0" type="curve" smooth="yes"/>
      <point x="1004.0" y="361.0"/>
      <point x="962.0" y="405.0"/>
      <point x="872.0" y="412.0" type="curve" smooth="yes"/>
      <point x="856.0" y="413.0"/>
      <point x="840.0" y="411.0"/>
      <point x="824.0" y="412.0" type="curve"/>
      <point x="792.0" y="412.0"/>
      <point x="730.0" y="426.0"/>
      <point x="727.0" y="465.0" type="curve" smooth="yes"/>
      <point x="724.0" y="504.0"/>
      <point x="782.0" y="520.0"/>
      <point x="813.0" y="523.0" type="curve" smooth="yes"/>
      <point x="831.0" y="524.0"/>
      <point x="848.0" y="523.0"/>
      <point x="865.0" y="526.0" type="curve" smooth="yes"/>
      <point x="945.0" y="540.0"/>
      <point x="976.0" y="606.0"/>
      <point x="976.0" y="687.0" type="curve" smooth="yes"/>
      <point x="976.0" y="766.0"/>
      <point x="937.0" y="821.0"/>
    </contour>
  </outline>
</glyph>
<glyph name="ml_i" format="2">
  <advance height="2048" width="1808.0"/>
  <unicode hex="0D07"/>
  <outline>
    <contour>
      <point x="649.0" y="258.0" type="curve" smooth="yes"/>
      <point x="585.0" y="205.0"/>
      <point x="498.0" y="178.0"/>
      <point x="417.0" y="178.0" type="curve" smooth="yes"/>
      <point x="290.0" y="178.0"/>
      <point x="183.0" y="228.0"/>
      <point x="124.0" y="345.0" type="curve" smooth="yes"/>
      <point x="82.0" y="427.0"/>
      <point x="74.0" y="525.0"/>
      <point x="84.0" y="615.0" type="curve" smooth="yes"/>
      <point x="95.0" y="720.0"/>
      <point x="136.0" y="814.0"/>
      <point x="217.0" y="884.0" type="curve" smooth="yes"/>
      <point x="312.0" y="967.0"/>
      <point x="443.0" y="998.0"/>
      <point x="566.0" y="1000.0" type="curve" smooth="yes"/>
      <point x="699.0" y="1002.0"/>
      <point x="848.0" y="975.0"/>
      <point x="945.0" y="876.0" type="curve"/>
      <point x="1027.0" y="968.0"/>
      <point x="1145.0" y="1001.0"/>
      <point x="1264.0" y="1000.0" type="curve" smooth="yes"/>
      <point x="1398.0" y="999.0"/>
      <point x="1530.0" y="957.0"/>
      <point x="1618.0" y="851.0" type="curve" smooth="yes"/>
      <point x="1700.0" y="752.0"/>
      <point x="1728.0" y="618.0"/>
      <point x="1728.0" y="492.0" type="curve" smooth="yes"/>
      <point x="1728.0" y="383.0"/>
      <point x="1706.0" y="265.0"/>
      <point x="1643.0" y="174.0" type="curve" smooth="yes"/>
      <point x="1522.0" y="0.0"/>
      <point x="1290.0" y="-53.0"/>
      <point x="1093.0" y="-53.0" type="curve" smooth="yes"/>
      <point x="390.0" y="-53.0" type="line" smooth="yes"/>
      <point x="327.0" y="-53.0"/>
      <point x="280.0" y="-87.0"/>
      <point x="280.0" y="-154.0" type="curve" smooth="yes"/>
      <point x="280.0" y="-218.0"/>
      <point x="329.0" y="-254.0"/>
      <point x="390.0" y="-254.0" type="curve" smooth="yes"/>
      <point x="1555.0" y="-254.0" type="line" smooth="yes"/>
      <point x="1601.0" y="-254.0"/>
      <point x="1654.0" y="-282.0"/>
      <point x="1654.0" y="-333.0" type="curve" smooth="yes"/>
      <point x="1654.0" y="-384.0"/>
      <point x="1601.0" y="-412.0"/>
      <point x="1555.0" y="-412.0" type="curve" smooth="yes"/>
      <point x="390.0" y="-412.0" type="line" smooth="yes"/>
      <point x="241.0" y="-412.0"/>
      <point x="83.0" y="-352.0"/>
      <point x="81.0" y="-179.0" type="curve" smooth="yes"/>
      <point x="80.0" y="-11.0"/>
      <point x="247.0" y="58.0"/>
      <point x="390.0" y="58.0" type="curve" smooth="yes"/>
      <point x="1093.0" y="58.0" type="line" smooth="yes"/>
      <point x="1236.0" y="58.0"/>
      <point x="1371.0" y="87.0"/>
      <point x="1459.0" y="214.0" type="curve" smooth="yes"/>
      <point x="1512.0" y="291.0"/>
      <point x="1530.0" y="400.0"/>
      <point x="1531.0" y="492.0" type="curve" smooth="yes"/>
      <point x="1531.0" y="599.0"/>
      <point x="1509.0" y="720.0"/>
      <point x="1439.0" y="804.0" type="curve" smooth="yes"/>
      <point x="1394.0" y="858.0"/>
      <point x="1334.0" y="888.0"/>
      <point x="1264.0" y="889.0" type="curve" smooth="yes"/>
      <point x="1204.0" y="889.0"/>
      <point x="1157.0" y="868.0"/>
      <point x="1118.0" y="822.0" type="curve" smooth="yes"/>
      <point x="1066.0" y="761.0"/>
      <point x="1048.0" y="678.0"/>
      <point x="1048.0" y="599.0" type="curve" smooth="yes"/>
      <point x="1048.0" y="234.0" type="line" smooth="yes"/>
      <point x="1048.0" y="192.0"/>
      <point x="981.0" y="178.0"/>
      <point x="949.0" y="178.0" type="curve" smooth="yes"/>
      <point x="918.0" y="178.0"/>
      <point x="850.0" y="192.0"/>
      <point x="850.0" y="234.0" type="curve" smooth="yes"/>
      <point x="850.0" y="599.0" type="line" smooth="yes"/>
      <point x="850.0" y="671.0"/>
      <point x="836.0" y="747.0"/>
      <point x="789.0" y="804.0" type="curve" smooth="yes"/>
      <point x="737.0" y="868.0"/>
      <point x="646.0" y="891.0"/>
      <point x="567.0" y="890.0" type="curve" smooth="yes"/>
      <point x="505.0" y="889.0"/>
      <point x="435.0" y="874.0"/>
      <point x="384.0" y="836.0" type="curve" smooth="yes"/>
      <point x="341.0" y="805.0"/>
      <point x="305.0" y="761.0"/>
      <point x="291.0" y="709.0" type="curve"/>
      <point x="329.0" y="731.0"/>
      <point x="372.0" y="742.0"/>
      <point x="416.0" y="743.0" type="curve" smooth="yes"/>
      <point x="497.0" y="746.0"/>
      <point x="587.0" y="725.0"/>
      <point x="651.0" y="672.0" type="curve" smooth="yes"/>
      <point x="712.0" y="621.0"/>
      <point x="745.0" y="540.0"/>
      <point x="744.0" y="460.0" type="curve"/>
      <point x="744.0" y="380.0"/>
      <point x="710.0" y="309.0"/>
    </contour>
    <contour>
      <point x="293.0" y="460.0" type="curve" smooth="yes"/>
      <point x="293.0" y="385.0"/>
      <point x="330.0" y="291.0"/>
      <point x="418.0" y="294.0" type="curve" smooth="yes"/>
      <point x="503.0" y="297.0"/>
      <point x="546.0" y="383.0"/>
      <point x="546.0" y="460.0" type="curve" smooth="yes"/>
      <point x="546.0" y="538.0"/>
      <point x="505.0" y="628.0"/>
      <point x="418.0" y="627.0" type="curve" smooth="yes"/>
      <point x="332.0" y="625.0"/>
      <point x="293.0" y="536.0"/>
    </contour>
  </outline>
</glyph>
<glyph name="ml_u" format="2">
  <advance height="2048" width="1278.0"/>
  <unicode hex="0D09"/>
  <outline>
    <contour>
      <point x="623.0" y="889.0" type="curve" smooth="yes"/>
      <point x="539.0" y="890.0"/>
      <point x="453.0" y="871.0"/>
      <point x="385.0" y="820.0" type="curve" smooth="yes"/>
      <point x="346.0" y="790.0"/>
      <point x="316.0" y="752.0"/>
      <point x="296.0" y="708.0" type="curve"/>
      <point x="333.0" y="729.0"/>
      <point x="375.0" y="740.0"/>
      <point x="419.0" y="742.0" type="curve" smooth="yes"/>
      <point x="498.0" y="747.0"/>
      <point x="591.0" y="724.0"/>
      <point x="653.0" y="671.0" type="curve" smooth="yes"/>
      <point x="715.0" y="619.0"/>
      <point x="748.0" y="541.0"/>
      <point x="745.0" y="459.0" type="curve" smooth="yes"/>
      <point x="744.0" y="389.0"/>
      <point x="717.0" y="322.0"/>
      <point x="668.0" y="272.0" type="curve" smooth="yes"/>
      <point x="604.0" y="208.0"/>
      <point x="510.0" y="178.0"/>
      <point x="422.0" y="177.0" type="curve" smooth="yes"/>
      <point x="331.0" y="176.0"/>
      <point x="247.0" y="203.0"/>
      <point x="181.0" y="268.0" type="curve" smooth="yes"/>
      <point x="116.0" y="331.0"/>
      <point x="86.0" y="418.0"/>
      <point x="81.0" y="507.0" type="curve" smooth="yes"/>
      <point x="72.0" y="658.0"/>
      <point x="125.0" y="790.0"/>
      <point x="244.0" y="882.0" type="curve" smooth="yes"/>
      <point x="351.0" y="964.0"/>
      <point x="491.0" y="1000.0"/>
      <point x="624.0" y="1000.0" type="curve" smooth="yes"/>
      <point x="789.0" y="999.0"/>
      <point x="973.0" y="950.0"/>
      <point x="1083.0" y="816.0" type="curve" smooth="yes"/>
      <point x="1168.0" y="713.0"/>
      <point x="1204.0" y="580.0"/>
      <point x="1197.0" y="447.0" type="curve" smooth="yes"/>
      <point x="1189.0" y="289.0"/>
      <point x="1122.0" y="132.0"/>
      <point x="990.0" y="43.0" type="curve" smooth="yes"/>
      <point x="890.0" y="-24.0"/>
      <point x="764.0" y="-53.0"/>
      <point x="646.0" y="-53.0" type="curve" smooth="yes"/>
      <point x="386.0" y="-53.0" type="line" smooth="yes"/>
      <point x="323.0" y="-53.0"/>
      <point x="277.0" y="-87.0"/>
      <point x="277.0" y="-154.0" type="curve" smooth="yes"/>
      <point x="277.0" y="-218.0"/>
      <point x="325.0" y="-254.0"/>
      <point x="386.0" y="-254.0" type="curve" smooth="yes"/>
      <point x="1054.0" y="-254.0" type="line" smooth="yes"/>
      <point x="1098.0" y="-254.0"/>
      <point x="1152.0" y="-282.0"/>
      <point x="1152.0" y="-333.0" type="curve" smooth="yes"/>
      <point x="1152.0" y="-384.0"/>
      <point x="1098.0" y="-412.0"/>
      <point x="1054.0" y="-412.0" type="curve" smooth="yes"/>
      <point x="386.0" y="-412.0" type="line" smooth="yes"/>
      <point x="237.0" y="-412.0"/>
      <point x="80.0" y="-351.0"/>
      <point x="80.0" y="-176.0" type="curve" smooth="yes"/>
      <point x="80.0" y="-10.0"/>
      <point x="245.0" y="59.0"/>
      <point x="386.0" y="59.0" type="curve" smooth="yes"/>
      <point x="646.0" y="59.0" type="line" smooth="yes"/>
      <point x="727.0" y="59.0"/>
      <point x="805.0" y="83.0"/>
      <point x="868.0" y="136.0" type="curve" smooth="yes"/>
      <point x="957.0" y="211.0"/>
      <point x="996.0" y="334.0"/>
      <point x="1001.0" y="447.0" type="curve" smooth="yes"/>
      <point x="1006.0" y="553.0"/>
      <point x="986.0" y="664.0"/>
      <point x="921.0" y="750.0" type="curve" smooth="yes"/>
      <point x="851.0" y="843.0"/>
      <point x="736.0" y="886.0"/>
    </contour>
    <contour>
      <point x="299.0" y="459.0" type="curve" smooth="yes"/>
      <point x="299.0" y="384.0"/>
      <point x="336.0" y="290.0"/>
      <point x="422.0" y="293.0" type="curve" smooth="yes"/>
      <point x="507.0" y="295.0"/>
      <point x="549.0" y="382.0"/>
      <point x="550.0" y="458.0" type="curve" smooth="yes"/>
      <point x="550.0" y="534.0"/>
      <point x="507.0" y="626.0"/>
      <point x="422.0" y="626.0" type="curve" smooth="yes"/>
      <point x="336.0" y="625.0"/>
      <point x="299.0" y="535.0"/>
    </contour>
  </outline>
</glyph>
<glyph name="ml_r" format="2">
  <advance height="2048" width="1517.0"/>
  <unicode hex="0D0B"/>
  <outline>
    <contour>
      <point x="274.0" y="713.0" type="curve" smooth="yes"/>
      <point x="275.0" y="641.0"/>
      <point x="316.0" y="551.0"/>
      <point x="399.0" y="551.0" type="curve" smooth="yes"/>
      <point x="485.0" y="551.0"/>
      <point x="525.0" y="637.0"/>
      <point x="526.0" y="713.0" type="curve" smooth="yes"/>
      <point x="527.0" y="789.0"/>
      <point x="486.0" y="884.0"/>
      <point x="399.0" y="884.0" type="curve" smooth="yes"/>
      <point x="308.0" y="885.0"/>
      <point x="272.0" y="791.0"/>
    </contour>
    <contour>
      <point x="306.0" y="453.0" type="curve"/>
      <point x="351.0" y="388.0"/>
      <point x="415.0" y="349.0"/>
      <point x="487.0" y="325.0" type="curve" smooth="yes"/>
      <point x="572.0" y="297.0"/>
      <point x="670.0" y="291.0"/>
      <point x="759.0" y="291.0" type="curve" smooth="yes"/>
      <point x="848.0" y="292.0"/>
      <point x="946.0" y="297.0"/>
      <point x="1031.0" y="325.0" type="curve" smooth="yes"/>
      <point x="1102.0" y="348.0"/>
      <point x="1166.0" y="388.0"/>
      <point x="1211.0" y="453.0" type="curve"/>
      <point x="1181.0" y="442.0"/>
      <point x="1149.0" y="436.0"/>
      <point x="1117.0" y="435.0" type="curve" smooth="yes"/>
      <point x="1036.0" y="432.0"/>
      <point x="952.0" y="453.0"/>
      <point x="888.0" y="506.0" type="curve" smooth="yes"/>
      <point x="826.0" y="558.0"/>
      <point x="796.0" y="632.0"/>
      <point x="795.0" y="713.0" type="curve" smooth="yes"/>
      <point x="794.0" y="786.0"/>
      <point x="822.0" y="854.0"/>
      <point x="873.0" y="905.0" type="curve" smooth="yes"/>
      <point x="938.0" y="970.0"/>
      <point x="1027.0" y="1000.0"/>
      <point x="1117.0" y="1000.0" type="curve" smooth="yes"/>
      <point x="1209.0" y="1000.0"/>
      <point x="1283.0" y="972.0"/>
      <point x="1336.0" y="922.0" type="curve" smooth="yes"/>
      <point x="1390.0" y="872.0"/>
      <point x="1422.0" y="799.0"/>
      <point x="1433.0" y="713.0" type="curve" smooth="yes"/>
      <point x="1440.0" y="660.0"/>
      <point x="1438.0" y="606.0"/>
      <point x="1427.0" y="554.0" type="curve" smooth="yes"/>
      <point x="1402.0" y="438.0"/>
      <point x="1332.0" y="347.0"/>
      <point x="1234.0" y="285.0" type="curve" smooth="yes"/>
      <point x="1196.0" y="261.0"/>
      <point x="1155.0" y="243.0"/>
      <point x="1113.0" y="229.0" type="curve"/>
      <point x="1237.0" y="186.0"/>
      <point x="1373.0" y="96.0"/>
      <point x="1371.0" y="-50.0" type="curve" smooth="yes"/>
      <point x="1368.0" y="-322.0"/>
      <point x="975.0" y="-412.0"/>
      <point x="762.0" y="-412.0" type="curve" smooth="yes"/>
      <point x="547.0" y="-412.0"/>
      <point x="149.0" y="-325.0"/>
      <point x="146.0" y="-50.0" type="curve" smooth="yes"/>
      <point x="144.0" y="96.0"/>
      <point x="280.0" y="186.0"/>
      <point x="404.0" y="229.0" type="curve"/>
      <point x="362.0" y="243.0"/>
      <point x="321.0" y="261.0"/>
      <point x="283.0" y="285.0" type="curve" smooth="yes"/>
      <point x="185.0" y="347.0"/>
      <point x="115.0" y="438.0"/>
      <point x="90.0" y="554.0" type="curve" smooth="yes"/>
      <point x="79.0" y="606.0"/>
      <point x="77.0" y="660.0"/>
      <point x="84.0" y="713.0" type="curve" smooth="yes"/>
      <point x="106.0" y="892.0"/>
      <point x="219.0" y="1000.0"/>
      <point x="399.0" y="1000.0" type="curve" smooth="yes"/>
      <point x="488.0" y="1000.0"/>
      <point x="579.0" y="970.0"/>
      <point x="644.0" y="905.0" type="curve" smooth="yes"/>
      <point x="693.0" y="855.0"/>
      <point x="722.0" y="789.0"/>
      <point x="722.0" y="718.0" type="curve" smooth="yes"/>
      <point x="722.0" y="635.0"/>
      <point x="692.0" y="559.0"/>
      <point x="629.0" y="506.0" type="curve" smooth="yes"/>
      <point x="565.0" y="453.0"/>
      <point x="481.0" y="432.0"/>
      <point x="400.0" y="435.0" type="curve" smooth="yes"/>
      <point x="368.0" y="436.0"/>
      <point x="336.0" y="442.0"/>
    </contour>
    <contour>
      <point x="1117.0" y="884.0" type="curve" smooth="yes"/>
      <point x="1030.0" y="884.0"/>
      <point x="990.0" y="790.0"/>
      <point x="991.0" y="713.0" type="curve" smooth="yes"/>
      <point x="992.0" y="638.0"/>
      <point x="1032.0" y="550.0"/>
      <point x="1117.0" y="551.0" type="curve" smooth="yes"/>
      <point x="1200.0" y="553.0"/>
      <point x="1242.0" y="638.0"/>
      <point x="1243.0" y="713.0" type="curve" smooth="yes"/>
      <point x="1245.0" y="790.0"/>
      <point x="1206.0" y="885.0"/>
    </contour>
    <contour>
      <point x="762.0" y="-300.0" type="curve" smooth="yes"/>
      <point x="910.0" y="-300.0"/>
      <point x="1173.0" y="-239.0"/>
      <point x="1173.0" y="-50.0" type="curve" smooth="yes"/>
      <point x="1174.0" y="136.0"/>
      <point x="897.0" y="180.0"/>
      <point x="756.0" y="181.0" type="curve" smooth="yes"/>
      <point x="615.0" y="182.0"/>
      <point x="346.0" y="137.0"/>
      <point x="344.0" y="-47.0" type="curve" smooth="yes"/>
      <point x="341.0" y="-237.0"/>
      <point x="613.0" y="-300.0"/>
    </contour>
  </outline>
</glyph>
<glyph name="ml_l" format="2">
	<unicode hex="0D0C"/>
	<advance height="2048" width="2117"/>
	<outline>
		<contour>
			<point x="1421" y="1000" type="curve" smooth="yes"/>
			<point x="1615" y="1000"/>
			<point x="1797" y="940"/>
			<point x="1919" y="787" type="curve" smooth="yes"/>
			<point x="2004" y="681"/>
			<point x="2039" y="553"/>
			<point x="2037" y="419" type="curve" smooth="yes"/>
			<point x="2036" y="324"/>
			<point x="2014" y="225"/>
			<point x="1963" y="143" type="curve" smooth="yes"/>
			<point x="1894" y="31"/>
			<point x="1775" y="-25"/>
			<point x="1642" y="-24" type="curve" smooth="yes"/>
			<point x="1517" y="-23"/>
			<point x="1400" y="25"/>
			<point x="1330" y="129" type="curve" smooth="yes"/>
			<point x="1284" y="196"/>
			<point x="1263" y="278"/>
			<point x="1263" y="358" type="curve" smooth="yes"/>
			<point x="1263" y="456"/>
			<point x="1295" y="555"/>
			<point x="1355" y="634" type="curve" smooth="yes"/>
			<point x="1431" y="732"/>
			<point x="1544" y="789"/>
			<point x="1666" y="810" type="curve"/>
			<point x="1598" y="862"/>
			<point x="1508" y="892"/>
			<point x="1422" y="890" type="curve" smooth="yes"/>
			<point x="1249" y="886"/>
			<point x="1159" y="768"/>
			<point x="1159" y="606" type="curve" smooth="yes"/>
			<point x="1159" y="32" type="line" smooth="yes"/>
			<point x="1159" y="-9"/>
			<point x="1091" y="-23"/>
			<point x="1058" y="-23" type="curve" smooth="yes"/>
			<point x="1026" y="-23"/>
			<point x="957" y="-9"/>
			<point x="957" y="32" type="curve" smooth="yes"/>
			<point x="957" y="606" type="line" smooth="yes"/>
			<point x="957" y="767"/>
			<point x="868" y="886"/>
			<point x="695" y="890" type="curve" smooth="yes"/>
			<point x="609" y="892"/>
			<point x="519" y="862"/>
			<point x="451" y="810" type="curve"/>
			<point x="573" y="789"/>
			<point x="686" y="732"/>
			<point x="762" y="634" type="curve" smooth="yes"/>
			<point x="822" y="555"/>
			<point x="854" y="456"/>
			<point x="854" y="358" type="curve" smooth="yes"/>
			<point x="854" y="278"/>
			<point x="833" y="196"/>
			<point x="787" y="129" type="curve" smooth="yes"/>
			<point x="717" y="25"/>
			<point x="600" y="-23"/>
			<point x="475" y="-24" type="curve" smooth="yes"/>
			<point x="342" y="-25"/>
			<point x="223" y="31"/>
			<point x="154" y="143" type="curve" smooth="yes"/>
			<point x="103" y="225"/>
			<point x="81" y="324"/>
			<point x="80" y="419" type="curve" smooth="yes"/>
			<point x="78" y="553"/>
			<point x="113" y="681"/>
			<point x="198" y="787" type="curve" smooth="yes"/>
			<point x="320" y="940"/>
			<point x="502" y="1000"/>
			<point x="696" y="1000" type="curve" smooth="yes"/>
			<point x="838" y="1000"/>
			<point x="955" y="969"/>
			<point x="1059" y="870" type="curve"/>
			<point x="1162" y="969"/>
			<point x="1279" y="1000"/>
		</contour>
		<contour>
			<point x="358" y="707" type="curve"/>
			<point x="302" y="621"/>
			<point x="281" y="520"/>
			<point x="282" y="420" type="curve" smooth="yes"/>
			<point x="283" y="337"/>
			<point x="302" y="250"/>
			<point x="345" y="179" type="curve" smooth="yes"/>
			<point x="373" y="135"/>
			<point x="415" y="87"/>
			<point x="472" y="88" type="curve" smooth="yes"/>
			<point x="526" y="88"/>
			<point x="570" y="126"/>
			<point x="598" y="168" type="curve" smooth="yes"/>
			<point x="636" y="223"/>
			<point x="651" y="292"/>
			<point x="651" y="358" type="curve" smooth="yes"/>
			<point x="651" y="441"/>
			<point x="627" y="524"/>
			<point x="576" y="591" type="curve" smooth="yes"/>
			<point x="523" y="659"/>
			<point x="446" y="703"/>
		</contour>
		<contour>
			<point x="1759" y="707" type="curve"/>
			<point x="1671" y="703"/>
			<point x="1594" y="659"/>
			<point x="1541" y="591" type="curve" smooth="yes"/>
			<point x="1490" y="524"/>
			<point x="1466" y="441"/>
			<point x="1466" y="358" type="curve" smooth="yes"/>
			<point x="1466" y="292"/>
			<point x="1481" y="223"/>
			<point x="1519" y="168" type="curve" smooth="yes"/>
			<point x="1547" y="126"/>
			<point x="1591" y="88"/>
			<point x="1645" y="88" type="curve" smooth="yes"/>
			<point x="1702" y="87"/>
			<point x="1744" y="135"/>
			<point x="1772" y="179" type="curve" smooth="yes"/>
			<point x="1815" y="250"/>
			<point x="1834" y="337"/>
			<point x="1835" y="420" type="curve" smooth="yes"/>
			<point x="1836" y="520"/>
			<point x="1815" y="621"/>
		</contour>
	</outline>
</glyph>
<glyph name="ml_e" format="2">
  <advance height="2048" width="2116.0"/>
  <unicode hex="0D0E"/>
  <outline>
    <contour>
      <point x="376.0" y="88.0" type="curve" smooth="yes"/>
      <point x="413.0" y="71.0"/>
      <point x="429.0" y="36.0"/>
      <point x="391.0" y="9.0" type="curve" smooth="yes"/>
      <point x="352.0" y="-18.0"/>
      <point x="288.0" y="-17.0"/>
      <point x="246.0" y="3.0" type="curve" smooth="yes"/>
      <point x="140.0" y="54.0"/>
      <point x="80.0" y="147.0"/>
      <point x="80.0" y="264.0" type="curve" smooth="yes"/>
      <point x="80.0" y="465.0"/>
      <point x="263.0" y="570.0"/>
      <point x="444.0" y="570.0" type="curve" smooth="yes"/>
      <point x="626.0" y="570.0"/>
      <point x="807.0" y="465.0"/>
      <point x="807.0" y="265.0" type="curve" smooth="yes"/>
      <point x="807.0" y="209.0"/>
      <point x="794.0" y="160.0"/>
      <point x="764.0" y="112.0" type="curve"/>
      <point x="929.0" y="112.0" type="line"/>
      <point x="923.0" y="177.0"/>
      <point x="922.0" y="235.0"/>
      <point x="925.0" y="300.0" type="curve" smooth="yes"/>
      <point x="941.0" y="652.0"/>
      <point x="1079.0" y="1000.0"/>
      <point x="1482.0" y="1000.0" type="curve" smooth="yes"/>
      <point x="1906.0" y="1000.0"/>
      <point x="2027.0" y="630.0"/>
      <point x="2036.0" y="267.0" type="curve" smooth="yes"/>
      <point x="2040.0" y="69.0"/>
      <point x="2000.0" y="-228.0"/>
      <point x="1850.0" y="-372.0" type="curve" smooth="yes"/>
      <point x="1818.0" y="-402.0"/>
      <point x="1754.0" y="-405.0"/>
      <point x="1714.0" y="-392.0" type="curve" smooth="yes"/>
      <point x="1680.0" y="-381.0"/>
      <point x="1645.0" y="-349.0"/>
      <point x="1679.0" y="-316.0" type="curve" smooth="yes"/>
      <point x="1807.0" y="-193.0"/>
      <point x="1841.0" y="98.0"/>
      <point x="1838.0" y="267.0" type="curve" smooth="yes"/>
      <point x="1832.0" y="484.0"/>
      <point x="1767.0" y="888.0"/>
      <point x="1482.0" y="888.0" type="curve" smooth="yes"/>
      <point x="1212.0" y="888.0"/>
      <point x="1132.0" y="510.0"/>
      <point x="1123.0" y="299.0" type="curve" smooth="yes"/>
      <point x="1120.0" y="235.0"/>
      <point x="1121.0" y="176.0"/>
      <point x="1128.0" y="112.0" type="curve"/>
      <point x="1384.0" y="112.0" type="line"/>
      <point x="1384.0" y="718.0" type="line" smooth="yes"/>
      <point x="1384.0" y="760.0"/>
      <point x="1451.0" y="774.0"/>
      <point x="1483.0" y="774.0" type="curve" smooth="yes"/>
      <point x="1515.0" y="774.0"/>
      <point x="1582.0" y="760.0"/>
      <point x="1582.0" y="718.0" type="curve" smooth="yes"/>
      <point x="1582.0" y="50.0" type="line" smooth="yes"/>
      <point x="1582.0" y="-44.0"/>
      <point x="1586.0" y="-158.0"/>
      <point x="1560.0" y="-247.0" type="curve" smooth="yes"/>
      <point x="1525.0" y="-365.0"/>
      <point x="1439.0" y="-403.0"/>
      <point x="1322.0" y="-400.0" type="curve" smooth="yes"/>
      <point x="1086.0" y="-394.0"/>
      <point x="984.0" y="-210.0"/>
      <point x="944.0" y="0.0" type="curve"/>
      <point x="596.0" y="0.0" type="line" smooth="yes"/>
      <point x="568.0" y="0.0"/>
      <point x="544.0" y="7.0"/>
      <point x="526.0" y="17.0" type="curve" smooth="yes"/>
      <point x="486.0" y="39.0"/>
      <point x="488.0" y="74.0"/>
      <point x="524.0" y="96.0" type="curve" smooth="yes"/>
      <point x="585.0" y="131.0"/>
      <point x="608.0" y="198.0"/>
      <point x="608.0" y="265.0" type="curve" smooth="yes"/>
      <point x="608.0" y="361.0"/>
      <point x="549.0" y="458.0"/>
      <point x="444.0" y="458.0" type="curve" smooth="yes"/>
      <point x="340.0" y="458.0"/>
      <point x="279.0" y="361.0"/>
      <point x="279.0" y="264.0" type="curve" smooth="yes"/>
      <point x="279.0" y="193.0"/>
      <point x="308.0" y="118.0"/>
    </contour>
    <contour>
      <point x="1384.0" y="0.0" type="curve"/>
      <point x="1144.0" y="0.0" type="line"/>
      <point x="1155.0" y="-114.0"/>
      <point x="1220.0" y="-286.0"/>
      <point x="1324.0" y="-288.0" type="curve" smooth="yes"/>
      <point x="1378.0" y="-290.0"/>
      <point x="1378.0" y="-211.0"/>
      <point x="1382.0" y="-135.0" type="curve" smooth="yes"/>
      <point x="1385.0" y="-81.0"/>
      <point x="1384.0" y="-22.0"/>
    </contour>
  </outline>
</glyph>
<glyph name="ml_ee" format="2">
	<unicode hex="0D0F"/>
	<advance height="2048" width="2164"/>
	<outline>
		<contour>
			<point x="1628" y="174" type="curve" smooth="yes"/>
			<point x="1628" y="213"/>
			<point x="1687" y="228"/>
			<point x="1721" y="230" type="curve"/>
			<point x="1740" y="230"/>
			<point x="1752" y="230"/>
			<point x="1771" y="236" type="curve" smooth="yes"/>
			<point x="1846" y="261"/>
			<point x="1887" y="377"/>
			<point x="1880" y="505" type="curve" smooth="yes"/>
			<point x="1869" y="710"/>
			<point x="1747" y="889"/>
			<point x="1527" y="888" type="curve" smooth="yes"/>
			<point x="1224" y="888"/>
			<point x="1129" y="527"/>
			<point x="1122" y="282" type="curve" smooth="yes"/>
			<point x="1120" y="223"/>
			<point x="1122" y="171"/>
			<point x="1127" y="112" type="curve"/>
			<point x="1384" y="112" type="line"/>
			<point x="1384" y="719" type="line" smooth="yes"/>
			<point x="1384" y="761"/>
			<point x="1452" y="775"/>
			<point x="1484" y="775" type="curve" smooth="yes"/>
			<point x="1516" y="775"/>
			<point x="1584" y="761"/>
			<point x="1584" y="719" type="curve" smooth="yes"/>
			<point x="1584" y="513"/>
			<point x="1583" y="212"/>
			<point x="1584" y="30" type="curve" smooth="yes"/>
			<point x="1584" y="-56"/>
			<point x="1584" y="-169"/>
			<point x="1561" y="-247" type="curve" smooth="yes"/>
			<point x="1525" y="-365"/>
			<point x="1439" y="-403"/>
			<point x="1323" y="-400" type="curve" smooth="yes"/>
			<point x="1087" y="-394"/>
			<point x="985" y="-208"/>
			<point x="945" y="0" type="curve"/>
			<point x="596" y="0" type="line" smooth="yes"/>
			<point x="569" y="0"/>
			<point x="544" y="7"/>
			<point x="526" y="17" type="curve" smooth="yes"/>
			<point x="486" y="39"/>
			<point x="488" y="74"/>
			<point x="525" y="96" type="curve" smooth="yes"/>
			<point x="585" y="131"/>
			<point x="608" y="198"/>
			<point x="608" y="265" type="curve" smooth="yes"/>
			<point x="608" y="361"/>
			<point x="550" y="458"/>
			<point x="445" y="458" type="curve" smooth="yes"/>
			<point x="340" y="458"/>
			<point x="279" y="362"/>
			<point x="279" y="265" type="curve" smooth="yes"/>
			<point x="279" y="195"/>
			<point x="308" y="118"/>
			<point x="376" y="88" type="curve" smooth="yes"/>
			<point x="414" y="71"/>
			<point x="429" y="36"/>
			<point x="391" y="9" type="curve" smooth="yes"/>
			<point x="353" y="-18"/>
			<point x="290" y="-17"/>
			<point x="248" y="2" type="curve" smooth="yes"/>
			<point x="141" y="52"/>
			<point x="80" y="147"/>
			<point x="80" y="265" type="curve" smooth="yes"/>
			<point x="80" y="467"/>
			<point x="264" y="570"/>
			<point x="445" y="570" type="curve" smooth="yes"/>
			<point x="627" y="570"/>
			<point x="807" y="465"/>
			<point x="807" y="265" type="curve" smooth="yes"/>
			<point x="807" y="209"/>
			<point x="794" y="160"/>
			<point x="765" y="112" type="curve"/>
			<point x="929" y="112" type="line"/>
			<point x="923" y="171"/>
			<point x="922" y="223"/>
			<point x="923" y="282" type="curve" smooth="yes"/>
			<point x="935" y="666"/>
			<point x="1101" y="1000"/>
			<point x="1526" y="1000" type="curve" smooth="yes"/>
			<point x="1814" y="1000"/>
			<point x="2079" y="816"/>
			<point x="2079" y="507" type="curve" smooth="yes"/>
			<point x="2079" y="391"/>
			<point x="2049" y="259"/>
			<point x="1952" y="184" type="curve"/>
			<point x="2042" y="128"/>
			<point x="2085" y="29"/>
			<point x="2084" y="-75" type="curve" smooth="yes"/>
			<point x="2082" y="-271"/>
			<point x="1956" y="-397"/>
			<point x="1761" y="-399" type="curve" smooth="yes"/>
			<point x="1715" y="-399"/>
			<point x="1681" y="-392"/>
			<point x="1638" y="-376" type="curve" smooth="yes"/>
			<point x="1603" y="-364"/>
			<point x="1572" y="-331"/>
			<point x="1608" y="-300" type="curve" smooth="yes"/>
			<point x="1641" y="-270"/>
			<point x="1693" y="-268"/>
			<point x="1733" y="-282" type="curve" smooth="yes"/>
			<point x="1741" y="-285"/>
			<point x="1751" y="-287"/>
			<point x="1760" y="-287" type="curve" smooth="yes"/>
			<point x="1834" y="-286"/>
			<point x="1885" y="-181"/>
			<point x="1889" y="-78" type="curve" smooth="yes"/>
			<point x="1892" y="10"/>
			<point x="1861" y="96"/>
			<point x="1783" y="114" type="curve"/>
			<point x="1766" y="117"/>
			<point x="1747" y="119"/>
			<point x="1725" y="119" type="curve" smooth="yes"/>
			<point x="1692" y="119"/>
			<point x="1627" y="133"/>
		</contour>
		<contour>
			<point x="1144" y="0" type="line"/>
			<point x="1154" y="-96"/>
			<point x="1209" y="-283"/>
			<point x="1325" y="-288" type="curve" smooth="yes"/>
			<point x="1382" y="-291"/>
			<point x="1381" y="-175"/>
			<point x="1383" y="-133" type="curve" smooth="yes"/>
			<point x="1385" y="-90"/>
			<point x="1385" y="-39"/>
			<point x="1385" y="0" type="curve"/>
		</contour>
	</outline>
</glyph>
<glyph name="ml_o" format="2">
	<unicode hex="0D12"/>
	<advance height="2048" width="1361"/>
	<outline>
		<contour>
			<point x="790" y="294" type="curve" smooth="yes"/>
			<point x="787" y="205"/>
			<point x="754" y="115"/>
			<point x="685" y="57" type="curve" smooth="yes"/>
			<point x="621" y="3"/>
			<point x="534" y="-23"/>
			<point x="452" y="-24" type="curve" smooth="yes"/>
			<point x="309" y="-25"/>
			<point x="196" y="39"/>
			<point x="132" y="170" type="curve" smooth="yes"/>
			<point x="85" y="266"/>
			<point x="76" y="375"/>
			<point x="81" y="481" type="curve" smooth="yes"/>
			<point x="90" y="646"/>
			<point x="162" y="784"/>
			<point x="299" y="878" type="curve" smooth="yes"/>
			<point x="418" y="961"/>
			<point x="569" y="996"/>
			<point x="712" y="1000" type="curve" smooth="yes"/>
			<point x="826" y="1002"/>
			<point x="954" y="983"/>
			<point x="1058" y="934" type="curve" smooth="yes"/>
			<point x="1170" y="882"/>
			<point x="1249" y="798"/>
			<point x="1252" y="668" type="curve" smooth="yes"/>
			<point x="1254" y="589"/>
			<point x="1217" y="520"/>
			<point x="1153" y="475" type="curve"/>
			<point x="1231" y="429"/>
			<point x="1282" y="351"/>
			<point x="1281" y="257" type="curve" smooth="yes"/>
			<point x="1280" y="194"/>
			<point x="1256" y="136"/>
			<point x="1217" y="87" type="curve" smooth="yes"/>
			<point x="1156" y="12"/>
			<point x="1051" y="-22"/>
			<point x="958" y="-24" type="curve" smooth="yes"/>
			<point x="908" y="-25"/>
			<point x="871" y="-16"/>
			<point x="824" y="1" type="curve" smooth="yes"/>
			<point x="789" y="13"/>
			<point x="758" y="46"/>
			<point x="793" y="77" type="curve" smooth="yes"/>
			<point x="825" y="107"/>
			<point x="879" y="109"/>
			<point x="918" y="95" type="curve" smooth="yes"/>
			<point x="931" y="90"/>
			<point x="944" y="87"/>
			<point x="957" y="87" type="curve" smooth="yes"/>
			<point x="989" y="88"/>
			<point x="1019" y="110"/>
			<point x="1039" y="133" type="curve" smooth="yes"/>
			<point x="1067" y="168"/>
			<point x="1084" y="212"/>
			<point x="1085" y="257" type="curve" smooth="yes"/>
			<point x="1086" y="306"/>
			<point x="1067" y="355"/>
			<point x="1029" y="386" type="curve" smooth="yes"/>
			<point x="1008" y="403"/>
			<point x="988" y="412"/>
			<point x="962" y="414" type="curve" smooth="yes"/>
			<point x="946" y="415"/>
			<point x="930" y="412"/>
			<point x="913" y="413" type="curve" smooth="yes"/>
			<point x="884" y="415"/>
			<point x="831" y="430"/>
			<point x="828" y="466" type="curve" smooth="yes"/>
			<point x="825" y="504"/>
			<point x="883" y="521"/>
			<point x="912" y="523" type="curve"/>
			<point x="927" y="525"/>
			<point x="944" y="523"/>
			<point x="958" y="526" type="curve" smooth="yes"/>
			<point x="982" y="530"/>
			<point x="998" y="541"/>
			<point x="1016" y="558" type="curve" smooth="yes"/>
			<point x="1045" y="586"/>
			<point x="1058" y="627"/>
			<point x="1056" y="667" type="curve" smooth="yes"/>
			<point x="1054" y="733"/>
			<point x="1024" y="784"/>
			<point x="972" y="822" type="curve" smooth="yes"/>
			<point x="903" y="873"/>
			<point x="797" y="890"/>
			<point x="713" y="889" type="curve" smooth="yes"/>
			<point x="599" y="887"/>
			<point x="484" y="858"/>
			<point x="400" y="777" type="curve" smooth="yes"/>
			<point x="340" y="719"/>
			<point x="305" y="645"/>
			<point x="289" y="564" type="curve"/>
			<point x="336" y="599"/>
			<point x="392" y="616"/>
			<point x="451" y="618" type="curve" smooth="yes"/>
			<point x="546" y="621"/>
			<point x="646" y="588"/>
			<point x="712" y="517" type="curve" smooth="yes"/>
			<point x="768" y="456"/>
			<point x="792" y="377"/>
		</contour>
		<contour>
			<point x="302" y="294" type="curve" smooth="yes"/>
			<point x="302" y="204"/>
			<point x="346" y="88"/>
			<point x="450" y="87" type="curve" smooth="yes"/>
			<point x="555" y="87"/>
			<point x="601" y="204"/>
			<point x="601" y="294" type="curve" smooth="yes"/>
			<point x="601" y="385"/>
			<point x="557" y="501"/>
			<point x="452" y="501" type="curve" smooth="yes"/>
			<point x="347" y="501"/>
			<point x="302" y="385"/>
		</contour>
	</outline>
</glyph>
<glyph name="k1" format="2">
  <advance height="2048" width="1887.0"/>
  <unicode hex="0D15"/>
  <outline>
    <contour>
      <point x="944.0" y="1000.0" type="curve" smooth="yes"/>
      <point x="1092.0" y="1000.0"/>
      <point x="1225.0" y="952.0"/>
      <point x="1300.0" y="817.0" type="curve" smooth="yes"/>
      <point x="1343.0" y="740.0"/>
      <point x="1359.0" y="647.0"/>
      <point x="1365.0" y="560.0" type="curve"/>
      <point x="1417.0" y="560.0" type="line" smooth="yes"/>
      <point x="1514.0" y="560.0"/>
      <point x="1620.0" y="539.0"/>
      <point x="1699.0" y="480.0" type="curve" smooth="yes"/>
      <point x="1772.0" y="426.0"/>
      <point x="1807.0" y="350.0"/>
      <point x="1807.0" y="259.0" type="curve" smooth="yes"/>
      <point x="1807.0" y="186.0"/>
      <point x="1779.0" y="121.0"/>
      <point x="1726.0" y="71.0" type="curve" smooth="yes"/>
      <point x="1661.0" y="8.0"/>
      <point x="1567.0" y="-23.0"/>
      <point x="1478.0" y="-23.0" type="curve" smooth="yes"/>
      <point x="1437.0" y="-24.0"/>
      <point x="1346.0" y="-14.0"/>
      <point x="1315.0" y="16.0" type="curve" smooth="yes"/>
      <point x="1273.0" y="57.0"/>
      <point x="1335.0" y="91.0"/>
      <point x="1372.0" y="97.0" type="curve" smooth="yes"/>
      <point x="1397.0" y="101.0"/>
      <point x="1424.0" y="100.0"/>
      <point x="1448.0" y="92.0" type="curve"/>
      <point x="1457.0" y="90.0"/>
      <point x="1467.0" y="88.0"/>
      <point x="1477.0" y="88.0" type="curve" smooth="yes"/>
      <point x="1517.0" y="89.0"/>
      <point x="1550.0" y="114.0"/>
      <point x="1572.0" y="144.0" type="curve" smooth="yes"/>
      <point x="1596.0" y="176.0"/>
      <point x="1610.0" y="217.0"/>
      <point x="1610.0" y="257.0" type="curve" smooth="yes"/>
      <point x="1611.0" y="302.0"/>
      <point x="1597.0" y="346.0"/>
      <point x="1569.0" y="382.0" type="curve" smooth="yes"/>
      <point x="1531.0" y="429.0"/>
      <point x="1477.0" y="449.0"/>
      <point x="1417.0" y="449.0" type="curve" smooth="yes"/>
      <point x="1366.0" y="449.0" type="line"/>
      <point x="1362.0" y="351.0"/>
      <point x="1347.0" y="243.0"/>
      <point x="1297.0" y="156.0" type="curve" smooth="yes"/>
      <point x="1222.0" y="23.0"/>
      <point x="1091.0" y="-24.0"/>
      <point x="944.0" y="-24.0" type="curve" smooth="yes"/>
      <point x="837.0" y="-24.0"/>
      <point x="730.0" y="1.0"/>
      <point x="651.0" y="77.0" type="curve"/>
      <point x="593.0" y="4.0"/>
      <point x="504.0" y="-24.0"/>
      <point x="413.0" y="-24.0" type="curve" smooth="yes"/>
      <point x="321.0" y="-24.0"/>
      <point x="226.0" y="6.0"/>
      <point x="159.0" y="71.0" type="curve" smooth="yes"/>
      <point x="107.0" y="122.0"/>
      <point x="79.0" y="190.0"/>
      <point x="80.0" y="263.0" type="curve" smooth="yes"/>
      <point x="81.0" y="335.0"/>
      <point x="109.0" y="404.0"/>
      <point x="160.0" y="455.0" type="curve" smooth="yes"/>
      <point x="239.0" y="533.0"/>
      <point x="352.0" y="560.0"/>
      <point x="460.0" y="560.0" type="curve" smooth="yes"/>
      <point x="522.0" y="560.0" type="line"/>
      <point x="528.0" y="647.0"/>
      <point x="544.0" y="739.0"/>
      <point x="587.0" y="816.0" type="curve" smooth="yes"/>
      <point x="662.0" y="951.0"/>
      <point x="794.0" y="1000.0"/>
    </contour>
    <contour>
      <point x="534.0" y="325.0" type="curve" smooth="yes"/>
      <point x="526.0" y="366.0"/>
      <point x="523.0" y="407.0"/>
      <point x="521.0" y="449.0" type="curve"/>
      <point x="460.0" y="449.0" type="line" smooth="yes"/>
      <point x="411.0" y="449.0"/>
      <point x="368.0" y="436.0"/>
      <point x="333.0" y="401.0" type="curve" smooth="yes"/>
      <point x="298.0" y="365.0"/>
      <point x="279.0" y="314.0"/>
      <point x="278.0" y="264.0" type="curve" smooth="yes"/>
      <point x="277.0" y="213.0"/>
      <point x="294.0" y="162.0"/>
      <point x="331.0" y="126.0" type="curve" smooth="yes"/>
      <point x="352.0" y="106.0"/>
      <point x="383.0" y="87.0"/>
      <point x="412.0" y="87.0" type="curve" smooth="yes"/>
      <point x="441.0" y="87.0"/>
      <point x="469.0" y="107.0"/>
      <point x="488.0" y="126.0" type="curve" smooth="yes"/>
      <point x="536.0" y="178.0"/>
      <point x="545.0" y="258.0"/>
    </contour>
    <contour>
      <point x="1168.0" y="449.0" type="curve"/>
      <point x="719.0" y="449.0" type="line"/>
      <point x="722.0" y="363.0"/>
      <point x="736.0" y="264.0"/>
      <point x="779.0" y="189.0" type="curve" smooth="yes"/>
      <point x="816.0" y="125.0"/>
      <point x="869.0" y="87.0"/>
      <point x="944.0" y="87.0" type="curve" smooth="yes"/>
      <point x="1019.0" y="87.0"/>
      <point x="1072.0" y="125.0"/>
      <point x="1109.0" y="189.0" type="curve" smooth="yes"/>
      <point x="1152.0" y="265.0"/>
      <point x="1165.0" y="363.0"/>
    </contour>
    <contour>
      <point x="720.0" y="560.0" type="curve"/>
      <point x="1167.0" y="560.0" type="line"/>
      <point x="1162.0" y="635.0"/>
      <point x="1148.0" y="717.0"/>
      <point x="1111.0" y="784.0" type="curve" smooth="yes"/>
      <point x="1074.0" y="849.0"/>
      <point x="1020.0" y="889.0"/>
      <point x="944.0" y="889.0" type="curve" smooth="yes"/>
      <point x="866.0" y="889.0"/>
      <point x="812.0" y="849.0"/>
      <point x="776.0" y="783.0" type="curve" smooth="yes"/>
      <point x="739.0" y="717.0"/>
      <point x="725.0" y="635.0"/>
    </contour>
  </outline>
</glyph>
<glyph name="k2" format="2">
	<unicode hex="0D16"/>
	<advance height="2048" width="1720"/>
	<outline>
		<contour>
			<point x="899" y="79" type="curve" smooth="yes"/>
			<point x="1037" y="154"/>
			<point x="1095" y="336"/>
			<point x="1089" y="486" type="curve" smooth="yes"/>
			<point x="1080" y="728"/>
			<point x="910" y="907"/>
			<point x="664" y="908" type="curve" smooth="yes"/>
			<point x="445" y="910"/>
			<point x="291" y="743"/>
			<point x="260" y="526" type="curve"/>
			<point x="312" y="586"/>
			<point x="382" y="618"/>
			<point x="461" y="621" type="curve" smooth="yes"/>
			<point x="559" y="624"/>
			<point x="652" y="587"/>
			<point x="712" y="523" type="curve" smooth="yes"/>
			<point x="765" y="467"/>
			<point x="793" y="390"/>
			<point x="790" y="302" type="curve" smooth="yes"/>
			<point x="788" y="213"/>
			<point x="754" y="123"/>
			<point x="685" y="66" type="curve" smooth="yes"/>
			<point x="626" y="17"/>
			<point x="545" y="-11"/>
			<point x="461" y="-12" type="curve" smooth="yes"/>
			<point x="196" y="-15"/>
			<point x="96" y="220"/>
			<point x="100" y="451" type="curve" smooth="yes"/>
			<point x="106" y="788"/>
			<point x="340" y="1001"/>
			<point x="664" y="1000" type="curve" smooth="yes"/>
			<point x="978" y="999"/>
			<point x="1239" y="821"/>
			<point x="1252" y="486" type="curve" smooth="yes"/>
			<point x="1257" y="344"/>
			<point x="1213" y="195"/>
			<point x="1113" y="91" type="curve"/>
			<point x="1457" y="91" type="line"/>
			<point x="1457" y="953" type="line" smooth="yes"/>
			<point x="1457" y="979"/>
			<point x="1494" y="999"/>
			<point x="1539" y="999" type="curve" smooth="yes"/>
			<point x="1584" y="999"/>
			<point x="1620" y="979"/>
			<point x="1620" y="953" type="curve" smooth="yes"/>
			<point x="1620" y="46" type="line" smooth="yes"/>
			<point x="1620" y="9"/>
			<point x="1559" y="0"/>
			<point x="1531" y="0" type="curve" smooth="yes"/>
			<point x="954" y="0" type="line" smooth="yes"/>
			<point x="910" y="0"/>
			<point x="873" y="20"/>
			<point x="873" y="46" type="curve" smooth="yes"/>
			<point x="873" y="61"/>
			<point x="886" y="72"/>
		</contour>
		<contour>
			<point x="286" y="302" type="curve" smooth="yes"/>
			<point x="286" y="154"/>
			<point x="371" y="79"/>
			<point x="461" y="79" type="curve" smooth="yes"/>
			<point x="545" y="79"/>
			<point x="635" y="153"/>
			<point x="635" y="302" type="curve" smooth="yes"/>
			<point x="635" y="450"/>
			<point x="548" y="524"/>
			<point x="461" y="524" type="curve" smooth="yes"/>
			<point x="374" y="524"/>
			<point x="286" y="450"/>
		</contour>
	</outline>
</glyph>
<glyph name="k3" format="2">
	<unicode hex="0D17"/>
	<advance height="2048" width="1683"/>
	<outline>
		<contour>
			<point x="1112" y="-1" type="curve" smooth="yes"/>
			<point x="1099" y="9"/>
			<point x="1093" y="20"/>
			<point x="1093" y="31" type="curve" smooth="yes"/>
			<point x="1093" y="50"/>
			<point x="1111" y="67"/>
			<point x="1135" y="76" type="curve" smooth="yes"/>
			<point x="1306" y="144"/>
			<point x="1400" y="322"/>
			<point x="1401" y="497" type="curve" smooth="yes"/>
			<point x="1401" y="595"/>
			<point x="1372" y="691"/>
			<point x="1315" y="772" type="curve" smooth="yes"/>
			<point x="1275" y="828"/>
			<point x="1214" y="889"/>
			<point x="1139" y="889" type="curve" smooth="yes"/>
			<point x="949" y="891"/>
			<point x="938" y="631"/>
			<point x="940" y="497" type="curve" smooth="yes"/>
			<point x="945" y="217"/>
			<point x="900" y="-22"/>
			<point x="555" y="-24" type="curve" smooth="yes"/>
			<point x="399" y="-25"/>
			<point x="267" y="36"/>
			<point x="178" y="162" type="curve" smooth="yes"/>
			<point x="111" y="256"/>
			<point x="79" y="383"/>
			<point x="80" y="497" type="curve" smooth="yes"/>
			<point x="82" y="701"/>
			<point x="187" y="898"/>
			<point x="382" y="986" type="curve" smooth="yes"/>
			<point x="401" y="995"/>
			<point x="425" y="1000"/>
			<point x="449" y="1000" type="curve" smooth="yes"/>
			<point x="478" y="1000"/>
			<point x="506" y="994"/>
			<point x="528" y="979" type="curve" smooth="yes"/>
			<point x="544" y="968"/>
			<point x="551" y="956"/>
			<point x="550" y="944" type="curve"/>
			<point x="550" y="927"/>
			<point x="535" y="911"/>
			<point x="513" y="901" type="curve" smooth="yes"/>
			<point x="361" y="835"/>
			<point x="283" y="652"/>
			<point x="282" y="497" type="curve" smooth="yes"/>
			<point x="281" y="399"/>
			<point x="309" y="283"/>
			<point x="366" y="202" type="curve" smooth="yes"/>
			<point x="409" y="142"/>
			<point x="474" y="85"/>
			<point x="554" y="87" type="curve" smooth="yes"/>
			<point x="743" y="92"/>
			<point x="740" y="365"/>
			<point x="738" y="497" type="curve" smooth="yes"/>
			<point x="733" y="777"/>
			<point x="806" y="1005"/>
			<point x="1139" y="1000" type="curve" smooth="yes"/>
			<point x="1291" y="998"/>
			<point x="1417" y="934"/>
			<point x="1503" y="812" type="curve" smooth="yes"/>
			<point x="1569" y="719"/>
			<point x="1603" y="609"/>
			<point x="1603" y="497" type="curve" smooth="yes"/>
			<point x="1603" y="273"/>
			<point x="1474" y="78"/>
			<point x="1262" y="-10" type="curve" smooth="yes"/>
			<point x="1241" y="-19"/>
			<point x="1216" y="-24"/>
			<point x="1190" y="-24" type="curve" smooth="yes"/>
			<point x="1162" y="-24"/>
			<point x="1134" y="-17"/>
		</contour>
	</outline>
</glyph>
<glyph name="k4" format="2">
	<unicode hex="0D18"/>
	<advance height="2048" width="2375"/>
	<outline>
		<contour>
			<point x="2072" y="956" type="line" smooth="yes"/>
			<point x="2072" y="998"/>
			<point x="2141" y="1012"/>
			<point x="2174" y="1012" type="curve" smooth="yes"/>
			<point x="2206" y="1012"/>
			<point x="2275" y="998"/>
			<point x="2275" y="956" type="curve" smooth="yes"/>
			<point x="2275" y="67" type="line" smooth="yes"/>
			<point x="2275" y="26"/>
			<point x="2206" y="12"/>
			<point x="2174" y="12" type="curve" smooth="yes"/>
			<point x="1080" y="12" type="line" smooth="yes"/>
			<point x="1045" y="12"/>
			<point x="978" y="28"/>
			<point x="978" y="71" type="curve" smooth="yes"/>
			<point x="978" y="345" type="line"/>
			<point x="607" y="345" type="line" smooth="yes"/>
			<point x="574" y="345"/>
			<point x="506" y="359"/>
			<point x="505" y="400" type="curve" smooth="yes"/>
			<point x="505" y="415"/>
			<point x="515" y="429"/>
			<point x="534" y="440" type="curve" smooth="yes"/>
			<point x="595" y="475"/>
			<point x="619" y="548"/>
			<point x="619" y="614" type="curve" smooth="yes"/>
			<point x="619" y="710"/>
			<point x="559" y="806"/>
			<point x="452" y="806" type="curve" smooth="yes"/>
			<point x="345" y="807"/>
			<point x="283" y="711"/>
			<point x="283" y="615" type="curve" smooth="yes"/>
			<point x="283" y="545"/>
			<point x="312" y="463"/>
			<point x="382" y="432" type="curve" smooth="yes"/>
			<point x="405" y="422"/>
			<point x="420" y="406"/>
			<point x="420" y="389" type="curve" smooth="yes"/>
			<point x="420" y="377"/>
			<point x="413" y="365"/>
			<point x="397" y="354" type="curve" smooth="yes"/>
			<point x="377" y="340"/>
			<point x="349" y="334"/>
			<point x="320" y="334" type="curve" smooth="yes"/>
			<point x="296" y="334"/>
			<point x="271" y="339"/>
			<point x="251" y="348" type="curve" smooth="yes"/>
			<point x="142" y="398"/>
			<point x="80" y="498"/>
			<point x="80" y="615" type="curve" smooth="yes"/>
			<point x="80" y="815"/>
			<point x="267" y="917"/>
			<point x="452" y="917" type="curve" smooth="yes"/>
			<point x="637" y="917"/>
			<point x="822" y="813"/>
			<point x="822" y="614" type="curve" smooth="yes"/>
			<point x="822" y="559"/>
			<point x="808" y="504"/>
			<point x="778" y="457" type="curve"/>
			<point x="978" y="457" type="line"/>
			<point x="978" y="657" type="line" smooth="yes"/>
			<point x="978" y="896"/>
			<point x="1217" y="1011"/>
			<point x="1434" y="1011" type="curve" smooth="yes"/>
			<point x="1653" y="1011"/>
			<point x="1871" y="897"/>
			<point x="1871" y="659" type="curve" smooth="yes"/>
			<point x="1871" y="401" type="line" smooth="yes"/>
			<point x="1871" y="359"/>
			<point x="1802" y="345"/>
			<point x="1770" y="345" type="curve" smooth="yes"/>
			<point x="1181" y="345" type="line"/>
			<point x="1181" y="123" type="line"/>
			<point x="2072" y="123" type="line"/>
		</contour>
		<contour>
			<point x="1668" y="457" type="line"/>
			<point x="1669" y="659" type="line" smooth="yes"/>
			<point x="1669" y="795"/>
			<point x="1576" y="901"/>
			<point x="1432" y="901" type="curve" smooth="yes"/>
			<point x="1289" y="901"/>
			<point x="1181" y="798"/>
			<point x="1181" y="657" type="curve" smooth="yes"/>
			<point x="1181" y="457" type="line"/>
		</contour>
	</outline>
</glyph>
<glyph name="ng" format="2">
	<unicode hex="0D19"/>
	<advance height="2048" width="1958"/>
	<outline>
		<contour>
			<point x="80" y="460" type="curve" smooth="yes"/>
			<point x="80" y="554"/>
			<point x="98" y="647"/>
			<point x="141" y="731" type="curve" smooth="yes"/>
			<point x="236" y="916"/>
			<point x="423" y="1002"/>
			<point x="629" y="1000" type="curve" smooth="yes"/>
			<point x="765" y="999"/>
			<point x="922" y="975"/>
			<point x="1021" y="876" type="curve"/>
			<point x="1119" y="973"/>
			<point x="1279" y="998"/>
			<point x="1412" y="999" type="curve" smooth="yes"/>
			<point x="1614" y="1000"/>
			<point x="1851" y="921"/>
			<point x="1856" y="689" type="curve" smooth="yes"/>
			<point x="1858" y="599"/>
			<point x="1809" y="519"/>
			<point x="1732" y="471" type="curve"/>
			<point x="1820" y="428"/>
			<point x="1879" y="346"/>
			<point x="1878" y="248" type="curve" smooth="yes"/>
			<point x="1876" y="54"/>
			<point x="1673" y="-24"/>
			<point x="1501" y="-24" type="curve" smooth="yes"/>
			<point x="1421" y="-24"/>
			<point x="1340" y="-9"/>
			<point x="1266" y="21" type="curve" smooth="yes"/>
			<point x="1241" y="31"/>
			<point x="1225" y="48"/>
			<point x="1225" y="67" type="curve" smooth="yes"/>
			<point x="1225" y="77"/>
			<point x="1231" y="89"/>
			<point x="1245" y="99" type="curve" smooth="yes"/>
			<point x="1265" y="114"/>
			<point x="1295" y="121"/>
			<point x="1324" y="121" type="curve" smooth="yes"/>
			<point x="1346" y="121"/>
			<point x="1369" y="118"/>
			<point x="1387" y="110" type="curve" smooth="yes"/>
			<point x="1422" y="96"/>
			<point x="1463" y="87"/>
			<point x="1502" y="87" type="curve" smooth="yes"/>
			<point x="1602" y="86"/>
			<point x="1677" y="147"/>
			<point x="1675" y="248" type="curve" smooth="yes"/>
			<point x="1674" y="312"/>
			<point x="1635" y="369"/>
			<point x="1575" y="393" type="curve" smooth="yes"/>
			<point x="1510" y="419"/>
			<point x="1429" y="411"/>
			<point x="1360" y="412" type="curve" smooth="yes"/>
			<point x="1327" y="412"/>
			<point x="1261" y="427"/>
			<point x="1261" y="468" type="curve" smooth="yes"/>
			<point x="1262" y="509"/>
			<point x="1331" y="523"/>
			<point x="1364" y="523" type="curve" smooth="yes"/>
			<point x="1428" y="522"/>
			<point x="1516" y="515"/>
			<point x="1573" y="544" type="curve" smooth="yes"/>
			<point x="1627" y="571"/>
			<point x="1654" y="632"/>
			<point x="1654" y="689" type="curve" smooth="yes"/>
			<point x="1653" y="830"/>
			<point x="1543" y="889"/>
			<point x="1412" y="888" type="curve" smooth="yes"/>
			<point x="1222" y="888"/>
			<point x="1125" y="788"/>
			<point x="1125" y="603" type="curve" smooth="yes"/>
			<point x="1125" y="31" type="line" smooth="yes"/>
			<point x="1125" y="-10"/>
			<point x="1056" y="-24"/>
			<point x="1024" y="-24" type="curve" smooth="yes"/>
			<point x="992" y="-24"/>
			<point x="923" y="-10"/>
			<point x="923" y="31" type="curve" smooth="yes"/>
			<point x="923" y="605" type="line" smooth="yes"/>
			<point x="923" y="681"/>
			<point x="901" y="754"/>
			<point x="846" y="809" type="curve" smooth="yes"/>
			<point x="788" y="866"/>
			<point x="707" y="888"/>
			<point x="627" y="889" type="curve" smooth="yes"/>
			<point x="492" y="890"/>
			<point x="388" y="806"/>
			<point x="330" y="692" type="curve" smooth="yes"/>
			<point x="306" y="645"/>
			<point x="291" y="593"/>
			<point x="284" y="541" type="curve"/>
			<point x="338" y="590"/>
			<point x="406" y="615"/>
			<point x="479" y="617" type="curve" smooth="yes"/>
			<point x="577" y="620"/>
			<point x="681" y="587"/>
			<point x="749" y="516" type="curve" smooth="yes"/>
			<point x="807" y="455"/>
			<point x="832" y="376"/>
			<point x="829" y="294" type="curve" smooth="yes"/>
			<point x="827" y="205"/>
			<point x="792" y="115"/>
			<point x="721" y="57" type="curve" smooth="yes"/>
			<point x="655" y="3"/>
			<point x="566" y="-23"/>
			<point x="481" y="-24" type="curve" smooth="yes"/>
			<point x="392" y="-25"/>
			<point x="312" y="-1"/>
			<point x="243" y="55" type="curve" smooth="yes"/>
			<point x="124" y="150"/>
			<point x="80" y="315"/>
		</contour>
		<contour>
			<point x="326" y="294" type="curve"/>
			<point x="325" y="203"/>
			<point x="371" y="87"/>
			<point x="481" y="87" type="curve" smooth="yes"/>
			<point x="587" y="87"/>
			<point x="634" y="205"/>
			<point x="634" y="294" type="curve" smooth="yes"/>
			<point x="635" y="383"/>
			<point x="589" y="501"/>
			<point x="481" y="501" type="curve" smooth="yes"/>
			<point x="373" y="500"/>
			<point x="326" y="384"/>
		</contour>
	</outline>
</glyph>
<glyph name="ch2" format="2">
	<unicode hex="0D1B"/>
	<advance height="2048" width="2372"/>
	<outline>
		<contour>
			<point x="2013" y="732" type="curve"/>
			<point x="1925" y="727"/>
			<point x="1848" y="683"/>
			<point x="1796" y="615" type="curve" smooth="yes"/>
			<point x="1744" y="548"/>
			<point x="1720" y="465"/>
			<point x="1720" y="382" type="curve" smooth="yes"/>
			<point x="1720" y="316"/>
			<point x="1736" y="247"/>
			<point x="1773" y="192" type="curve" smooth="yes"/>
			<point x="1801" y="150"/>
			<point x="1845" y="112"/>
			<point x="1899" y="111" type="curve" smooth="yes"/>
			<point x="1956" y="111"/>
			<point x="1999" y="159"/>
			<point x="2026" y="203" type="curve" smooth="yes"/>
			<point x="2070" y="274"/>
			<point x="2088" y="361"/>
			<point x="2089" y="444" type="curve" smooth="yes"/>
			<point x="2091" y="545"/>
			<point x="2069" y="646"/>
		</contour>
		<contour>
			<point x="1192" y="135" type="line"/>
			<point x="1109" y="228"/>
			<point x="1063" y="345"/>
			<point x="1062" y="469" type="curve" smooth="yes"/>
			<point x="1061" y="617"/>
			<point x="1110" y="739"/>
			<point x="1192" y="830" type="curve" smooth="yes"/>
			<point x="1309" y="961"/>
			<point x="1492" y="1024"/>
			<point x="1675" y="1024" type="curve" smooth="yes"/>
			<point x="1901" y="1024"/>
			<point x="2128" y="925"/>
			<point x="2232" y="721" type="curve" smooth="yes"/>
			<point x="2276" y="634"/>
			<point x="2293" y="540"/>
			<point x="2292" y="444" type="curve" smooth="yes"/>
			<point x="2290" y="348"/>
			<point x="2269" y="249"/>
			<point x="2218" y="167" type="curve" smooth="yes"/>
			<point x="2148" y="54"/>
			<point x="2031" y="-1"/>
			<point x="1898" y="0" type="curve" smooth="yes"/>
			<point x="1773" y="1"/>
			<point x="1654" y="49"/>
			<point x="1584" y="153" type="curve" smooth="yes"/>
			<point x="1538" y="220"/>
			<point x="1517" y="302"/>
			<point x="1517" y="382" type="curve" smooth="yes"/>
			<point x="1517" y="480"/>
			<point x="1549" y="580"/>
			<point x="1609" y="658" type="curve" smooth="yes"/>
			<point x="1685" y="756"/>
			<point x="1798" y="813"/>
			<point x="1920" y="834" type="curve"/>
			<point x="1849" y="891"/>
			<point x="1766" y="914"/>
			<point x="1675" y="913" type="curve" smooth="yes"/>
			<point x="1524" y="912"/>
			<point x="1416" y="847"/>
			<point x="1346" y="746" type="curve" smooth="yes"/>
			<point x="1293" y="671"/>
			<point x="1265" y="575"/>
			<point x="1265" y="471" type="curve" smooth="yes"/>
			<point x="1265" y="327"/>
			<point x="1331" y="196"/>
			<point x="1453" y="115" type="curve" smooth="yes"/>
			<point x="1480" y="98"/>
			<point x="1486" y="71"/>
			<point x="1461" y="49" type="curve" smooth="yes"/>
			<point x="1440" y="31"/>
			<point x="1403" y="24"/>
			<point x="1375" y="24" type="curve" smooth="yes"/>
			<point x="122" y="24" type="line" smooth="yes"/>
			<point x="89" y="24"/>
			<point x="20" y="38"/>
			<point x="20" y="79" type="curve" smooth="yes"/>
			<point x="20" y="121"/>
			<point x="89" y="135"/>
			<point x="122" y="135" type="curve" smooth="yes"/>
			<point x="524" y="135" type="line" smooth="yes"/>
			<point x="675" y="135"/>
			<point x="781" y="271"/>
			<point x="781" y="411" type="curve" smooth="yes"/>
			<point x="780" y="508"/>
			<point x="722" y="602"/>
			<point x="615" y="604" type="curve" smooth="yes"/>
			<point x="526" y="606"/>
			<point x="446" y="533"/>
			<point x="445" y="445" type="curve"/>
			<point x="445" y="397"/>
			<point x="469" y="356"/>
			<point x="506" y="326" type="curve" smooth="yes"/>
			<point x="519" y="316"/>
			<point x="524" y="305"/>
			<point x="524" y="295" type="curve" smooth="yes"/>
			<point x="524" y="275"/>
			<point x="503" y="258"/>
			<point x="479" y="249" type="curve" smooth="yes"/>
			<point x="462" y="242"/>
			<point x="443" y="239"/>
			<point x="424" y="239" type="curve" smooth="yes"/>
			<point x="390" y="238"/>
			<point x="355" y="249"/>
			<point x="330" y="271" type="curve" smooth="yes"/>
			<point x="278" y="316"/>
			<point x="243" y="376"/>
			<point x="243" y="445" type="curve" smooth="yes"/>
			<point x="242" y="628"/>
			<point x="450" y="715"/>
			<point x="611" y="715" type="curve" smooth="yes"/>
			<point x="803" y="715"/>
			<point x="983" y="616"/>
			<point x="983" y="409" type="curve" smooth="yes"/>
			<point x="983" y="303"/>
			<point x="935" y="204"/>
			<point x="853" y="135" type="curve"/>
		</contour>
	</outline>
</glyph>
<glyph name="ch3" format="2">
	<unicode hex="0D1C"/>
	<advance height="2048" width="1708"/>
	<outline>
		<contour>
			<point x="1044" y="189" type="curve"/>
			<point x="970" y="130"/>
			<point x="891" y="82"/>
			<point x="798" y="43" type="curve" smooth="yes"/>
			<point x="701" y="1"/>
			<point x="597" y="-23"/>
			<point x="482" y="-24" type="curve" smooth="yes"/>
			<point x="415" y="-25"/>
			<point x="350" y="-18"/>
			<point x="296" y="-5" type="curve" smooth="yes"/>
			<point x="192" y="21"/>
			<point x="107" y="80"/>
			<point x="103" y="196" type="curve" smooth="yes"/>
			<point x="99" y="309"/>
			<point x="167" y="360"/>
			<point x="268" y="386" type="curve" smooth="yes"/>
			<point x="381" y="416"/>
			<point x="533" y="411"/>
			<point x="705" y="405" type="curve" smooth="yes"/>
			<point x="891" y="399"/>
			<point x="1102" y="393"/>
			<point x="1234" y="432" type="curve" smooth="yes"/>
			<point x="1297" y="450"/>
			<point x="1350" y="481"/>
			<point x="1387" y="526" type="curve" smooth="yes"/>
			<point x="1424" y="571"/>
			<point x="1445" y="626"/>
			<point x="1446" y="685" type="curve" smooth="yes"/>
			<point x="1446" y="744"/>
			<point x="1426" y="808"/>
			<point x="1380" y="850" type="curve" smooth="yes"/>
			<point x="1336" y="890"/>
			<point x="1278" y="907"/>
			<point x="1219" y="908" type="curve" smooth="yes"/>
			<point x="1066" y="911"/>
			<point x="992" y="805"/>
			<point x="992" y="694" type="curve" smooth="yes"/>
			<point x="992" y="504" type="line" smooth="yes"/>
			<point x="992" y="479"/>
			<point x="955" y="459"/>
			<point x="910" y="459" type="curve" smooth="yes"/>
			<point x="866" y="459"/>
			<point x="830" y="480"/>
			<point x="830" y="505" type="curve" smooth="yes"/>
			<point x="830" y="694" type="line" smooth="yes"/>
			<point x="830" y="786"/>
			<point x="784" y="843"/>
			<point x="717" y="876" type="curve" smooth="yes"/>
			<point x="673" y="898"/>
			<point x="609" y="907"/>
			<point x="549" y="909" type="curve" smooth="yes"/>
			<point x="470" y="912"/>
			<point x="344" y="903"/>
			<point x="289" y="837" type="curve"/>
			<point x="309" y="845"/>
			<point x="332" y="850"/>
			<point x="355" y="851" type="curve" smooth="yes"/>
			<point x="469" y="858"/>
			<point x="599" y="785"/>
			<point x="599" y="655" type="curve" smooth="yes"/>
			<point x="599" y="523"/>
			<point x="471" y="459"/>
			<point x="357" y="459" type="curve" smooth="yes"/>
			<point x="280" y="459"/>
			<point x="212" y="479"/>
			<point x="166" y="520" type="curve" smooth="yes"/>
			<point x="125" y="557"/>
			<point x="100" y="611"/>
			<point x="100" y="684" type="curve" smooth="yes"/>
			<point x="100" y="788"/>
			<point x="142" y="860"/>
			<point x="207" y="909" type="curve" smooth="yes"/>
			<point x="297" y="976"/>
			<point x="429" y="999"/>
			<point x="549" y="1000" type="curve" smooth="yes"/>
			<point x="670" y="1001"/>
			<point x="822" y="985"/>
			<point x="911" y="893" type="curve"/>
			<point x="989" y="972"/>
			<point x="1112" y="1000"/>
			<point x="1219" y="999" type="curve" smooth="yes"/>
			<point x="1329" y="999"/>
			<point x="1441" y="968"/>
			<point x="1518" y="897" type="curve" smooth="yes"/>
			<point x="1581" y="840"/>
			<point x="1609" y="763"/>
			<point x="1608" y="685" type="curve" smooth="yes"/>
			<point x="1607" y="615"/>
			<point x="1581" y="545"/>
			<point x="1534" y="487" type="curve" smooth="yes"/>
			<point x="1510" y="458"/>
			<point x="1481" y="433"/>
			<point x="1448" y="412" type="curve"/>
			<point x="1536" y="378"/>
			<point x="1607" y="309"/>
			<point x="1608" y="206" type="curve" smooth="yes"/>
			<point x="1609" y="58"/>
			<point x="1464" y="-23"/>
			<point x="1321" y="-24" type="curve" smooth="yes"/>
			<point x="1187" y="-26"/>
			<point x="1056" y="42"/>
		</contour>
		<contour>
			<point x="1191" y="206" type="curve"/>
			<point x="1190" y="112"/>
			<point x="1256" y="65"/>
			<point x="1321" y="67" type="curve" smooth="yes"/>
			<point x="1383" y="69"/>
			<point x="1445" y="116"/>
			<point x="1445" y="206" type="curve" smooth="yes"/>
			<point x="1446" y="295"/>
			<point x="1384" y="343"/>
			<point x="1321" y="343" type="curve" smooth="yes"/>
			<point x="1256" y="343"/>
			<point x="1191" y="300"/>
		</contour>
		<contour>
			<point x="254" y="655" type="curve" smooth="yes"/>
			<point x="254" y="585"/>
			<point x="307" y="550"/>
			<point x="359" y="550" type="curve" smooth="yes"/>
			<point x="410" y="550"/>
			<point x="460" y="587"/>
			<point x="460" y="655" type="curve" smooth="yes"/>
			<point x="460" y="725"/>
			<point x="409" y="760"/>
			<point x="357" y="760" type="curve" smooth="yes"/>
			<point x="306" y="760"/>
			<point x="254" y="725"/>
		</contour>
		<contour>
			<point x="1032" y="311" type="curve"/>
			<point x="928" y="308"/>
			<point x="809" y="311"/>
			<point x="705" y="314" type="curve" smooth="yes"/>
			<point x="542" y="320"/>
			<point x="398" y="325"/>
			<point x="329" y="299" type="curve" smooth="yes"/>
			<point x="287" y="284"/>
			<point x="261" y="240"/>
			<point x="260" y="196" type="curve" smooth="yes"/>
			<point x="258" y="129"/>
			<point x="307" y="91"/>
			<point x="368" y="78" type="curve" smooth="yes"/>
			<point x="408" y="70"/>
			<point x="447" y="66"/>
			<point x="484" y="65" type="curve" smooth="yes"/>
			<point x="577" y="64"/>
			<point x="661" y="86"/>
			<point x="739" y="123" type="curve" smooth="yes"/>
			<point x="830" y="167"/>
			<point x="948" y="233"/>
		</contour>
	</outline>
</glyph>
<glyph name="ch4" format="2">
	<unicode hex="0D1D"/>
	<advance height="2048" width="2964"/>
	<outline>
		<contour>
			<point x="1380" y="475" type="curve" smooth="yes"/>
			<point x="1380" y="558"/>
			<point x="1381" y="648"/>
			<point x="1351" y="726" type="curve" smooth="yes"/>
			<point x="1309" y="838"/>
			<point x="1219" y="889"/>
			<point x="1100" y="889" type="curve" smooth="yes"/>
			<point x="1076" y="889"/>
			<point x="1053" y="887"/>
			<point x="1030" y="883" type="curve"/>
			<point x="1182" y="771"/>
			<point x="1259" y="589"/>
			<point x="1259" y="405" type="curve" smooth="yes"/>
			<point x="1259" y="321"/>
			<point x="1242" y="231"/>
			<point x="1201" y="157" type="curve" smooth="yes"/>
			<point x="1133" y="35"/>
			<point x="1012" y="-22"/>
			<point x="873" y="-22" type="curve" smooth="yes"/>
			<point x="733" y="-22"/>
			<point x="613" y="35"/>
			<point x="544" y="157" type="curve" smooth="yes"/>
			<point x="503" y="232"/>
			<point x="485" y="321"/>
			<point x="485" y="405" type="curve" smooth="yes"/>
			<point x="485" y="589"/>
			<point x="563" y="771"/>
			<point x="714" y="883" type="curve"/>
			<point x="692" y="887"/>
			<point x="669" y="889"/>
			<point x="646" y="889" type="curve" smooth="yes"/>
			<point x="517" y="890"/>
			<point x="402" y="799"/>
			<point x="344" y="691" type="curve" smooth="yes"/>
			<point x="302" y="612"/>
			<point x="282" y="517"/>
			<point x="282" y="428" type="curve" smooth="yes"/>
			<point x="282" y="299"/>
			<point x="327" y="137"/>
			<point x="452" y="73" type="curve" smooth="yes"/>
			<point x="473" y="62"/>
			<point x="485" y="47"/>
			<point x="485" y="32" type="curve" smooth="yes"/>
			<point x="485" y="19"/>
			<point x="476" y="5"/>
			<point x="458" y="-6" type="curve" smooth="yes"/>
			<point x="436" y="-18"/>
			<point x="412" y="-24"/>
			<point x="388" y="-24" type="curve" smooth="yes"/>
			<point x="354" y="-24"/>
			<point x="320" y="-13"/>
			<point x="291" y="4" type="curve" smooth="yes"/>
			<point x="141" y="94"/>
			<point x="80" y="263"/>
			<point x="80" y="428" type="curve" smooth="yes"/>
			<point x="80" y="528"/>
			<point x="102" y="633"/>
			<point x="150" y="722" type="curve" smooth="yes"/>
			<point x="246" y="902"/>
			<point x="442" y="1000"/>
			<point x="646" y="1000" type="curve" smooth="yes"/>
			<point x="723" y="1000"/>
			<point x="800" y="989"/>
			<point x="873" y="965" type="curve"/>
			<point x="946" y="990"/>
			<point x="1023" y="1000"/>
			<point x="1100" y="1000" type="curve" smooth="yes"/>
			<point x="1278" y="999"/>
			<point x="1450" y="948"/>
			<point x="1536" y="782" type="curve" smooth="yes"/>
			<point x="1583" y="689"/>
			<point x="1582" y="577"/>
			<point x="1582" y="475" type="curve" smooth="yes"/>
			<point x="1582" y="392"/>
			<point x="1585" y="306"/>
			<point x="1614" y="226" type="curve" smooth="yes"/>
			<point x="1628" y="188"/>
			<point x="1652" y="151"/>
			<point x="1684" y="124" type="curve" smooth="yes"/>
			<point x="1713" y="100"/>
			<point x="1744" y="87"/>
			<point x="1783" y="87" type="curve" smooth="yes"/>
			<point x="1923" y="87"/>
			<point x="1967" y="227"/>
			<point x="1967" y="341" type="curve" smooth="yes"/>
			<point x="1967" y="944" type="line" smooth="yes"/>
			<point x="1967" y="986"/>
			<point x="2036" y="1000"/>
			<point x="2068" y="1000" type="curve" smooth="yes"/>
			<point x="2101" y="1000"/>
			<point x="2170" y="986"/>
			<point x="2170" y="944" type="curve" smooth="yes"/>
			<point x="2170" y="341" type="line" smooth="yes"/>
			<point x="2170" y="208"/>
			<point x="2231" y="87"/>
			<point x="2383" y="87" type="curve" smooth="yes"/>
			<point x="2438" y="87"/>
			<point x="2490" y="107"/>
			<point x="2534" y="139" type="curve" smooth="yes"/>
			<point x="2584" y="176"/>
			<point x="2623" y="229"/>
			<point x="2647" y="288" type="curve" smooth="yes"/>
			<point x="2673" y="353"/>
			<point x="2683" y="426"/>
			<point x="2682" y="496" type="curve" smooth="yes"/>
			<point x="2679" y="644"/>
			<point x="2618" y="838"/>
			<point x="2467" y="900" type="curve" smooth="yes"/>
			<point x="2443" y="910"/>
			<point x="2427" y="927"/>
			<point x="2426" y="945" type="curve"/>
			<point x="2426" y="956"/>
			<point x="2432" y="967"/>
			<point x="2447" y="978" type="curve" smooth="yes"/>
			<point x="2468" y="993"/>
			<point x="2497" y="1000"/>
			<point x="2525" y="1000" type="curve" smooth="yes"/>
			<point x="2549" y="1000"/>
			<point x="2574" y="995"/>
			<point x="2594" y="987" type="curve" smooth="yes"/>
			<point x="2792" y="901"/>
			<point x="2881" y="699"/>
			<point x="2884" y="496" type="curve" smooth="yes"/>
			<point x="2885" y="408"/>
			<point x="2871" y="318"/>
			<point x="2832" y="238" type="curve" smooth="yes"/>
			<point x="2793" y="155"/>
			<point x="2731" y="92"/>
			<point x="2657" y="48" type="curve" smooth="yes"/>
			<point x="2577" y="0"/>
			<point x="2482" y="-24"/>
			<point x="2383" y="-24" type="curve" smooth="yes"/>
			<point x="2272" y="-24"/>
			<point x="2156" y="2"/>
			<point x="2073" y="77" type="curve"/>
			<point x="1998" y="6"/>
			<point x="1887" y="-22"/>
			<point x="1785" y="-24" type="curve" smooth="yes"/>
			<point x="1621" y="-27"/>
			<point x="1472" y="48"/>
			<point x="1415" y="205" type="curve" smooth="yes"/>
			<point x="1383" y="291"/>
			<point x="1380" y="384"/>
		</contour>
		<contour>
			<point x="873" y="814" type="curve"/>
			<point x="750" y="719"/>
			<point x="688" y="556"/>
			<point x="688" y="405" type="curve" smooth="yes"/>
			<point x="688" y="332"/>
			<point x="702" y="255"/>
			<point x="738" y="190" type="curve" smooth="yes"/>
			<point x="765" y="142"/>
			<point x="813" y="88"/>
			<point x="873" y="88" type="curve" smooth="yes"/>
			<point x="934" y="88"/>
			<point x="980" y="141"/>
			<point x="1007" y="189" type="curve" smooth="yes"/>
			<point x="1043" y="253"/>
			<point x="1057" y="333"/>
			<point x="1057" y="405" type="curve" smooth="yes"/>
			<point x="1057" y="556"/>
			<point x="997" y="719"/>
		</contour>
	</outline>
</glyph>
<glyph name="nj" format="2">
	<unicode hex="0D1E"/>
	<advance height="2048" width="2501"/>
	<outline>
		<contour>
			<point x="100" y="460" type="curve" smooth="yes"/>
			<point x="100" y="562"/>
			<point x="121" y="655"/>
			<point x="160" y="733" type="curve" smooth="yes"/>
			<point x="244" y="899"/>
			<point x="407" y="1002"/>
			<point x="628" y="1000" type="curve" smooth="yes"/>
			<point x="769" y="999"/>
			<point x="929" y="964"/>
			<point x="1021" y="851" type="curve"/>
			<point x="1108" y="956"/>
			<point x="1254" y="1000"/>
			<point x="1401" y="1000" type="curve" smooth="yes"/>
			<point x="1486" y="1000"/>
			<point x="1561" y="986"/>
			<point x="1628" y="962" type="curve"/>
			<point x="1694" y="986"/>
			<point x="1770" y="1000"/>
			<point x="1855" y="1000" type="curve" smooth="yes"/>
			<point x="2052" y="1000"/>
			<point x="2239" y="902"/>
			<point x="2332" y="724" type="curve" smooth="yes"/>
			<point x="2377" y="638"/>
			<point x="2401" y="532"/>
			<point x="2401" y="427" type="curve" smooth="yes"/>
			<point x="2401" y="261"/>
			<point x="2341" y="89"/>
			<point x="2193" y="0" type="curve" smooth="yes"/>
			<point x="2152" y="-24"/>
			<point x="2101" y="-35"/>
			<point x="2058" y="-9" type="curve" smooth="yes"/>
			<point x="2027" y="10"/>
			<point x="2029" y="38"/>
			<point x="2062" y="55" type="curve" smooth="yes"/>
			<point x="2192" y="123"/>
			<point x="2238" y="290"/>
			<point x="2238" y="427" type="curve" smooth="yes"/>
			<point x="2239" y="523"/>
			<point x="2217" y="620"/>
			<point x="2176" y="699" type="curve" smooth="yes"/>
			<point x="2114" y="817"/>
			<point x="1992" y="909"/>
			<point x="1855" y="909" type="curve" smooth="yes"/>
			<point x="1819" y="909"/>
			<point x="1786" y="905"/>
			<point x="1754" y="897" type="curve"/>
			<point x="1914" y="785"/>
			<point x="1995" y="595"/>
			<point x="1996" y="404" type="curve" smooth="yes"/>
			<point x="1996" y="312"/>
			<point x="1976" y="224"/>
			<point x="1937" y="153" type="curve" smooth="yes"/>
			<point x="1872" y="35"/>
			<point x="1760" y="-22"/>
			<point x="1628" y="-22" type="curve" smooth="yes"/>
			<point x="1496" y="-22"/>
			<point x="1384" y="35"/>
			<point x="1319" y="153" type="curve" smooth="yes"/>
			<point x="1281" y="223"/>
			<point x="1262" y="313"/>
			<point x="1262" y="404" type="curve" smooth="yes"/>
			<point x="1261" y="595"/>
			<point x="1343" y="785"/>
			<point x="1503" y="897" type="curve"/>
			<point x="1471" y="905"/>
			<point x="1437" y="909"/>
			<point x="1401" y="909" type="curve" smooth="yes"/>
			<point x="1210" y="909"/>
			<point x="1105" y="798"/>
			<point x="1105" y="606" type="curve" smooth="yes"/>
			<point x="1105" y="22" type="line" smooth="yes"/>
			<point x="1105" y="-3"/>
			<point x="1069" y="-23"/>
			<point x="1024" y="-23" type="curve" smooth="yes"/>
			<point x="979" y="-23"/>
			<point x="943" y="-3"/>
			<point x="943" y="22" type="curve" smooth="yes"/>
			<point x="943" y="606" type="line" smooth="yes"/>
			<point x="943" y="802"/>
			<point x="817" y="909"/>
			<point x="628" y="909" type="curve" smooth="yes"/>
			<point x="482" y="909"/>
			<point x="370" y="820"/>
			<point x="311" y="700" type="curve" smooth="yes"/>
			<point x="279" y="636"/>
			<point x="262" y="563"/>
			<point x="261" y="490" type="curve"/>
			<point x="313" y="565"/>
			<point x="391" y="606"/>
			<point x="480" y="609" type="curve" smooth="yes"/>
			<point x="578" y="612"/>
			<point x="671" y="575"/>
			<point x="731" y="512" type="curve" smooth="yes"/>
			<point x="784" y="455"/>
			<point x="812" y="379"/>
			<point x="809" y="290" type="curve" smooth="yes"/>
			<point x="807" y="201"/>
			<point x="773" y="112"/>
			<point x="704" y="55" type="curve" smooth="yes"/>
			<point x="647" y="7"/>
			<point x="563" y="-21"/>
			<point x="480" y="-23" type="curve" smooth="yes"/>
			<point x="396" y="-24"/>
			<point x="325" y="-2"/>
			<point x="259" y="52" type="curve" smooth="yes"/>
			<point x="148" y="144"/>
			<point x="100" y="305"/>
		</contour>
		<contour>
			<point x="1628" y="839" type="curve"/>
			<point x="1491" y="743"/>
			<point x="1424" y="567"/>
			<point x="1424" y="404" type="curve" smooth="yes"/>
			<point x="1424" y="321"/>
			<point x="1441" y="241"/>
			<point x="1475" y="179" type="curve" smooth="yes"/>
			<point x="1506" y="121"/>
			<point x="1558" y="68"/>
			<point x="1628" y="68" type="curve" smooth="yes"/>
			<point x="1698" y="69"/>
			<point x="1750" y="122"/>
			<point x="1782" y="180" type="curve" smooth="yes"/>
			<point x="1816" y="242"/>
			<point x="1833" y="321"/>
			<point x="1833" y="404" type="curve" smooth="yes"/>
			<point x="1833" y="567"/>
			<point x="1764" y="744"/>
		</contour>
		<contour>
			<point x="306" y="290" type="curve" smooth="yes"/>
			<point x="319" y="144"/>
			<point x="391" y="68"/>
			<point x="480" y="68" type="curve" smooth="yes"/>
			<point x="565" y="68"/>
			<point x="654" y="142"/>
			<point x="654" y="290" type="curve" smooth="yes"/>
			<point x="655" y="439"/>
			<point x="568" y="516"/>
			<point x="480" y="513" type="curve" smooth="yes"/>
			<point x="389" y="509"/>
			<point x="293" y="427"/>
		</contour>
	</outline>
</glyph>
<glyph name="t1" format="2">
	<unicode hex="0D1F"/>
	<advance height="2048" width="1191"/>
	<outline>
		<contour>
			<point x="1098" y="830" type="curve"/>
			<point x="1107" y="820"/>
			<point x="1111" y="812"/>
			<point x="1111" y="803" type="curve" smooth="yes"/>
			<point x="1111" y="780"/>
			<point x="1083" y="762"/>
			<point x="1058" y="754" type="curve" smooth="yes"/>
			<point x="1044" y="750"/>
			<point x="1027" y="748"/>
			<point x="1009" y="748" type="curve" smooth="yes"/>
			<point x="976" y="747"/>
			<point x="941" y="756"/>
			<point x="920" y="776" type="curve" smooth="yes"/>
			<point x="837" y="859"/>
			<point x="725" y="890"/>
			<point x="609" y="889" type="curve" smooth="yes"/>
			<point x="529" y="889"/>
			<point x="431" y="862"/>
			<point x="371" y="807" type="curve" smooth="yes"/>
			<point x="327" y="768"/>
			<point x="306" y="719"/>
			<point x="312" y="662" type="curve" smooth="yes"/>
			<point x="316" y="609"/>
			<point x="360" y="589"/>
			<point x="407" y="581" type="curve" smooth="yes"/>
			<point x="474" y="569"/>
			<point x="541" y="577"/>
			<point x="609" y="578" type="curve" smooth="yes"/>
			<point x="713" y="580"/>
			<point x="831" y="581"/>
			<point x="931" y="548" type="curve" smooth="yes"/>
			<point x="1049" y="510"/>
			<point x="1109" y="432"/>
			<point x="1111" y="310" type="curve" smooth="yes"/>
			<point x="1113" y="201"/>
			<point x="1064" y="117"/>
			<point x="970" y="60" type="curve" smooth="yes"/>
			<point x="867" y="-2"/>
			<point x="728" y="-23"/>
			<point x="609" y="-24" type="curve" smooth="yes"/>
			<point x="438" y="-25"/>
			<point x="216" y="27"/>
			<point x="93" y="151" type="curve" smooth="yes"/>
			<point x="84" y="160"/>
			<point x="80" y="169"/>
			<point x="80" y="177" type="curve" smooth="yes"/>
			<point x="80" y="200"/>
			<point x="109" y="219"/>
			<point x="133" y="226" type="curve" smooth="yes"/>
			<point x="147" y="230"/>
			<point x="164" y="233"/>
			<point x="182" y="233" type="curve" smooth="yes"/>
			<point x="215" y="233"/>
			<point x="250" y="224"/>
			<point x="270" y="204" type="curve" smooth="yes"/>
			<point x="349" y="125"/>
			<point x="498" y="85"/>
			<point x="609" y="87" type="curve" smooth="yes"/>
			<point x="681" y="88"/>
			<point x="767" y="106"/>
			<point x="828" y="146" type="curve" smooth="yes"/>
			<point x="883" y="184"/>
			<point x="912" y="237"/>
			<point x="907" y="303" type="curve" smooth="yes"/>
			<point x="902" y="364"/>
			<point x="859" y="386"/>
			<point x="804" y="395" type="curve" smooth="yes"/>
			<point x="739" y="406"/>
			<point x="671" y="398"/>
			<point x="606" y="397" type="curve" smooth="yes"/>
			<point x="501" y="396"/>
			<point x="374" y="394"/>
			<point x="273" y="432" type="curve" smooth="yes"/>
			<point x="166" y="473"/>
			<point x="112" y="557"/>
			<point x="107" y="647" type="curve" smooth="yes"/>
			<point x="102" y="743"/>
			<point x="152" y="845"/>
			<point x="252" y="908" type="curve" smooth="yes"/>
			<point x="353" y="970"/>
			<point x="490" y="999"/>
			<point x="609" y="1000" type="curve" smooth="yes"/>
			<point x="784" y="1001"/>
			<point x="972" y="955"/>
		</contour>
	</outline>
</glyph>
<glyph name="t2" format="2">
	<unicode hex="0D20"/>
	<advance height="2048" width="1301"/>
	<outline>
		<contour>
			<point x="1201" y="485" type="curve" smooth="yes"/>
			<point x="1201" y="145"/>
			<point x="929" y="-24"/>
			<point x="654" y="-24" type="curve" smooth="yes"/>
			<point x="378" y="-23"/>
			<point x="100" y="143"/>
			<point x="100" y="485" type="curve" smooth="yes"/>
			<point x="100" y="827"/>
			<point x="378" y="1002"/>
			<point x="654" y="1000" type="curve" smooth="yes"/>
			<point x="929" y="997"/>
			<point x="1201" y="825"/>
		</contour>
		<contour>
			<point x="263" y="485" type="curve" smooth="yes"/>
			<point x="263" y="206"/>
			<point x="460" y="67"/>
			<point x="654" y="68" type="curve" smooth="yes"/>
			<point x="847" y="68"/>
			<point x="1038" y="208"/>
			<point x="1038" y="485" type="curve" smooth="yes"/>
			<point x="1038" y="762"/>
			<point x="847" y="908"/>
			<point x="654" y="909" type="curve" smooth="yes"/>
			<point x="460" y="910"/>
			<point x="263" y="764"/>
		</contour>
	</outline>
</glyph>
<glyph name="th3" format="2">
	<unicode hex="0D26"/>
	<advance height="2048" width="1219"/>
	<outline>
		<contour>
			<point x="558" y="24" type="curve" smooth="yes"/>
			<point x="535" y="34"/>
			<point x="520" y="50"/>
			<point x="520" y="67" type="curve" smooth="yes"/>
			<point x="520" y="79"/>
			<point x="527" y="91"/>
			<point x="543" y="102" type="curve" smooth="yes"/>
			<point x="564" y="116"/>
			<point x="593" y="122"/>
			<point x="621" y="122" type="curve" smooth="yes"/>
			<point x="644" y="122"/>
			<point x="667" y="118"/>
			<point x="686" y="110" type="curve" smooth="yes"/>
			<point x="718" y="96"/>
			<point x="759" y="88"/>
			<point x="794" y="88" type="curve" smooth="yes"/>
			<point x="835" y="89"/>
			<point x="874" y="106"/>
			<point x="900" y="137" type="curve" smooth="yes"/>
			<point x="928" y="171"/>
			<point x="937" y="216"/>
			<point x="937" y="259" type="curve" smooth="yes"/>
			<point x="935" y="326"/>
			<point x="891" y="380"/>
			<point x="826" y="400" type="curve" smooth="yes"/>
			<point x="763" y="421"/>
			<point x="702" y="412"/>
			<point x="638" y="412" type="curve" smooth="yes"/>
			<point x="605" y="412"/>
			<point x="536" y="426"/>
			<point x="536" y="468" type="curve" smooth="yes"/>
			<point x="536" y="510"/>
			<point x="605" y="524"/>
			<point x="637" y="524" type="curve" smooth="yes"/>
			<point x="699" y="524"/>
			<point x="770" y="520"/>
			<point x="828" y="539" type="curve" smooth="yes"/>
			<point x="893" y="561"/>
			<point x="924" y="612"/>
			<point x="923" y="679" type="curve" smooth="yes"/>
			<point x="922" y="737"/>
			<point x="903" y="791"/>
			<point x="857" y="830" type="curve" smooth="yes"/>
			<point x="804" y="874"/>
			<point x="726" y="889"/>
			<point x="659" y="889" type="curve" smooth="yes"/>
			<point x="562" y="888"/>
			<point x="477" y="861"/>
			<point x="408" y="794" type="curve" smooth="yes"/>
			<point x="327" y="715"/>
			<point x="294" y="601"/>
			<point x="285" y="492" type="curve" smooth="yes"/>
			<point x="272" y="343"/>
			<point x="312" y="171"/>
			<point x="412" y="55" type="curve" smooth="yes"/>
			<point x="419" y="47"/>
			<point x="422" y="39"/>
			<point x="422" y="31" type="curve" smooth="yes"/>
			<point x="422" y="7"/>
			<point x="389" y="-12"/>
			<point x="364" y="-19" type="curve"/>
			<point x="350" y="-22"/>
			<point x="335" y="-24"/>
			<point x="320" y="-24" type="curve" smooth="yes"/>
			<point x="282" y="-25"/>
			<point x="246" y="-13"/>
			<point x="221" y="17" type="curve" smooth="yes"/>
			<point x="113" y="147"/>
			<point x="69" y="328"/>
			<point x="82" y="493" type="curve" smooth="yes"/>
			<point x="95" y="647"/>
			<point x="152" y="792"/>
			<point x="281" y="889" type="curve" smooth="yes"/>
			<point x="389" y="970"/>
			<point x="525" y="999"/>
			<point x="659" y="1000" type="curve" smooth="yes"/>
			<point x="767" y="1001"/>
			<point x="890" y="979"/>
			<point x="983" y="922" type="curve" smooth="yes"/>
			<point x="1074" y="866"/>
			<point x="1124" y="784"/>
			<point x="1125" y="679" type="curve" smooth="yes"/>
			<point x="1126" y="587"/>
			<point x="1078" y="513"/>
			<point x="996" y="470" type="curve"/>
			<point x="1076" y="427"/>
			<point x="1137" y="351"/>
			<point x="1139" y="259" type="curve" smooth="yes"/>
			<point x="1140" y="170"/>
			<point x="1107" y="96"/>
			<point x="1032" y="44" type="curve" smooth="yes"/>
			<point x="964" y="-3"/>
			<point x="877" y="-21"/>
			<point x="795" y="-23" type="curve" smooth="yes"/>
			<point x="715" y="-24"/>
			<point x="631" y="-9"/>
		</contour>
	</outline>
</glyph>
<glyph name="th4" format="2">
	<unicode hex="0D27"/>
	<advance height="2048" width="1752"/>
	<outline>
		<contour>
			<point x="1286" y="918" type="curve" smooth="yes"/>
			<point x="1251" y="934"/>
			<point x="1244" y="962"/>
			<point x="1271" y="982" type="curve" smooth="yes"/>
			<point x="1303" y="1006"/>
			<point x="1354" y="1004"/>
			<point x="1389" y="989" type="curve" smooth="yes"/>
			<point x="1583" y="903"/>
			<point x="1669" y="698"/>
			<point x="1672" y="496" type="curve" smooth="yes"/>
			<point x="1673" y="405"/>
			<point x="1658" y="314"/>
			<point x="1621" y="235" type="curve" smooth="yes"/>
			<point x="1542" y="66"/>
			<point x="1373" y="-24"/>
			<point x="1190" y="-24" type="curve" smooth="yes"/>
			<point x="1058" y="-24"/>
			<point x="946" y="14"/>
			<point x="876" y="93" type="curve"/>
			<point x="806" y="14"/>
			<point x="694" y="-24"/>
			<point x="562" y="-24" type="curve" smooth="yes"/>
			<point x="379" y="-24"/>
			<point x="210" y="66"/>
			<point x="131" y="235" type="curve" smooth="yes"/>
			<point x="94" y="314"/>
			<point x="79" y="405"/>
			<point x="80" y="496" type="curve" smooth="yes"/>
			<point x="83" y="698"/>
			<point x="169" y="903"/>
			<point x="363" y="989" type="curve" smooth="yes"/>
			<point x="398" y="1004"/>
			<point x="449" y="1006"/>
			<point x="481" y="982" type="curve" smooth="yes"/>
			<point x="508" y="962"/>
			<point x="501" y="934"/>
			<point x="466" y="918" type="curve" smooth="yes"/>
			<point x="310" y="852"/>
			<point x="245" y="654"/>
			<point x="243" y="496" type="curve" smooth="yes"/>
			<point x="242" y="423"/>
			<point x="252" y="348"/>
			<point x="278" y="281" type="curve" smooth="yes"/>
			<point x="324" y="163"/>
			<point x="431" y="67"/>
			<point x="562" y="67" type="curve" smooth="yes"/>
			<point x="723" y="67"/>
			<point x="794" y="182"/>
			<point x="794" y="332" type="curve" smooth="yes"/>
			<point x="794" y="954" type="line" smooth="yes"/>
			<point x="794" y="979"/>
			<point x="831" y="1000"/>
			<point x="876" y="1000" type="curve" smooth="yes"/>
			<point x="921" y="1000"/>
			<point x="957" y="979"/>
			<point x="957" y="954" type="curve" smooth="yes"/>
			<point x="957" y="332" type="line" smooth="yes"/>
			<point x="957" y="182"/>
			<point x="1028" y="67"/>
			<point x="1190" y="67" type="curve" smooth="yes"/>
			<point x="1321" y="67"/>
			<point x="1428" y="163"/>
			<point x="1474" y="281" type="curve" smooth="yes"/>
			<point x="1500" y="348"/>
			<point x="1510" y="423"/>
			<point x="1509" y="496" type="curve" smooth="yes"/>
			<point x="1507" y="654"/>
			<point x="1442" y="852"/>
		</contour>
	</outline>
</glyph>
<glyph name="p1" format="2">
	<unicode hex="0D2A"/>
	<advance height="2048" width="1584"/>
	<outline>
		<contour>
			<point x="369" y="70" type="curve" smooth="yes"/>
			<point x="404" y="54"/>
			<point x="410" y="25"/>
			<point x="382" y="6" type="curve" smooth="yes"/>
			<point x="349" y="-17"/>
			<point x="297" y="-16"/>
			<point x="262" y="1" type="curve" smooth="yes"/>
			<point x="158" y="50"/>
			<point x="100" y="150"/>
			<point x="100" y="264" type="curve" smooth="yes"/>
			<point x="100" y="460"/>
			<point x="276" y="563"/>
			<point x="452" y="563" type="curve" smooth="yes"/>
			<point x="627" y="562"/>
			<point x="802" y="460"/>
			<point x="802" y="264" type="curve" smooth="yes"/>
			<point x="802" y="200"/>
			<point x="784" y="140"/>
			<point x="750" y="92" type="curve"/>
			<point x="1321" y="92" type="line"/>
			<point x="1321" y="955" type="line" smooth="yes"/>
			<point x="1321" y="980"/>
			<point x="1358" y="1000"/>
			<point x="1403" y="1000" type="curve" smooth="yes"/>
			<point x="1448" y="1000"/>
			<point x="1484" y="980"/>
			<point x="1484" y="955" type="curve" smooth="yes"/>
			<point x="1484" y="46" type="line" smooth="yes"/>
			<point x="1484" y="21"/>
			<point x="1448" y="1"/>
			<point x="1403" y="1" type="curve" smooth="yes"/>
			<point x="606" y="1" type="line" smooth="yes"/>
			<point x="561" y="1"/>
			<point x="525" y="21"/>
			<point x="525" y="46" type="curve" smooth="yes"/>
			<point x="525" y="60"/>
			<point x="536" y="72"/>
			<point x="548" y="78" type="curve"/>
			<point x="613" y="116"/>
			<point x="639" y="193"/>
			<point x="639" y="264" type="curve" smooth="yes"/>
			<point x="639" y="398"/>
			<point x="546" y="472"/>
			<point x="452" y="472" type="curve" smooth="yes"/>
			<point x="358" y="472"/>
			<point x="263" y="399"/>
			<point x="263" y="264" type="curve" smooth="yes"/>
			<point x="263" y="187"/>
			<point x="296" y="103"/>
		</contour>
	</outline>
</glyph>
<glyph name="p4" format="2">
	<unicode hex="0D2D"/>
	<advance height="2048" width="1259"/>
	<outline>
		<contour>
			<point x="534" y="32" type="curve" smooth="yes"/>
			<point x="510" y="42"/>
			<point x="494" y="59"/>
			<point x="495" y="77" type="curve" smooth="yes"/>
			<point x="496" y="88"/>
			<point x="502" y="100"/>
			<point x="517" y="110" type="curve" smooth="yes"/>
			<point x="539" y="125"/>
			<point x="572" y="132"/>
			<point x="603" y="131" type="curve" smooth="yes"/>
			<point x="623" y="130"/>
			<point x="643" y="126"/>
			<point x="659" y="119" type="curve" smooth="yes"/>
			<point x="710" y="97"/>
			<point x="778" y="93"/>
			<point x="834" y="93" type="curve" smooth="yes"/>
			<point x="906" y="93"/>
			<point x="981" y="133"/>
			<point x="981" y="212" type="curve" smooth="yes"/>
			<point x="980" y="247"/>
			<point x="962" y="273"/>
			<point x="928" y="284" type="curve" smooth="yes"/>
			<point x="877" y="300"/>
			<point x="811" y="271"/>
			<point x="730" y="271" type="curve" smooth="yes"/>
			<point x="680" y="271"/>
			<point x="633" y="282"/>
			<point x="594" y="304" type="curve" smooth="yes"/>
			<point x="533" y="338"/>
			<point x="492" y="397"/>
			<point x="489" y="480" type="curve" smooth="yes"/>
			<point x="487" y="554"/>
			<point x="515" y="622"/>
			<point x="582" y="662" type="curve" smooth="yes"/>
			<point x="624" y="687"/>
			<point x="668" y="694"/>
			<point x="713" y="694" type="curve" smooth="yes"/>
			<point x="776" y="693"/>
			<point x="840" y="676"/>
			<point x="903" y="667" type="curve" smooth="yes"/>
			<point x="945" y="662"/>
			<point x="973" y="669"/>
			<point x="980" y="714" type="curve" smooth="yes"/>
			<point x="999" y="849"/>
			<point x="782" y="897"/>
			<point x="681" y="893" type="curve" smooth="yes"/>
			<point x="414" y="883"/>
			<point x="285" y="678"/>
			<point x="283" y="435" type="curve" smooth="yes"/>
			<point x="281" y="300"/>
			<point x="325" y="164"/>
			<point x="412" y="59" type="curve" smooth="yes"/>
			<point x="419" y="51"/>
			<point x="422" y="43"/>
			<point x="422" y="36" type="curve" smooth="yes"/>
			<point x="422" y="11"/>
			<point x="387" y="-8"/>
			<point x="362" y="-15" type="curve" smooth="yes"/>
			<point x="349" y="-18"/>
			<point x="334" y="-20"/>
			<point x="320" y="-20" type="curve" smooth="yes"/>
			<point x="282" y="-20"/>
			<point x="245" y="-9"/>
			<point x="221" y="21" type="curve" smooth="yes"/>
			<point x="128" y="137"/>
			<point x="80" y="288"/>
			<point x="80" y="435" type="curve" smooth="yes"/>
			<point x="81" y="782"/>
			<point x="333" y="1004"/>
			<point x="682" y="1004" type="curve" smooth="yes"/>
			<point x="868" y="1004"/>
			<point x="1177" y="953"/>
			<point x="1170" y="713" type="curve" smooth="yes"/>
			<point x="1165" y="562"/>
			<point x="1018" y="530"/>
			<point x="892" y="548" type="curve" smooth="yes"/>
			<point x="844" y="554"/>
			<point x="775" y="575"/>
			<point x="731" y="564" type="curve" smooth="yes"/>
			<point x="692" y="555"/>
			<point x="673" y="517"/>
			<point x="675" y="480" type="curve" smooth="yes"/>
			<point x="676" y="446"/>
			<point x="696" y="411"/>
			<point x="732" y="400" type="curve" smooth="yes"/>
			<point x="800" y="381"/>
			<point x="895" y="416"/>
			<point x="972" y="412" type="curve" smooth="yes"/>
			<point x="1088" y="407"/>
			<point x="1178" y="330"/>
			<point x="1179" y="213" type="curve" smooth="yes"/>
			<point x="1180" y="45"/>
			<point x="999" y="-6"/>
			<point x="859" y="-17" type="curve" smooth="yes"/>
			<point x="754" y="-25"/>
			<point x="630" y="-10"/>
		</contour>
	</outline>
</glyph>
<glyph name="y1" format="2">
  <advance height="2048" width="1790.0"/>
  <unicode hex="0D2F"/>
  <outline>
    <contour>
      <point x="723.0" y="550.0" type="curve" smooth="yes"/>
      <point x="734.0" y="385.0"/>
      <point x="787.0" y="235.0"/>
      <point x="927.0" y="135.0" type="curve"/>
      <point x="1064.0" y="225.0"/>
      <point x="1136.0" y="390.0"/>
      <point x="1144.0" y="550.0" type="curve" smooth="yes"/>
      <point x="1156.0" y="792.0"/>
      <point x="1039.0" y="909.0"/>
      <point x="927.0" y="909.0" type="curve" smooth="yes"/>
      <point x="814.0" y="909.0"/>
      <point x="708.0" y="783.0"/>
    </contour>
    <contour>
      <point x="667.0" y="861.0" type="curve"/>
      <point x="725.0" y="953.0"/>
      <point x="821.0" y="1000.0"/>
      <point x="927.0" y="1000.0" type="curve" smooth="yes"/>
      <point x="1117.0" y="1000.0"/>
      <point x="1321.0" y="850.0"/>
      <point x="1306.0" y="550.0" type="curve" smooth="yes"/>
      <point x="1297.0" y="364.0"/>
      <point x="1213.0" y="184.0"/>
      <point x="1057.0" y="79.0" type="curve"/>
      <point x="1090.0" y="71.0"/>
      <point x="1124.0" y="67.0"/>
      <point x="1161.0" y="67.0" type="curve" smooth="yes"/>
      <point x="1294.0" y="68.0"/>
      <point x="1412.0" y="153.0"/>
      <point x="1476.0" y="266.0" type="curve" smooth="yes"/>
      <point x="1522.0" y="348.0"/>
      <point x="1547.0" y="450.0"/>
      <point x="1547.0" y="550.0" type="curve" smooth="yes"/>
      <point x="1548.0" y="685.0"/>
      <point x="1503.0" y="851.0"/>
      <point x="1377.0" y="922.0" type="curve" smooth="yes"/>
      <point x="1345.0" y="940.0"/>
      <point x="1346.0" y="969.0"/>
      <point x="1377.0" y="986.0" type="curve" smooth="yes"/>
      <point x="1420.0" y="1010.0"/>
      <point x="1471.0" y="1001.0"/>
      <point x="1510.0" y="975.0" type="curve" smooth="yes"/>
      <point x="1653.0" y="885.0"/>
      <point x="1711.0" y="714.0"/>
      <point x="1710.0" y="550.0" type="curve" smooth="yes"/>
      <point x="1709.0" y="441.0"/>
      <point x="1682.0" y="329.0"/>
      <point x="1631.0" y="238.0" type="curve" smooth="yes"/>
      <point x="1536.0" y="69.0"/>
      <point x="1353.0" y="-23.0"/>
      <point x="1161.0" y="-23.0" type="curve" smooth="yes"/>
      <point x="1074.0" y="-24.0"/>
      <point x="996.0" y="-10.0"/>
      <point x="927.0" y="14.0" type="curve"/>
      <point x="856.0" y="-11.0"/>
      <point x="774.0" y="-25.0"/>
      <point x="685.0" y="-24.0" type="curve" smooth="yes"/>
      <point x="503.0" y="-24.0"/>
      <point x="340.0" y="25.0"/>
      <point x="217.0" y="166.0" type="curve" smooth="yes"/>
      <point x="128.0" y="269.0"/>
      <point x="83.0" y="415.0"/>
      <point x="80.0" y="550.0" type="curve" smooth="yes"/>
      <point x="78.0" y="655.0"/>
      <point x="100.0" y="759.0"/>
      <point x="149.0" y="843.0" type="curve" smooth="yes"/>
      <point x="207.0" y="942.0"/>
      <point x="322.0" y="1000.0"/>
      <point x="432.0" y="1000.0" type="curve" smooth="yes"/>
      <point x="541.0" y="1000.0"/>
      <point x="620.0" y="957.0"/>
    </contour>
    <contour>
      <point x="685.0" y="67.0" type="curve" smooth="yes"/>
      <point x="726.0" y="67.0"/>
      <point x="765.0" y="71.0"/>
      <point x="800.0" y="80.0" type="curve"/>
      <point x="642.0" y="192.0"/>
      <point x="576.0" y="364.0"/>
      <point x="563.0" y="550.0" type="curve" smooth="yes"/>
      <point x="559.0" y="597.0"/>
      <point x="564.0" y="682.0"/>
      <point x="552.0" y="758.0" type="curve" smooth="yes"/>
      <point x="540.0" y="839.0"/>
      <point x="510.0" y="909.0"/>
      <point x="432.0" y="909.0" type="curve" smooth="yes"/>
      <point x="388.0" y="909.0"/>
      <point x="341.0" y="878.0"/>
      <point x="304.0" y="815.0" type="curve" smooth="yes"/>
      <point x="260.0" y="740.0"/>
      <point x="240.0" y="646.0"/>
      <point x="243.0" y="550.0" type="curve" smooth="yes"/>
      <point x="246.0" y="430.0"/>
      <point x="284.0" y="297.0"/>
      <point x="364.0" y="206.0" type="curve" smooth="yes"/>
      <point x="452.0" y="105.0"/>
      <point x="552.0" y="67.0"/>
    </contour>
  </outline>
</glyph>
<glyph name="rh" format="2">
	<unicode hex="0D31"/>
	<advance height="2048" width="1292"/>
	<outline>
		<contour>
			<point x="503" y="56" type="curve" smooth="yes"/>
			<point x="537" y="40"/>
			<point x="540" y="11"/>
			<point x="510" y="-8" type="curve" smooth="yes"/>
			<point x="475" y="-31"/>
			<point x="425" y="-27"/>
			<point x="389" y="-9" type="curve" smooth="yes"/>
			<point x="209" y="83"/>
			<point x="98" y="272"/>
			<point x="100" y="474" type="curve" smooth="yes"/>
			<point x="103" y="775"/>
			<point x="346" y="1000"/>
			<point x="646" y="1000" type="curve" smooth="yes"/>
			<point x="944" y="1000"/>
			<point x="1185" y="772"/>
			<point x="1192" y="474" type="curve" smooth="yes"/>
			<point x="1196" y="271"/>
			<point x="1087" y="86"/>
			<point x="906" y="-7" type="curve" smooth="yes"/>
			<point x="869" y="-27"/>
			<point x="819" y="-32"/>
			<point x="782" y="-8" type="curve" smooth="yes"/>
			<point x="752" y="11"/>
			<point x="755" y="39"/>
			<point x="789" y="56" type="curve" smooth="yes"/>
			<point x="955" y="138"/>
			<point x="1031" y="304"/>
			<point x="1028" y="474" type="curve" smooth="yes"/>
			<point x="1024" y="691"/>
			<point x="890" y="909"/>
			<point x="646" y="909" type="curve" smooth="yes"/>
			<point x="399" y="908"/>
			<point x="264" y="693"/>
			<point x="263" y="474" type="curve"/>
			<point x="263" y="307"/>
			<point x="340" y="137"/>
		</contour>
	</outline>
</glyph>
<glyph name="l3" format="2">
	<unicode hex="0D32"/>
	<advance height="2048" width="1497"/>
	<outline>
		<contour>
			<point x="1194" y="944" type="line" smooth="yes"/>
			<point x="1194" y="986"/>
			<point x="1263" y="1000"/>
			<point x="1296" y="1000" type="curve" smooth="yes"/>
			<point x="1328" y="1000"/>
			<point x="1397" y="986"/>
			<point x="1397" y="944" type="curve" smooth="yes"/>
			<point x="1397" y="55" type="line" smooth="yes"/>
			<point x="1397" y="13"/>
			<point x="1327" y="-1"/>
			<point x="1295" y="-1" type="curve" smooth="yes"/>
			<point x="201" y="-1" type="line" smooth="yes"/>
			<point x="167" y="-1"/>
			<point x="100" y="15"/>
			<point x="100" y="59" type="curve" smooth="yes"/>
			<point x="100" y="645" type="line" smooth="yes"/>
			<point x="100" y="753"/>
			<point x="149" y="836"/>
			<point x="222" y="894" type="curve" smooth="yes"/>
			<point x="315" y="968"/>
			<point x="443" y="1000"/>
			<point x="555" y="1000" type="curve" smooth="yes"/>
			<point x="667" y="1000"/>
			<point x="777" y="970"/>
			<point x="859" y="911" type="curve" smooth="yes"/>
			<point x="939" y="852"/>
			<point x="993" y="765"/>
			<point x="993" y="647" type="curve" smooth="yes"/>
			<point x="993" y="388" type="line" smooth="yes"/>
			<point x="993" y="369"/>
			<point x="979" y="356"/>
			<point x="960" y="347" type="curve" smooth="yes"/>
			<point x="938" y="337"/>
			<point x="909" y="333"/>
			<point x="892" y="333" type="curve" smooth="yes"/>
			<point x="303" y="333" type="line"/>
			<point x="303" y="111" type="line"/>
			<point x="1194" y="111" type="line"/>
		</contour>
		<contour>
			<point x="790" y="444" type="line"/>
			<point x="790" y="647" type="line" smooth="yes"/>
			<point x="790" y="720"/>
			<point x="764" y="781"/>
			<point x="721" y="824" type="curve" smooth="yes"/>
			<point x="679" y="865"/>
			<point x="621" y="889"/>
			<point x="554" y="889" type="curve" smooth="yes"/>
			<point x="488" y="889"/>
			<point x="424" y="866"/>
			<point x="376" y="821" type="curve" smooth="yes"/>
			<point x="331" y="778"/>
			<point x="303" y="718"/>
			<point x="303" y="645" type="curve" smooth="yes"/>
			<point x="303" y="444" type="line"/>
		</contour>
	</outline>
</glyph>
<glyph name="v1" format="2">
	<unicode hex="0D35"/>
	<advance height="2048" width="1732"/>
	<outline>
		<contour>
			<point x="1052" y="111" type="curve"/>
			<point x="1429" y="111" type="line"/>
			<point x="1429" y="944" type="line" smooth="yes"/>
			<point x="1429" y="986"/>
			<point x="1498" y="1000"/>
			<point x="1530" y="1000" type="curve" smooth="yes"/>
			<point x="1563" y="1000"/>
			<point x="1632" y="986"/>
			<point x="1632" y="944" type="curve" smooth="yes"/>
			<point x="1632" y="55" type="line" smooth="yes"/>
			<point x="1632" y="14"/>
			<point x="1563" y="0"/>
			<point x="1530" y="0" type="curve" smooth="yes"/>
			<point x="844" y="0" type="line" smooth="yes"/>
			<point x="812" y="0"/>
			<point x="739" y="14"/>
			<point x="741" y="56" type="curve"/>
			<point x="743" y="75"/>
			<point x="760" y="89"/>
			<point x="776" y="96" type="curve" smooth="yes"/>
			<point x="932" y="171"/>
			<point x="1012" y="322"/>
			<point x="1008" y="489" type="curve" smooth="yes"/>
			<point x="1004" y="696"/>
			<point x="873" y="890"/>
			<point x="646" y="890" type="curve" smooth="yes"/>
			<point x="417" y="889"/>
			<point x="284" y="700"/>
			<point x="283" y="489" type="curve"/>
			<point x="283" y="326"/>
			<point x="361" y="158"/>
			<point x="516" y="84" type="curve" smooth="yes"/>
			<point x="532" y="77"/>
			<point x="549" y="63"/>
			<point x="551" y="45" type="curve"/>
			<point x="552" y="28"/>
			<point x="539" y="15"/>
			<point x="525" y="7" type="curve" smooth="yes"/>
			<point x="504" y="-6"/>
			<point x="479" y="-12"/>
			<point x="453" y="-12" type="curve" smooth="yes"/>
			<point x="425" y="-12"/>
			<point x="398" y="-6"/>
			<point x="375" y="5" type="curve" smooth="yes"/>
			<point x="192" y="95"/>
			<point x="78" y="290"/>
			<point x="80" y="489" type="curve" smooth="yes"/>
			<point x="83" y="796"/>
			<point x="344" y="1000"/>
			<point x="646" y="1000" type="curve" smooth="yes"/>
			<point x="947" y="1000"/>
			<point x="1205" y="793"/>
			<point x="1212" y="489" type="curve" smooth="yes"/>
			<point x="1215" y="346"/>
			<point x="1158" y="210"/>
		</contour>
	</outline>
</glyph>
<glyph name="z1" format="2">
	<unicode hex="0D36"/>
	<advance height="2048" width="1918"/>
	<outline>
		<contour>
			<point x="1559" y="708" type="curve"/>
			<point x="1471" y="704"/>
			<point x="1394" y="660"/>
			<point x="1342" y="592" type="curve" smooth="yes"/>
			<point x="1290" y="525"/>
			<point x="1266" y="442"/>
			<point x="1266" y="359" type="curve" smooth="yes"/>
			<point x="1266" y="293"/>
			<point x="1282" y="224"/>
			<point x="1319" y="169" type="curve" smooth="yes"/>
			<point x="1347" y="127"/>
			<point x="1391" y="89"/>
			<point x="1445" y="88" type="curve" smooth="yes"/>
			<point x="1502" y="88"/>
			<point x="1545" y="136"/>
			<point x="1572" y="180" type="curve" smooth="yes"/>
			<point x="1616" y="251"/>
			<point x="1634" y="338"/>
			<point x="1635" y="420" type="curve" smooth="yes"/>
			<point x="1637" y="521"/>
			<point x="1615" y="622"/>
		</contour>
		<contour>
			<point x="1238" y="889" type="curve" smooth="yes"/>
			<point x="1126" y="889"/>
			<point x="1029" y="840"/>
			<point x="977" y="742" type="curve" smooth="yes"/>
			<point x="931" y="657"/>
			<point x="931" y="554"/>
			<point x="932" y="461" type="curve" smooth="yes"/>
			<point x="934" y="169"/>
			<point x="900" y="-27"/>
			<point x="546" y="-24" type="curve" smooth="yes"/>
			<point x="265" y="-21"/>
			<point x="90" y="193"/>
			<point x="80" y="456" type="curve" smooth="yes"/>
			<point x="72" y="682"/>
			<point x="190" y="905"/>
			<point x="412" y="988" type="curve" smooth="yes"/>
			<point x="431" y="995"/>
			<point x="454" y="1000"/>
			<point x="477" y="1000" type="curve" smooth="yes"/>
			<point x="508" y="1000"/>
			<point x="539" y="993"/>
			<point x="560" y="975" type="curve" smooth="yes"/>
			<point x="572" y="965"/>
			<point x="577" y="955"/>
			<point x="577" y="945" type="curve" smooth="yes"/>
			<point x="577" y="925"/>
			<point x="555" y="907"/>
			<point x="530" y="898" type="curve" smooth="yes"/>
			<point x="356" y="836"/>
			<point x="275" y="626"/>
			<point x="283" y="457" type="curve" smooth="yes"/>
			<point x="290" y="320"/>
			<point x="378" y="88"/>
			<point x="547" y="87" type="curve" smooth="yes"/>
			<point x="748" y="85"/>
			<point x="731" y="320"/>
			<point x="730" y="461" type="curve" smooth="yes"/>
			<point x="729" y="580"/>
			<point x="731" y="700"/>
			<point x="801" y="803" type="curve" smooth="yes"/>
			<point x="895" y="943"/>
			<point x="1073" y="999"/>
			<point x="1237" y="1000" type="curve" smooth="yes"/>
			<point x="1465" y="1001"/>
			<point x="1674" y="902"/>
			<point x="1778" y="698" type="curve" smooth="yes"/>
			<point x="1822" y="611"/>
			<point x="1839" y="517"/>
			<point x="1838" y="420" type="curve" smooth="yes"/>
			<point x="1837" y="325"/>
			<point x="1815" y="226"/>
			<point x="1764" y="144" type="curve" smooth="yes"/>
			<point x="1694" y="31"/>
			<point x="1577" y="-24"/>
			<point x="1444" y="-23" type="curve" smooth="yes"/>
			<point x="1319" y="-22"/>
			<point x="1201" y="26"/>
			<point x="1130" y="130" type="curve" smooth="yes"/>
			<point x="1084" y="197"/>
			<point x="1063" y="279"/>
			<point x="1063" y="359" type="curve" smooth="yes"/>
			<point x="1063" y="456"/>
			<point x="1095" y="556"/>
			<point x="1155" y="635" type="curve" smooth="yes"/>
			<point x="1231" y="733"/>
			<point x="1344" y="790"/>
			<point x="1466" y="811" type="curve"/>
			<point x="1398" y="865"/>
			<point x="1325" y="889"/>
		</contour>
	</outline>
</glyph>
<glyph name="sh" format="2">
	<unicode hex="0D37"/>
	<advance height="2048" width="1897"/>
	<outline>
		<contour>
			<point x="349" y="69" type="curve" smooth="yes"/>
			<point x="384" y="53"/>
			<point x="390" y="25"/>
			<point x="362" y="5" type="curve" smooth="yes"/>
			<point x="329" y="-17"/>
			<point x="278" y="-16"/>
			<point x="243" y="0" type="curve" smooth="yes"/>
			<point x="139" y="50"/>
			<point x="80" y="149"/>
			<point x="80" y="264" type="curve" smooth="yes"/>
			<point x="80" y="460"/>
			<point x="256" y="563"/>
			<point x="432" y="563" type="curve" smooth="yes"/>
			<point x="607" y="562"/>
			<point x="782" y="460"/>
			<point x="782" y="264" type="curve" smooth="yes"/>
			<point x="782" y="200"/>
			<point x="764" y="140"/>
			<point x="730" y="92" type="curve"/>
			<point x="1188" y="92" type="line"/>
			<point x="1188" y="362" type="line"/>
			<point x="1083" y="366"/>
			<point x="984" y="397"/>
			<point x="904" y="467" type="curve" smooth="yes"/>
			<point x="827" y="534"/>
			<point x="778" y="628"/>
			<point x="792" y="732" type="curve" smooth="yes"/>
			<point x="814" y="899"/>
			<point x="980" y="975"/>
			<point x="1136" y="951" type="curve" smooth="yes"/>
			<point x="1261" y="931"/>
			<point x="1352" y="850"/>
			<point x="1352" y="719" type="curve"/>
			<point x="1351" y="473" type="line"/>
			<point x="1500" y="547"/>
			<point x="1635" y="780"/>
			<point x="1634" y="955" type="curve" smooth="yes"/>
			<point x="1634" y="980"/>
			<point x="1671" y="1000"/>
			<point x="1716" y="1000" type="curve" smooth="yes"/>
			<point x="1761" y="1000"/>
			<point x="1797" y="980"/>
			<point x="1797" y="955" type="curve" smooth="yes"/>
			<point x="1797" y="46" type="line" smooth="yes"/>
			<point x="1797" y="21"/>
			<point x="1761" y="1"/>
			<point x="1716" y="1" type="curve" smooth="yes"/>
			<point x="586" y="1" type="line" smooth="yes"/>
			<point x="541" y="1"/>
			<point x="505" y="21"/>
			<point x="505" y="46" type="curve" smooth="yes"/>
			<point x="505" y="60"/>
			<point x="516" y="72"/>
			<point x="528" y="78" type="curve"/>
			<point x="593" y="116"/>
			<point x="619" y="193"/>
			<point x="619" y="264" type="curve" smooth="yes"/>
			<point x="619" y="398"/>
			<point x="526" y="472"/>
			<point x="432" y="472" type="curve" smooth="yes"/>
			<point x="338" y="472"/>
			<point x="243" y="399"/>
			<point x="243" y="264" type="curve" smooth="yes"/>
			<point x="243" y="187"/>
			<point x="276" y="103"/>
		</contour>
		<contour>
			<point x="1351" y="92" type="line"/>
			<point x="1634" y="92" type="line"/>
			<point x="1634" y="656" type="line"/>
			<point x="1579" y="545"/>
			<point x="1494" y="441"/>
			<point x="1351" y="381" type="curve"/>
		</contour>
		<contour>
			<point x="1189" y="453" type="curve"/>
			<point x="1189" y="719" type="line" smooth="yes"/>
			<point x="1189" y="780"/>
			<point x="1158" y="853"/>
			<point x="1092" y="863" type="curve" smooth="yes"/>
			<point x="1017" y="875"/>
			<point x="962" y="791"/>
			<point x="954" y="726" type="curve" smooth="yes"/>
			<point x="949" y="686"/>
			<point x="955" y="642"/>
			<point x="976" y="599" type="curve" smooth="yes"/>
			<point x="1015" y="518"/>
			<point x="1099" y="459"/>
		</contour>
	</outline>
</glyph>
<glyph name="h1" format="2">
  <advance height="2048" width="2065.0"/>
  <unicode hex="0D39"/>
  <outline>
    <contour>
      <point x="1582.0" y="67.0" type="curve" smooth="yes"/>
      <point x="1548.0" y="51.0"/>
      <point x="1545.0" y="22.0"/>
      <point x="1575.0" y="4.0" type="curve" smooth="yes"/>
      <point x="1610.0" y="-19.0"/>
      <point x="1660.0" y="-15.0"/>
      <point x="1696.0" y="3.0" type="curve" smooth="yes"/>
      <point x="1876.0" y="94.0"/>
      <point x="1987.0" y="281.0"/>
      <point x="1985.0" y="480.0" type="curve" smooth="yes"/>
      <point x="1982.0" y="778.0"/>
      <point x="1739.0" y="1000.0"/>
      <point x="1439.0" y="1000.0" type="curve" smooth="yes"/>
      <point x="1141.0" y="1000.0"/>
      <point x="899.0" y="789.0"/>
      <point x="893.0" y="494.0" type="curve" smooth="yes"/>
      <point x="890.0" y="339.0"/>
      <point x="954.0" y="191.0"/>
      <point x="1068.0" y="92.0" type="curve"/>
      <point x="730.0" y="92.0" type="line"/>
      <point x="764.0" y="140.0"/>
      <point x="782.0" y="200.0"/>
      <point x="782.0" y="264.0" type="curve" smooth="yes"/>
      <point x="782.0" y="460.0"/>
      <point x="607.0" y="562.0"/>
      <point x="432.0" y="563.0" type="curve" smooth="yes"/>
      <point x="256.0" y="563.0"/>
      <point x="80.0" y="460.0"/>
      <point x="80.0" y="264.0" type="curve" smooth="yes"/>
      <point x="80.0" y="149.0"/>
      <point x="139.0" y="49.0"/>
      <point x="243.0" y="0.0" type="curve" smooth="yes"/>
      <point x="278.0" y="-16.0"/>
      <point x="330.0" y="-18.0"/>
      <point x="362.0" y="5.0" type="curve" smooth="yes"/>
      <point x="390.0" y="25.0"/>
      <point x="385.0" y="53.0"/>
      <point x="350.0" y="69.0" type="curve" smooth="yes"/>
      <point x="276.0" y="102.0"/>
      <point x="243.0" y="187.0"/>
      <point x="243.0" y="264.0" type="curve" smooth="yes"/>
      <point x="243.0" y="399.0"/>
      <point x="338.0" y="472.0"/>
      <point x="432.0" y="472.0" type="curve" smooth="yes"/>
      <point x="526.0" y="472.0"/>
      <point x="619.0" y="398.0"/>
      <point x="619.0" y="264.0" type="curve" smooth="yes"/>
      <point x="619.0" y="192.0"/>
      <point x="593.0" y="116.0"/>
      <point x="528.0" y="78.0" type="curve" smooth="yes"/>
      <point x="516.0" y="71.0"/>
      <point x="505.0" y="60.0"/>
      <point x="505.0" y="46.0" type="curve" smooth="yes"/>
      <point x="505.0" y="21.0"/>
      <point x="542.0" y="0.0"/>
      <point x="587.0" y="0.0" type="curve" smooth="yes"/>
      <point x="1244.0" y="0.0" type="line" smooth="yes"/>
      <point x="1265.0" y="0.0"/>
      <point x="1286.0" y="5.0"/>
      <point x="1303.0" y="16.0" type="curve" smooth="yes"/>
      <point x="1333.0" y="34.0"/>
      <point x="1330.0" y="63.0"/>
      <point x="1296.0" y="79.0" type="curve" smooth="yes"/>
      <point x="1130.0" y="160.0"/>
      <point x="1054.0" y="326.0"/>
      <point x="1057.0" y="494.0" type="curve" smooth="yes"/>
      <point x="1061.0" y="709.0"/>
      <point x="1195.0" y="910.0"/>
      <point x="1439.0" y="910.0" type="curve" smooth="yes"/>
      <point x="1686.0" y="909.0"/>
      <point x="1821.0" y="697.0"/>
      <point x="1821.0" y="480.0" type="curve" smooth="yes"/>
      <point x="1822.0" y="315.0"/>
      <point x="1745.0" y="147.0"/>
    </contour>
  </outline>
</glyph>
<glyph name="i1" format="2">
  <advance height="2048" width="380.0"/>
  <unicode hex="0D3F"/>
  <outline>
    <contour>
      <point x="-107.0" y="1126.0" type="curve" smooth="yes"/>
      <point x="-105.0" y="1100.0"/>
      <point x="-152.0" y="1081.0"/>
      <point x="-196.0" y="1081.0" type="curve" smooth="yes"/>
      <point x="-234.0" y="1081.0"/>
      <point x="-269.0" y="1095.0"/>
      <point x="-270.0" y="1129.0" type="curve" smooth="yes"/>
      <point x="-273.0" y="1299.0"/>
      <point x="-133.0" y="1382.0"/>
      <point x="7.0" y="1381.0" type="curve" smooth="yes"/>
      <point x="144.0" y="1380.0"/>
      <point x="280.0" y="1296.0"/>
      <point x="280.0" y="1126.0" type="curve" smooth="yes"/>
      <point x="280.0" y="22.0" type="line" smooth="yes"/>
      <point x="280.0" y="-3.0"/>
      <point x="244.0" y="-23.0"/>
      <point x="199.0" y="-23.0" type="curve" smooth="yes"/>
      <point x="154.0" y="-23.0"/>
      <point x="117.0" y="-3.0"/>
      <point x="117.0" y="22.0" type="curve" smooth="yes"/>
      <point x="117.0" y="1126.0" type="line" smooth="yes"/>
      <point x="117.0" y="1239.0"/>
      <point x="62.0" y="1291.0"/>
      <point x="6.0" y="1291.0" type="curve" smooth="yes"/>
      <point x="-54.0" y="1291.0"/>
      <point x="-114.0" y="1233.0"/>
    </contour>
  </outline>
</glyph>
<glyph name="i2" format="2">
	<unicode hex="0D40"/>
	<advance height="2048" width="353"/>
	<outline>
		<contour>
			<point x="-195" y="1130" type="curve" smooth="yes"/>
			<point x="-146" y="1130"/>
			<point x="-122" y="1174"/>
			<point x="-122" y="1214" type="curve" smooth="yes"/>
			<point x="-122" y="1253"/>
			<point x="-146" y="1297"/>
			<point x="-195" y="1297" type="curve" smooth="yes"/>
			<point x="-243" y="1297"/>
			<point x="-268" y="1253"/>
			<point x="-268" y="1214" type="curve"/>
			<point x="-269" y="1173"/>
			<point x="-245" y="1130"/>
		</contour>
		<contour>
			<point x="-28" y="1295" type="curve"/>
			<point x="-8" y="1270"/>
			<point x="5" y="1237"/>
			<point x="3" y="1207" type="curve" smooth="yes"/>
			<point x="2" y="1156"/>
			<point x="-21" y="1119"/>
			<point x="-55" y="1095" type="curve" smooth="yes"/>
			<point x="-93" y="1068"/>
			<point x="-144" y="1057"/>
			<point x="-194" y="1057" type="curve" smooth="yes"/>
			<point x="-244" y="1057"/>
			<point x="-295" y="1069"/>
			<point x="-333" y="1096" type="curve" smooth="yes"/>
			<point x="-366" y="1120"/>
			<point x="-389" y="1156"/>
			<point x="-390" y="1207" type="curve" smooth="yes"/>
			<point x="-392" y="1264"/>
			<point x="-356" y="1318"/>
			<point x="-294" y="1349" type="curve" smooth="yes"/>
			<point x="-238" y="1377"/>
			<point x="-164" y="1382"/>
			<point x="-102" y="1381" type="curve" smooth="yes"/>
			<point x="70" y="1379"/>
			<point x="251" y="1338"/>
			<point x="251" y="1125" type="curve" smooth="yes"/>
			<point x="253" y="21" type="line" smooth="yes"/>
			<point x="253" y="-5"/>
			<point x="216" y="-25"/>
			<point x="171" y="-25" type="curve" smooth="yes"/>
			<point x="126" y="-25"/>
			<point x="90" y="-5"/>
			<point x="90" y="21" type="curve" smooth="yes"/>
			<point x="88" y="1125" type="line" smooth="yes"/>
			<point x="88" y="1172"/>
			<point x="81" y="1215"/>
			<point x="59" y="1246" type="curve" smooth="yes"/>
			<point x="42" y="1270"/>
			<point x="11" y="1290"/>
		</contour>
	</outline>
</glyph>
<glyph name="e1" format="2">
	<unicode hex="0D46"/>
	<advance height="2048" width="1354"/>
	<outline>
		<contour>
			<point x="80" y="470" type="curve" smooth="yes"/>
			<point x="80" y="810"/>
			<point x="339" y="1018"/>
			<point x="666" y="1022" type="curve" smooth="yes"/>
			<point x="990" y="1026"/>
			<point x="1270" y="826"/>
			<point x="1274" y="484" type="curve" smooth="yes"/>
			<point x="1276" y="293"/>
			<point x="1191" y="95"/>
			<point x="1022" y="-3" type="curve" smooth="yes"/>
			<point x="999" y="-16"/>
			<point x="972" y="-24"/>
			<point x="944" y="-25" type="curve" smooth="yes"/>
			<point x="918" y="-26"/>
			<point x="892" y="-20"/>
			<point x="868" y="-7" type="curve" smooth="yes"/>
			<point x="854" y="1"/>
			<point x="839" y="15"/>
			<point x="839" y="33" type="curve" smooth="yes"/>
			<point x="839" y="52"/>
			<point x="854" y="65"/>
			<point x="869" y="73" type="curve" smooth="yes"/>
			<point x="1014" y="152"/>
			<point x="1083" y="324"/>
			<point x="1076" y="484" type="curve" smooth="yes"/>
			<point x="1066" y="725"/>
			<point x="913" y="910"/>
			<point x="664" y="910" type="curve" smooth="yes"/>
			<point x="454" y="909"/>
			<point x="307" y="756"/>
			<point x="284" y="553" type="curve"/>
			<point x="338" y="603"/>
			<point x="406" y="628"/>
			<point x="479" y="631" type="curve" smooth="yes"/>
			<point x="577" y="634"/>
			<point x="681" y="600"/>
			<point x="749" y="527" type="curve" smooth="yes"/>
			<point x="808" y="465"/>
			<point x="832" y="385"/>
			<point x="830" y="300" type="curve" smooth="yes"/>
			<point x="827" y="209"/>
			<point x="792" y="117"/>
			<point x="721" y="58" type="curve" smooth="yes"/>
			<point x="655" y="3"/>
			<point x="566" y="-23"/>
			<point x="481" y="-24" type="curve" smooth="yes"/>
			<point x="392" y="-25"/>
			<point x="312" y="-1"/>
			<point x="243" y="56" type="curve" smooth="yes"/>
			<point x="124" y="153"/>
			<point x="80" y="322"/>
		</contour>
		<contour>
			<point x="326" y="300" type="curve" smooth="yes"/>
			<point x="326" y="207"/>
			<point x="371" y="89"/>
			<point x="481" y="89" type="curve" smooth="yes"/>
			<point x="588" y="89"/>
			<point x="635" y="210"/>
			<point x="635" y="300" type="curve" smooth="yes"/>
			<point x="635" y="392"/>
			<point x="590" y="512"/>
			<point x="481" y="512" type="curve" smooth="yes"/>
			<point x="372" y="512"/>
			<point x="326" y="392"/>
		</contour>
	</outline>
</glyph>
<glyph name="au2" format="2">
	<unicode hex="0D57"/>
	<advance height="2048" width="1323"/>
	<outline>
		<contour>
			<point x="313" y="530" type="curve" smooth="yes"/>
			<point x="339" y="491"/>
			<point x="285" y="465"/>
			<point x="255" y="459" type="curve" smooth="yes"/>
			<point x="204" y="448"/>
			<point x="148" y="457"/>
			<point x="121" y="507" type="curve" smooth="yes"/>
			<point x="93" y="556"/>
			<point x="80" y="622"/>
			<point x="80" y="679" type="curve" smooth="yes"/>
			<point x="80" y="885"/>
			<point x="228" y="1000"/>
			<point x="422" y="1000" type="curve" smooth="yes"/>
			<point x="503" y="1000"/>
			<point x="591" y="979"/>
			<point x="648" y="918" type="curve"/>
			<point x="703" y="982"/>
			<point x="785" y="1000"/>
			<point x="865" y="1000" type="curve" smooth="yes"/>
			<point x="1111" y="1000"/>
			<point x="1243" y="829"/>
			<point x="1243" y="589" type="curve" smooth="yes"/>
			<point x="1243" y="412"/>
			<point x="1182" y="242"/>
			<point x="1046" y="126" type="curve" smooth="yes"/>
			<point x="987" y="77"/>
			<point x="919" y="40"/>
			<point x="842" y="15" type="curve" smooth="yes"/>
			<point x="764" y="-11"/>
			<point x="678" y="-24"/>
			<point x="586" y="-24" type="curve" smooth="yes"/>
			<point x="482" y="-24"/>
			<point x="371" y="2"/>
			<point x="278" y="51" type="curve" smooth="yes"/>
			<point x="263" y="59"/>
			<point x="249" y="69"/>
			<point x="243" y="81" type="curve"/>
			<point x="240" y="86"/>
			<point x="238" y="91"/>
			<point x="238" y="96" type="curve" smooth="yes"/>
			<point x="238" y="101"/>
			<point x="239" y="106"/>
			<point x="241" y="111" type="curve"/>
			<point x="245" y="119"/>
			<point x="253" y="127"/>
			<point x="266" y="135" type="curve" smooth="yes"/>
			<point x="285" y="146"/>
			<point x="310" y="151"/>
			<point x="335" y="151" type="curve" smooth="yes"/>
			<point x="360" y="152"/>
			<point x="385" y="146"/>
			<point x="404" y="136" type="curve" smooth="yes"/>
			<point x="457" y="107"/>
			<point x="526" y="87"/>
			<point x="586" y="87" type="curve" smooth="yes"/>
			<point x="694" y="87"/>
			<point x="800" y="117"/>
			<point x="883" y="188" type="curve" smooth="yes"/>
			<point x="998" y="286"/>
			<point x="1048" y="440"/>
			<point x="1048" y="589" type="curve" smooth="yes"/>
			<point x="1048" y="705"/>
			<point x="1011" y="889"/>
			<point x="865" y="889" type="curve" smooth="yes"/>
			<point x="770" y="889"/>
			<point x="747" y="801"/>
			<point x="747" y="721" type="curve" smooth="yes"/>
			<point x="747" y="510" type="line" smooth="yes"/>
			<point x="747" y="469"/>
			<point x="680" y="455"/>
			<point x="649" y="455" type="curve" smooth="yes"/>
			<point x="618" y="455"/>
			<point x="551" y="469"/>
			<point x="551" y="510" type="curve" smooth="yes"/>
			<point x="551" y="579"/>
			<point x="551" y="647"/>
			<point x="551" y="716" type="curve" smooth="yes"/>
			<point x="551" y="809"/>
			<point x="529" y="890"/>
			<point x="421" y="889" type="curve" smooth="yes"/>
			<point x="313" y="888"/>
			<point x="273" y="772"/>
			<point x="274" y="679" type="curve" smooth="yes"/>
			<point x="274" y="629"/>
			<point x="286" y="572"/>
		</contour>
	</outline>
</glyph>
<glyph name="uni0D68" format="2">
	<unicode hex="0D68"/>
	<advance height="2048" width="1583"/>
	<outline>
		<contour>
			<point x="1401" y="111" type="line" smooth="yes"/>
			<point x="1434" y="111"/>
			<point x="1503" y="97"/>
			<point x="1503" y="55" type="curve" smooth="yes"/>
			<point x="1503" y="13"/>
			<point x="1434" y="0"/>
			<point x="1401" y="0" type="curve" smooth="yes"/>
			<point x="844" y="0" type="line" smooth="yes"/>
			<point x="813" y="0"/>
			<point x="739" y="13"/>
			<point x="742" y="56" type="curve" smooth="yes"/>
			<point x="743" y="75"/>
			<point x="760" y="88"/>
			<point x="776" y="96" type="curve" smooth="yes"/>
			<point x="932" y="170"/>
			<point x="1012" y="322"/>
			<point x="1008" y="489" type="curve" smooth="yes"/>
			<point x="1004" y="696"/>
			<point x="873" y="890"/>
			<point x="646" y="890" type="curve" smooth="yes"/>
			<point x="417" y="889"/>
			<point x="284" y="700"/>
			<point x="283" y="489" type="curve"/>
			<point x="283" y="326"/>
			<point x="361" y="158"/>
			<point x="516" y="84" type="curve" smooth="yes"/>
			<point x="532" y="77"/>
			<point x="549" y="63"/>
			<point x="551" y="45" type="curve"/>
			<point x="552" y="28"/>
			<point x="539" y="15"/>
			<point x="525" y="7" type="curve" smooth="yes"/>
			<point x="504" y="-6"/>
			<point x="479" y="-12"/>
			<point x="453" y="-12" type="curve" smooth="yes"/>
			<point x="425" y="-12"/>
			<point x="398" y="-6"/>
			<point x="375" y="5" type="curve" smooth="yes"/>
			<point x="192" y="95"/>
			<point x="78" y="290"/>
			<point x="80" y="489" type="curve" smooth="yes"/>
			<point x="83" y="796"/>
			<point x="344" y="1000"/>
			<point x="646" y="1000" type="curve" smooth="yes"/>
			<point x="947" y="1000"/>
			<point x="1205" y="793"/>
			<point x="1212" y="489" type="curve" smooth="yes"/>
			<point x="1215" y="346"/>
			<point x="1158" y="210"/>
			<point x="1053" y="111" type="curve"/>
		</contour>
	</outline>
</glyph>
<glyph name="uni0D6C" format="2">
	<unicode hex="0D6C"/>
	<advance height="2048" width="2420"/>
	<outline>
		<contour>
			<point x="2340" y="413" type="curve" smooth="yes"/>
			<point x="2340" y="286"/>
			<point x="2311" y="151"/>
			<point x="2256" y="35" type="curve" smooth="yes"/>
			<point x="2117" y="-259"/>
			<point x="1842" y="-412"/>
			<point x="1517" y="-412" type="curve" smooth="yes"/>
			<point x="1443" y="-412"/>
			<point x="1367" y="-401"/>
			<point x="1296" y="-381" type="curve" smooth="yes"/>
			<point x="1232" y="-363"/>
			<point x="1169" y="-335"/>
			<point x="1114" y="-298" type="curve" smooth="yes"/>
			<point x="1101" y="-289"/>
			<point x="1090" y="-276"/>
			<point x="1092" y="-259" type="curve" smooth="yes"/>
			<point x="1094" y="-240"/>
			<point x="1113" y="-226"/>
			<point x="1130" y="-219" type="curve" smooth="yes"/>
			<point x="1150" y="-210"/>
			<point x="1174" y="-206"/>
			<point x="1197" y="-207" type="curve" smooth="yes"/>
			<point x="1222" y="-207"/>
			<point x="1251" y="-213"/>
			<point x="1272" y="-228" type="curve" smooth="yes"/>
			<point x="1307" y="-251"/>
			<point x="1347" y="-270"/>
			<point x="1388" y="-282" type="curve" smooth="yes"/>
			<point x="1429" y="-294"/>
			<point x="1474" y="-300"/>
			<point x="1517" y="-300" type="curve" smooth="yes"/>
			<point x="1767" y="-300"/>
			<point x="1957" y="-155"/>
			<point x="2060" y="63" type="curve" smooth="yes"/>
			<point x="2112" y="171"/>
			<point x="2138" y="294"/>
			<point x="2138" y="413" type="curve" smooth="yes"/>
			<point x="2136" y="618"/>
			<point x="2035" y="889"/>
			<point x="1796" y="889" type="curve" smooth="yes"/>
			<point x="1645" y="889"/>
			<point x="1584" y="764"/>
			<point x="1584" y="632" type="curve" smooth="yes"/>
			<point x="1584" y="33" type="line" smooth="yes"/>
			<point x="1584" y="-9"/>
			<point x="1514" y="-23"/>
			<point x="1482" y="-23" type="curve" smooth="yes"/>
			<point x="1450" y="-23"/>
			<point x="1381" y="-9"/>
			<point x="1381" y="33" type="curve" smooth="yes"/>
			<point x="1381" y="632" type="line" smooth="yes"/>
			<point x="1381" y="748"/>
			<point x="1327" y="888"/>
			<point x="1187" y="888" type="curve" smooth="yes"/>
			<point x="1050" y="888"/>
			<point x="997" y="745"/>
			<point x="997" y="631" type="curve" smooth="yes"/>
			<point x="997" y="32" type="line" smooth="yes"/>
			<point x="997" y="-9"/>
			<point x="928" y="-24"/>
			<point x="895" y="-24" type="curve" smooth="yes"/>
			<point x="863" y="-24"/>
			<point x="794" y="-9"/>
			<point x="794" y="32" type="curve" smooth="yes"/>
			<point x="794" y="631" type="line" smooth="yes"/>
			<point x="794" y="764"/>
			<point x="733" y="888"/>
			<point x="581" y="888" type="curve" smooth="yes"/>
			<point x="459" y="888"/>
			<point x="360" y="794"/>
			<point x="318" y="688" type="curve" smooth="yes"/>
			<point x="291" y="622"/>
			<point x="281" y="550"/>
			<point x="283" y="480" type="curve" smooth="yes"/>
			<point x="285" y="332"/>
			<point x="346" y="139"/>
			<point x="497" y="76" type="curve" smooth="yes"/>
			<point x="520" y="66"/>
			<point x="536" y="51"/>
			<point x="537" y="34" type="curve" smooth="yes"/>
			<point x="538" y="22"/>
			<point x="532" y="10"/>
			<point x="517" y="-2" type="curve"/>
			<point x="495" y="-17"/>
			<point x="467" y="-24"/>
			<point x="439" y="-24" type="curve" smooth="yes"/>
			<point x="413" y="-24"/>
			<point x="388" y="-18"/>
			<point x="367" y="-9" type="curve" smooth="yes"/>
			<point x="171" y="77"/>
			<point x="83" y="278"/>
			<point x="80" y="479" type="curve" smooth="yes"/>
			<point x="79" y="567"/>
			<point x="93" y="658"/>
			<point x="132" y="738" type="curve" smooth="yes"/>
			<point x="214" y="910"/>
			<point x="392" y="999"/>
			<point x="581" y="999" type="curve" smooth="yes"/>
			<point x="697" y="999"/>
			<point x="813" y="964"/>
			<point x="896" y="883" type="curve"/>
			<point x="974" y="962"/>
			<point x="1076" y="999"/>
			<point x="1187" y="1000" type="curve" smooth="yes"/>
			<point x="1299" y="1001"/>
			<point x="1403" y="963"/>
			<point x="1481" y="884" type="curve"/>
			<point x="1564" y="964"/>
			<point x="1681" y="1000"/>
			<point x="1796" y="1000" type="curve" smooth="yes"/>
			<point x="2137" y="1000"/>
			<point x="2340" y="746"/>
		</contour>
	</outline>
</glyph>
<glyph name="uni0D6D" format="2">
	<unicode hex="0D6D"/>
	<advance height="2048" width="1456"/>
	<outline>
		<contour>
			<point x="80" y="449" type="curve" smooth="yes"/>
			<point x="80" y="788"/>
			<point x="339" y="996"/>
			<point x="665" y="1000" type="curve" smooth="yes"/>
			<point x="860" y="1002"/>
			<point x="1044" y="956"/>
			<point x="1186" y="813" type="curve" smooth="yes"/>
			<point x="1305" y="692"/>
			<point x="1366" y="525"/>
			<point x="1375" y="358" type="curve" smooth="yes"/>
			<point x="1383" y="207"/>
			<point x="1348" y="58"/>
			<point x="1268" y="-71" type="curve" smooth="yes"/>
			<point x="1210" y="-166"/>
			<point x="1129" y="-246"/>
			<point x="1034" y="-304" type="curve" smooth="yes"/>
			<point x="916" y="-376"/>
			<point x="780" y="-412"/>
			<point x="642" y="-412" type="curve" smooth="yes"/>
			<point x="501" y="-412"/>
			<point x="365" y="-374"/>
			<point x="245" y="-301" type="curve" smooth="yes"/>
			<point x="231" y="-293"/>
			<point x="217" y="-279"/>
			<point x="218" y="-262" type="curve" smooth="yes"/>
			<point x="219" y="-243"/>
			<point x="235" y="-230"/>
			<point x="251" y="-222" type="curve" smooth="yes"/>
			<point x="271" y="-212"/>
			<point x="298" y="-207"/>
			<point x="324" y="-208" type="curve" smooth="yes"/>
			<point x="350" y="-208"/>
			<point x="375" y="-214"/>
			<point x="394" y="-225" type="curve" smooth="yes"/>
			<point x="469" y="-270"/>
			<point x="554" y="-300"/>
			<point x="642" y="-300" type="curve" smooth="yes"/>
			<point x="728" y="-301"/>
			<point x="811" y="-274"/>
			<point x="883" y="-230" type="curve" smooth="yes"/>
			<point x="962" y="-181"/>
			<point x="1028" y="-113"/>
			<point x="1076" y="-35" type="curve" smooth="yes"/>
			<point x="1149" y="82"/>
			<point x="1180" y="220"/>
			<point x="1173" y="357" type="curve" smooth="yes"/>
			<point x="1165" y="504"/>
			<point x="1114" y="652"/>
			<point x="1008" y="759" type="curve" smooth="yes"/>
			<point x="910" y="858"/>
			<point x="796" y="890"/>
			<point x="664" y="890" type="curve" smooth="yes"/>
			<point x="454" y="889"/>
			<point x="307" y="734"/>
			<point x="284" y="531" type="curve"/>
			<point x="338" y="581"/>
			<point x="406" y="606"/>
			<point x="479" y="609" type="curve" smooth="yes"/>
			<point x="577" y="612"/>
			<point x="681" y="578"/>
			<point x="749" y="505" type="curve" smooth="yes"/>
			<point x="807" y="443"/>
			<point x="832" y="363"/>
			<point x="829" y="279" type="curve" smooth="yes"/>
			<point x="827" y="187"/>
			<point x="792" y="96"/>
			<point x="721" y="36" type="curve" smooth="yes"/>
			<point x="655" y="-18"/>
			<point x="566" y="-45"/>
			<point x="481" y="-46" type="curve" smooth="yes"/>
			<point x="392" y="-47"/>
			<point x="312" y="-23"/>
			<point x="243" y="34" type="curve" smooth="yes"/>
			<point x="124" y="132"/>
			<point x="80" y="301"/>
		</contour>
		<contour>
			<point x="326" y="279" type="curve"/>
			<point x="325" y="186"/>
			<point x="371" y="68"/>
			<point x="480" y="67" type="curve" smooth="yes"/>
			<point x="587" y="67"/>
			<point x="634" y="188"/>
			<point x="634" y="278" type="curve" smooth="yes"/>
			<point x="634" y="370"/>
			<point x="589" y="490"/>
			<point x="480" y="490" type="curve" smooth="yes"/>
			<point x="372" y="490"/>
			<point x="326" y="370"/>
		</contour>
	</outline>
</glyph>
<glyph name="uni0D6E" format="2">
	<unicode hex="0D6E"/>
	<advance height="2048" width="1732"/>
	<outline>
		<contour>
			<point x="1052" y="111" type="curve"/>
			<point x="1429" y="111" type="line"/>
			<point x="1429" y="944" type="line" smooth="yes"/>
			<point x="1429" y="986"/>
			<point x="1498" y="1000"/>
			<point x="1530" y="1000" type="curve" smooth="yes"/>
			<point x="1563" y="1000"/>
			<point x="1632" y="986"/>
			<point x="1632" y="944" type="curve" smooth="yes"/>
			<point x="1632" y="28" type="line" smooth="yes"/>
			<point x="1632" y="-51"/>
			<point x="1616" y="-126"/>
			<point x="1574" y="-194" type="curve" smooth="yes"/>
			<point x="1477" y="-349"/>
			<point x="1281" y="-412"/>
			<point x="1104" y="-412" type="curve" smooth="yes"/>
			<point x="964" y="-413"/>
			<point x="826" y="-375"/>
			<point x="707" y="-303" type="curve" smooth="yes"/>
			<point x="693" y="-294"/>
			<point x="680" y="-281"/>
			<point x="680" y="-264" type="curve"/>
			<point x="681" y="-245"/>
			<point x="698" y="-232"/>
			<point x="713" y="-224" type="curve" smooth="yes"/>
			<point x="734" y="-213"/>
			<point x="761" y="-209"/>
			<point x="787" y="-209" type="curve" smooth="yes"/>
			<point x="812" y="-210"/>
			<point x="838" y="-216"/>
			<point x="857" y="-227" type="curve" smooth="yes"/>
			<point x="930" y="-272"/>
			<point x="1017" y="-300"/>
			<point x="1104" y="-300" type="curve" smooth="yes"/>
			<point x="1216" y="-301"/>
			<point x="1322" y="-253"/>
			<point x="1382" y="-157" type="curve" smooth="yes"/>
			<point x="1409" y="-113"/>
			<point x="1425" y="-52"/>
			<point x="1428" y="0" type="curve"/>
			<point x="844" y="0" type="line" smooth="yes"/>
			<point x="813" y="0"/>
			<point x="739" y="13"/>
			<point x="741" y="56" type="curve"/>
			<point x="743" y="75"/>
			<point x="760" y="89"/>
			<point x="776" y="96" type="curve" smooth="yes"/>
			<point x="932" y="171"/>
			<point x="1012" y="322"/>
			<point x="1008" y="489" type="curve" smooth="yes"/>
			<point x="1004" y="696"/>
			<point x="873" y="890"/>
			<point x="646" y="890" type="curve" smooth="yes"/>
			<point x="417" y="889"/>
			<point x="284" y="700"/>
			<point x="283" y="489" type="curve"/>
			<point x="283" y="326"/>
			<point x="361" y="158"/>
			<point x="516" y="84" type="curve" smooth="yes"/>
			<point x="532" y="77"/>
			<point x="549" y="63"/>
			<point x="551" y="45" type="curve"/>
			<point x="552" y="28"/>
			<point x="539" y="15"/>
			<point x="525" y="7" type="curve" smooth="yes"/>
			<point x="504" y="-6"/>
			<point x="479" y="-12"/>
			<point x="453" y="-12" type="curve" smooth="yes"/>
			<point x="425" y="-12"/>
			<point x="398" y="-6"/>
			<point x="375" y="5" type="curve" smooth="yes"/>
			<point x="192" y="95"/>
			<point x="78" y="290"/>
			<point x="80" y="489" type="curve" smooth="yes"/>
			<point x="83" y="796"/>
			<point x="344" y="1000"/>
			<point x="646" y="1000" type="curve" smooth="yes"/>
			<point x="947" y="1000"/>
			<point x="1205" y="793"/>
			<point x="1212" y="489" type="curve" smooth="yes"/>
			<point x="1215" y="346"/>
			<point x="1158" y="210"/>
		</contour>
	</outline>
</glyph>
<glyph name="datemark" format="2">
  <advance width="2283.0"/>
  <unicode hex="0D79"/>
  <outline>
    <contour>
      <point x="1796.0" y="514" type="curve"/>
      <point x="1770.0" y="514"/>
      <point x="1746.0" y="515"/>
      <point x="1724.0" y="515" type="curve" smooth="yes"/>
      <point x="1523.0" y="515"/>
      <point x="1361.0" y="478"/>
      <point x="1361.0" y="316" type="curve" smooth="yes"/>
      <point x="1361.0" y="226"/>
      <point x="1446.0" y="140"/>
      <point x="1544.0" y="140" type="curve" smooth="yes"/>
      <point x="1701.0" y="140"/>
      <point x="1802.0" y="282"/>
      <point x="1802.0" y="446" type="curve" smooth="yes"/>
      <point x="1802.0" y="468"/>
      <point x="1800.0" y="491"/>
    </contour>
    <contour>
      <point x="578.0" y="1024" type="curve" smooth="yes"/>
      <point x="767.0" y="1024"/>
      <point x="898.0" y="944"/>
      <point x="980.0" y="797" type="curve"/>
      <point x="980.0" y="798"/>
      <point x="980.0" y="798"/>
      <point x="981.0" y="799" type="curve"/>
      <point x="1051.0" y="924"/>
      <point x="1200.0" y="1023"/>
      <point x="1400.0" y="1023" type="curve" smooth="yes"/>
      <point x="1652.0" y="1023"/>
      <point x="1828.0" y="838"/>
      <point x="1903.0" y="653" type="curve"/>
      <point x="2133.0" y="649" type="line" smooth="yes"/>
      <point x="2169.0" y="649"/>
      <point x="2203.0" y="618"/>
      <point x="2203.0" y="584" type="curve" smooth="yes"/>
      <point x="2203.0" y="538"/>
      <point x="2173.0" y="509"/>
      <point x="2133.0" y="509" type="curve" smooth="yes"/>
      <point x="2131.0" y="509" type="line"/>
      <point x="1938.0" y="512" type="line"/>
      <point x="1941.0" y="489"/>
      <point x="1942.0" y="467"/>
      <point x="1942.0" y="445" type="curve" smooth="yes"/>
      <point x="1942.0" y="196"/>
      <point x="1778.0" y="1"/>
      <point x="1546.0" y="1" type="curve" smooth="yes"/>
      <point x="1369.0" y="1"/>
      <point x="1222.0" y="137"/>
      <point x="1222.0" y="320" type="curve" smooth="yes"/>
      <point x="1222.0" y="576"/>
      <point x="1450.0" y="655"/>
      <point x="1713.0" y="655" type="curve" smooth="yes"/>
      <point x="1724.0" y="655"/>
      <point x="1735.0" y="655"/>
      <point x="1746.0" y="655" type="curve"/>
      <point x="1678.0" y="773"/>
      <point x="1562.0" y="882"/>
      <point x="1392.0" y="882" type="curve" smooth="yes"/>
      <point x="1137.0" y="882"/>
      <point x="1050.0" y="682"/>
      <point x="1046.0" y="433" type="curve" smooth="yes"/>
      <point x="1043.0" y="63" type="line"/>
      <point x="1043.0" y="62" type="line"/>
      <point x="1042.0" y="21"/>
      <point x="1014.0" y="-6"/>
      <point x="965.0" y="-6" type="curve" smooth="yes"/>
      <point x="933.0" y="-6"/>
      <point x="903.0" y="29"/>
      <point x="903.0" y="63" type="curve" smooth="yes"/>
      <point x="904.0" y="193"/>
      <point x="905.0" y="324"/>
      <point x="905.0" y="454" type="curve" smooth="yes"/>
      <point x="905.0" y="691"/>
      <point x="807.0" y="884"/>
      <point x="586.0" y="884" type="curve" smooth="yes"/>
      <point x="379.0" y="884"/>
      <point x="222.0" y="704"/>
      <point x="222.0" y="496" type="curve" smooth="yes"/>
      <point x="222.0" y="292"/>
      <point x="376.0" y="136"/>
      <point x="584.0" y="136" type="curve" smooth="yes"/>
      <point x="614.0" y="136"/>
      <point x="645.0" y="140"/>
      <point x="676.0" y="148" type="curve" smooth="yes"/>
      <point x="683.0" y="150"/>
      <point x="689.0" y="151"/>
      <point x="695.0" y="151" type="curve" smooth="yes"/>
      <point x="732.0" y="151"/>
      <point x="765.0" y="118"/>
      <point x="765.0" y="87" type="curve" smooth="yes"/>
      <point x="765.0" y="46"/>
      <point x="747.0" y="21"/>
      <point x="712.0" y="12" type="curve" smooth="yes"/>
      <point x="666.0" y="0"/>
      <point x="621.0" y="-6"/>
      <point x="578.0" y="-6" type="curve" smooth="yes"/>
      <point x="299.0" y="-6"/>
      <point x="80.0" y="216"/>
      <point x="80.0" y="497" type="curve" smooth="yes"/>
      <point x="80.0" y="781"/>
      <point x="295.0" y="1024"/>
    </contour>
  </outline>
</glyph>
<glyph name="n1cil" format="2">
	<unicode hex="0D7B"/>
	<advance height="2048" width="1912"/>
	<outline>
		<contour>
			<point x="1495" y="818" type="curve"/>
			<point x="1435" y="732"/>
			<point x="1385" y="662"/>
			<point x="1350" y="585" type="curve" smooth="yes"/>
			<point x="1320" y="518"/>
			<point x="1301" y="433"/>
			<point x="1298" y="350" type="curve" smooth="yes"/>
			<point x="1296" y="295"/>
			<point x="1302" y="241"/>
			<point x="1317" y="194" type="curve" smooth="yes"/>
			<point x="1338" y="127"/>
			<point x="1382" y="68"/>
			<point x="1444" y="68" type="curve" smooth="yes"/>
			<point x="1517" y="68"/>
			<point x="1568" y="131"/>
			<point x="1601" y="209" type="curve" smooth="yes"/>
			<point x="1634" y="287"/>
			<point x="1649" y="378"/>
			<point x="1650" y="434" type="curve" smooth="yes"/>
			<point x="1650" y="503"/>
			<point x="1638" y="573"/>
			<point x="1614" y="639" type="curve" smooth="yes"/>
			<point x="1589" y="707"/>
			<point x="1550" y="770"/>
		</contour>
		<contour>
			<point x="977" y="608" type="curve" smooth="yes"/>
			<point x="977" y="22" type="line" smooth="yes"/>
			<point x="977" y="-3"/>
			<point x="941" y="-24"/>
			<point x="896" y="-24" type="curve" smooth="yes"/>
			<point x="851" y="-24"/>
			<point x="814" y="-3"/>
			<point x="814" y="22" type="curve" smooth="yes"/>
			<point x="814" y="644" type="line" smooth="yes"/>
			<point x="814" y="792"/>
			<point x="743" y="910"/>
			<point x="582" y="909" type="curve" smooth="yes"/>
			<point x="451" y="908"/>
			<point x="344" y="813"/>
			<point x="298" y="695" type="curve" smooth="yes"/>
			<point x="272" y="628"/>
			<point x="262" y="553"/>
			<point x="263" y="480" type="curve" smooth="yes"/>
			<point x="265" y="322"/>
			<point x="330" y="124"/>
			<point x="486" y="58" type="curve" smooth="yes"/>
			<point x="521" y="43"/>
			<point x="528" y="14"/>
			<point x="501" y="-6" type="curve" smooth="yes"/>
			<point x="469" y="-29"/>
			<point x="418" y="-28"/>
			<point x="383" y="-12" type="curve" smooth="yes"/>
			<point x="189" y="73"/>
			<point x="103" y="278"/>
			<point x="100" y="480" type="curve" smooth="yes"/>
			<point x="99" y="571"/>
			<point x="114" y="662"/>
			<point x="151" y="741" type="curve" smooth="yes"/>
			<point x="230" y="910"/>
			<point x="399" y="1000"/>
			<point x="582" y="1000" type="curve" smooth="yes"/>
			<point x="721" y="1000"/>
			<point x="836" y="956"/>
			<point x="906" y="868" type="curve"/>
			<point x="992" y="962"/>
			<point x="1129" y="1000"/>
			<point x="1254" y="1001" type="curve" smooth="yes"/>
			<point x="1309" y="1001"/>
			<point x="1367" y="994"/>
			<point x="1421" y="979" type="curve"/>
			<point x="1445" y="1029"/>
			<point x="1469" y="1089"/>
			<point x="1469" y="1147" type="curve" smooth="yes"/>
			<point x="1469" y="1223"/>
			<point x="1421" y="1289"/>
			<point x="1341" y="1290" type="curve" smooth="yes"/>
			<point x="1271" y="1291"/>
			<point x="1213" y="1242"/>
			<point x="1181" y="1183" type="curve" smooth="yes"/>
			<point x="1168" y="1159"/>
			<point x="1123" y="1146"/>
			<point x="1080" y="1153" type="curve" smooth="yes"/>
			<point x="1037" y="1160"/>
			<point x="1013" y="1186"/>
			<point x="1026" y="1210" type="curve" smooth="yes"/>
			<point x="1088" y="1323"/>
			<point x="1215" y="1381"/>
			<point x="1341" y="1381" type="curve" smooth="yes"/>
			<point x="1482" y="1381"/>
			<point x="1631" y="1306"/>
			<point x="1631" y="1147" type="curve" smooth="yes"/>
			<point x="1632" y="1069"/>
			<point x="1597" y="988"/>
			<point x="1559" y="921" type="curve"/>
			<point x="1655" y="863"/>
			<point x="1723" y="778"/>
			<point x="1764" y="680" type="curve" smooth="yes"/>
			<point x="1796" y="604"/>
			<point x="1812" y="518"/>
			<point x="1812" y="434" type="curve" smooth="yes"/>
			<point x="1812" y="329"/>
			<point x="1788" y="226"/>
			<point x="1737" y="142" type="curve" smooth="yes"/>
			<point x="1677" y="44"/>
			<point x="1581" y="-24"/>
			<point x="1444" y="-24" type="curve" smooth="yes"/>
			<point x="1304" y="-24"/>
			<point x="1217" y="48"/>
			<point x="1172" y="149" type="curve" smooth="yes"/>
			<point x="1146" y="208"/>
			<point x="1135" y="279"/>
			<point x="1136" y="350" type="curve" smooth="yes"/>
			<point x="1137" y="451"/>
			<point x="1164" y="553"/>
			<point x="1206" y="636" type="curve" smooth="yes"/>
			<point x="1252" y="729"/>
			<point x="1315" y="805"/>
			<point x="1370" y="891" type="curve"/>
			<point x="1329" y="905"/>
			<point x="1290" y="911"/>
			<point x="1252" y="910" type="curve" smooth="yes"/>
			<point x="1077" y="907"/>
			<point x="977" y="792"/>
		</contour>
	</outline>
</glyph>
